<?xml version="1.0" encoding="UTF-8"?>
<svg xmlns="http://www.w3.org/2000/svg" xmlns:xlink="http://www.w3.org/1999/xlink" width="1250pt" height="500pt" viewBox="0 0 1250 500" version="1.1">
<g id="surface1">
<!-- <path style=" stroke:none;fill-rule:nonzero;fill:rgb(100%,100%,100%);fill-opacity:1;" d="M 48.902344 -0.0859375 L 1200.976562 -0.0859375 C 1228.007812 -0.0859375 1249.921875 21.828125 1249.921875 48.859375 L 1249.921875 450.953125 C 1249.921875 477.984375 1228.007812 499.898438 1200.976562 499.898438 L 48.902344 499.898438 C 21.871094 499.898438 -0.0429688 477.984375 -0.0429688 450.953125 L -0.0429688 48.859375 C -0.0429688 21.828125 21.871094 -0.0859375 48.902344 -0.0859375 Z M 48.902344 -0.0859375 "/> -->
<path style=" stroke:none;fill-rule:nonzero;fill:rgb(5.882353%,30.196078%,57.254902%);fill-opacity:1;" d="M 175.753906 189.683594 C 165.714844 189.683594 169.320312 208.480469 165.714844 225.707031 C 163.792969 234.878906 185.742188 224.707031 193.984375 211.222656 C 195.65625 208.476562 175.753906 189.683594 175.753906 189.683594 M 165.714844 254.359375 C 165.714844 279.320312 158.929688 294.164062 142.847656 319.152344 C 126.769531 344.132812 111.273438 357.386719 102.851562 369.070312 C 94.429688 380.753906 96.535156 383.9375 108.117188 385 C 119.691406 386.066406 126.539062 392.828125 137.308594 380.402344 C 148.074219 367.976562 179.007812 329.121094 188.722656 304.8125 C 198.4375 280.503906 201.800781 268.167969 204.953125 252.238281 C 208.105469 236.304688 158.636719 254.359375 158.636719 254.359375 "/>
<path style=" stroke:none;fill-rule:nonzero;fill:rgb(5.882353%,30.196078%,57.254902%);fill-opacity:1;" d="M 361.519531 171.273438 C 371.421875 163.558594 380.613281 196.167969 380.613281 202.949219 C 380.613281 209.726562 344.1875 219.5625 324.246094 225.179688 C 304.304688 230.796875 234.035156 249.757812 204.957031 252.234375 C 181.394531 254.246094 164.230469 259.628906 153.257812 262.300781 C 153.257812 262.300781 143.78125 266.285156 131.152344 275.578125 C 111.519531 290.03125 85.894531 289.386719 103.785156 269.203125 C 121.679688 249.027344 104.839844 256.457031 131.15625 243.183594 C 157.46875 229.90625 186.941406 219.039062 193.253906 212.257812 C 193.253906 212.257812 218.75 194.734375 245.554688 199.675781 C 254.9375 201.40625 345.050781 184.105469 361.519531 171.273438 "/>
<path style=" stroke:none;fill-rule:nonzero;fill:rgb(0%,0%,0%);fill-opacity:1;" d="M 380.316406 153.636719 C 403.890625 134.199219 351.894531 157.886719 333.761719 97.167969 C 333.761719 97.167969 323.894531 58.933594 272.695312 53.796875 C 236.300781 50.144531 203.484375 72.382812 197.167969 77.160156 C 158.191406 110.949219 152.417969 184.191406 197.136719 214.890625 C 197.136719 214.890625 203.484375 206.210938 254.003906 201.429688 C 304.53125 196.648438 332.433594 184.625 346.636719 179.128906 C 366.84375 171.300781 356.515625 173.257812 380.3125 153.636719 "/>
<path style=" stroke:none;fill-rule:nonzero;fill:rgb(100%,100%,100%);fill-opacity:1;" d="M 275.214844 136.410156 C 275.214844 150.125 264.199219 161.242188 250.609375 161.242188 C 237.023438 161.242188 226.003906 150.125 226.003906 136.410156 C 226.003906 122.699219 237.023438 111.585938 250.609375 111.585938 C 264.199219 111.585938 275.214844 122.699219 275.214844 136.414062 "/>
<path style=" stroke:none;fill-rule:nonzero;fill:rgb(0%,0%,0%);fill-opacity:1;" d="M 252.542969 132.414062 C 252.542969 136.585938 248.996094 139.964844 244.625 139.964844 C 240.246094 139.964844 236.703125 136.585938 236.703125 132.414062 C 236.703125 128.246094 240.246094 124.871094 244.625 124.871094 C 248.996094 124.871094 252.542969 128.246094 252.542969 132.414062 M 371.792969 209.453125 C 375.46875 207.496094 403.0625 285.535156 389.445312 341.539062 C 379.703125 381.605469 374.097656 398.308594 351.367188 418.976562 C 344.761719 424.980469 343.894531 440.230469 343.894531 440.230469 C 289.515625 447.84375 270.558594 444.480469 236.703125 441.292969 C 202.847656 438.109375 204.445312 422.820312 194.425781 418.988281 C 181.777344 414.148438 174.414062 430.835938 141.796875 421.113281 C 95.484375 407.308594 124.285156 394.15625 130.21875 388.019531 C 199.179688 316.730469 204.953125 252.238281 204.953125 252.238281 C 252.542969 246.621094 351.679688 220.136719 371.792969 209.453125 "/>
<path style="fill:none;stroke-width:1;stroke-linecap:butt;stroke-linejoin:miter;stroke:rgb(0.784314%,0.784314%,0.784314%);stroke-opacity:1;stroke-miterlimit:4;" d="M 152.605819 558.793407 C 153.806371 559.432595 162.818798 533.944163 158.371272 515.652661 C 155.189365 502.566524 153.358556 497.111096 145.93453 490.360706 C 143.77711 488.399763 143.493877 483.418942 143.493877 483.418942 C 125.733118 480.932359 119.541539 482.030845 108.483964 483.071918 C 97.426388 484.111715 97.948201 489.105294 94.67571 490.356878 C 90.544588 491.937626 88.139658 486.487301 77.48652 489.66283 C 62.360339 494.171595 71.766996 498.467298 73.704974 500.471619 C 96.228389 523.755425 98.114058 544.819296 98.114058 544.819296 C 113.657434 546.653932 146.036596 555.304025 152.605819 558.793407 Z M 152.605819 558.793407 " transform="matrix(3.061744,0,0,-3.061744,-95.447041,1920.3357)"/>
<path style=" stroke:none;fill-rule:nonzero;fill:rgb(100%,100%,100%);fill-opacity:1;" d="M 266.960938 240.550781 C 193.542969 354.003906 284.414062 394.808594 382.578125 367.175781 C 382.578125 367.175781 396.628906 326.972656 393.015625 290.476562 C 386.339844 223.027344 369.15625 209.75 369.15625 209.75 C 350.601562 218.078125 266.960938 240.550781 266.960938 240.550781 "/>
<path style=" stroke:none;fill-rule:nonzero;fill:rgb(100%,84.313725%,0%);fill-opacity:1;" d="M 302.464844 222.601562 L 266.960938 227.804688 L 266.960938 199.523438 L 294.800781 194.636719 Z M 354.417969 209.613281 L 327.050781 218.082031 L 318.15625 188.949219 L 340.652344 181.320312 Z M 214.421875 240.550781 L 244.625 235.242188 L 239.175781 205.5 L 213.445312 209.75 Z M 375.46875 199.699219 L 364.945312 205.503906 L 354.417969 175.253906 L 360.582031 171.300781 Z M 160.746094 232.164062 L 182.847656 222.410156 L 187.058594 245.671875 L 158.636719 254.359375 Z M 192.863281 278.554688 L 168.046875 278.554688 L 169.699219 264.980469 L 199.175781 254.359375 Z M 175.332031 318.371094 L 145.332031 319.152344 L 161.121094 293.238281 L 186.09375 293.238281 Z M 158.636719 339.332031 L 134.269531 336.144531 L 115.9375 359.511719 L 140.484375 365.382812 Z M 146.3125 258.078125 L 115.9375 278.554688 L 124.277344 249.316406 L 146.3125 240.550781 Z M 146.3125 258.078125 "/>
<path style=" stroke:none;fill-rule:nonzero;fill:rgb(40%,40%,40%);fill-opacity:1;" d="M 571.453125 203.953125 L 549.859375 203.953125 L 549.859375 159.03125 L 507.746094 159.03125 L 507.746094 203.949219 L 486.152344 203.949219 L 486.152344 99.144531 L 507.746094 99.144531 L 507.746094 141.605469 L 549.859375 141.605469 L 549.859375 99.144531 L 571.453125 99.144531 Z M 585.777344 164.28125 C 585.777344 156.558594 587.261719 149.675781 590.238281 143.628906 C 593.214844 137.585938 597.484375 132.90625 603.054688 129.59375 C 608.667969 126.285156 615.171875 124.628906 622.5625 124.628906 C 633.066406 124.628906 641.632812 127.84375 648.257812 134.273438 C 654.925781 140.699219 658.644531 149.433594 659.410156 160.472656 L 659.558594 165.800781 C 659.558594 177.746094 656.222656 187.347656 649.554688 194.597656 C 642.882812 201.792969 633.933594 205.390625 622.707031 205.390625 C 611.480469 205.390625 602.503906 201.789062 595.78125 194.589844 C 589.109375 187.394531 585.777344 177.605469 585.777344 165.222656 Z M 606.582031 165.800781 C 606.582031 173.191406 607.972656 178.855469 610.757812 182.785156 C 613.539062 186.671875 617.519531 188.613281 622.703125 188.613281 C 627.742188 188.613281 631.675781 186.695312 634.507812 182.855469 C 637.339844 178.96875 638.757812 172.78125 638.757812 164.289062 C 638.757812 157.042969 637.339844 151.425781 634.507812 147.441406 C 631.675781 143.460938 627.695312 141.46875 622.5625 141.46875 C 617.472656 141.46875 613.539062 143.460938 610.757812 147.441406 C 607.96875 151.378906 606.574219 157.5 606.574219 165.800781 Z M 714.695312 182.421875 C 714.695312 179.878906 713.425781 177.890625 710.882812 176.453125 C 708.386719 174.96875 704.355469 173.648438 698.785156 172.496094 C 680.261719 168.605469 671 160.734375 671 148.886719 C 671 141.972656 673.855469 136.214844 679.570312 131.609375 C 685.328125 126.957031 692.835938 124.628906 702.097656 124.628906 C 711.984375 124.628906 719.878906 126.953125 725.78125 131.601562 C 731.734375 136.257812 734.707031 142.304688 734.707031 149.742188 L 713.902344 149.742188 C 713.902344 146.769531 712.941406 144.320312 711.023438 142.402344 C 709.101562 140.433594 706.105469 139.453125 702.027344 139.453125 C 698.523438 139.453125 695.808594 140.242188 693.890625 141.824219 C 691.972656 143.414062 691.011719 145.429688 691.011719 147.875 C 691.011719 150.179688 692.089844 152.050781 694.253906 153.488281 C 696.460938 154.882812 700.15625 156.105469 705.339844 157.164062 C 710.523438 158.171875 714.890625 159.320312 718.441406 160.613281 C 729.429688 164.648438 734.921875 171.628906 734.921875 181.558594 C 734.921875 188.660156 731.875 194.421875 725.78125 198.835938 C 719.6875 203.207031 711.820312 205.390625 702.175781 205.390625 C 695.648438 205.390625 689.839844 204.238281 684.75 201.933594 C 679.710938 199.582031 675.753906 196.390625 672.875 192.359375 C 669.992188 188.28125 668.550781 183.890625 668.550781 179.179688 L 688.285156 179.179688 C 688.472656 182.882812 689.835938 185.714844 692.382812 187.679688 C 694.925781 189.648438 698.335938 190.628906 702.605469 190.628906 C 706.585938 190.628906 709.582031 189.886719 711.601562 188.398438 C 713.664062 186.863281 714.695312 184.875 714.695312 182.421875 Z M 773.148438 106.917969 L 773.148438 126.066406 L 786.464844 126.066406 L 786.464844 141.328125 L 773.148438 141.328125 L 773.148438 180.191406 C 773.148438 183.074219 773.699219 185.136719 774.800781 186.382812 C 775.90625 187.632812 778.019531 188.257812 781.136719 188.257812 C 783.4375 188.257812 785.476562 188.089844 787.25 187.75 L 787.25 203.515625 C 783.175781 204.765625 778.976562 205.390625 774.652344 205.390625 C 760.066406 205.390625 752.628906 198.023438 752.339844 183.289062 L 752.339844 141.328125 L 740.96875 141.328125 L 740.96875 126.066406 L 752.339844 126.066406 L 752.339844 106.917969 Z M 833.898438 205.390625 C 822.476562 205.390625 813.167969 201.886719 805.964844 194.875 C 798.816406 187.871094 795.242188 178.539062 795.242188 166.875 L 795.242188 164.859375 C 795.242188 157.042969 796.753906 150.058594 799.773438 143.914062 C 802.796875 137.722656 807.066406 132.972656 812.589844 129.664062 C 818.160156 126.308594 824.492188 124.628906 831.589844 124.628906 C 842.242188 124.628906 850.617188 127.988281 856.710938 134.703125 C 862.855469 141.421875 865.929688 150.945312 865.929688 163.277344 L 865.929688 171.769531 L 816.332031 171.769531 C 817.003906 176.859375 819.019531 180.9375 822.378906 184.007812 C 825.785156 187.078125 830.082031 188.613281 835.265625 188.613281 C 843.277344 188.613281 849.539062 185.710938 854.046875 179.90625 L 864.269531 191.347656 C 861.15625 195.765625 856.933594 199.21875 851.601562 201.714844 C 846.273438 204.164062 840.371094 205.390625 833.890625 205.390625 Z M 831.527344 141.46875 C 827.394531 141.46875 824.035156 142.859375 821.445312 145.644531 C 818.902344 148.429688 817.269531 152.410156 816.550781 157.59375 L 845.484375 157.59375 L 845.484375 155.933594 C 845.394531 151.332031 844.144531 147.78125 841.742188 145.28125 C 839.34375 142.738281 835.9375 141.46875 831.519531 141.46875 Z M 874.5625 164.425781 C 874.5625 152.289062 877.273438 142.621094 882.699219 135.421875 C 888.167969 128.226562 895.628906 124.628906 905.078125 124.628906 C 912.664062 124.628906 918.929688 127.460938 923.871094 133.121094 L 923.871094 93.386719 L 944.746094 93.386719 L 944.746094 203.949219 L 925.960938 203.949219 L 924.949219 195.671875 C 919.769531 202.152344 913.097656 205.390625 904.941406 205.390625 C 895.773438 205.390625 888.40625 201.789062 882.835938 194.589844 C 877.324219 187.34375 874.566406 177.289062 874.566406 164.425781 Z M 895.367188 165.941406 C 895.367188 173.238281 896.636719 178.832031 899.179688 182.714844 C 901.722656 186.601562 905.417969 188.546875 910.265625 188.546875 C 916.699219 188.546875 921.234375 185.832031 923.871094 180.410156 L 923.871094 149.671875 C 921.28125 144.253906 916.796875 141.542969 910.414062 141.542969 C 900.382812 141.542969 895.367188 149.679688 895.367188 165.949219 Z M 1068.046875 165.722656 C 1068.046875 178.199219 1065.386719 187.941406 1060.0625 194.953125 C 1054.734375 201.910156 1047.296875 205.390625 1037.75 205.390625 C 1029.300781 205.390625 1022.554688 202.152344 1017.515625 195.671875 L 1016.582031 203.949219 L 997.867188 203.949219 L 997.867188 93.386719 L 1018.675781 93.386719 L 1018.675781 133.042969 C 1023.472656 127.433594 1029.78125 124.628906 1037.605469 124.628906 C 1047.105469 124.628906 1054.542969 128.132812 1059.917969 135.136719 C 1065.339844 142.09375 1068.054688 151.90625 1068.054688 164.574219 Z M 1047.246094 164.21875 C 1047.246094 156.34375 1046 150.609375 1043.503906 147.011719 C 1041.007812 143.367188 1037.289062 141.542969 1032.347656 141.542969 C 1025.722656 141.542969 1021.167969 144.253906 1018.675781 149.671875 L 1018.675781 180.410156 C 1021.21875 185.878906 1025.824219 188.613281 1032.492188 188.613281 C 1039.210938 188.613281 1043.625 185.304688 1045.742188 178.6875 C 1046.746094 175.515625 1047.246094 170.691406 1047.246094 164.210938 Z M 1109.875 174.507812 L 1124.265625 126.066406 L 1146.578125 126.066406 L 1115.269531 216.042969 L 1113.542969 220.144531 C 1108.890625 230.320312 1101.210938 235.40625 1090.511719 235.40625 C 1087.492188 235.40625 1084.417969 234.949219 1081.292969 234.035156 L 1081.292969 218.277344 L 1084.460938 218.34375 C 1088.398438 218.34375 1091.324219 217.746094 1093.246094 216.546875 C 1095.210938 215.347656 1096.746094 213.355469 1097.847656 210.570312 L 1100.300781 204.164062 L 1073.019531 126.066406 L 1095.398438 126.066406 Z M 1109.875 174.507812 "/>
<path style=" stroke:none;fill-rule:nonzero;fill:rgb(40%,40%,40%);fill-opacity:1;" d="M 501.089844 281.828125 L 501.089844 300.976562 L 514.40625 300.976562 L 514.40625 316.230469 L 501.089844 316.230469 L 501.089844 355.101562 C 501.089844 357.984375 501.640625 360.050781 502.746094 361.292969 C 503.847656 362.539062 505.960938 363.164062 509.078125 363.164062 C 511.382812 363.164062 513.425781 362.996094 515.199219 362.660156 L 515.199219 378.417969 C 511.121094 379.675781 506.917969 380.300781 502.601562 380.300781 C 488.015625 380.300781 480.578125 372.933594 480.289062 358.199219 L 480.289062 316.230469 L 468.917969 316.230469 L 468.917969 300.976562 L 480.28125 300.976562 L 480.28125 281.828125 Z M 546.296875 309.46875 C 551.816406 302.84375 558.75 299.53125 567.097656 299.53125 C 583.988281 299.53125 592.554688 309.347656 592.789062 328.976562 L 592.789062 378.859375 L 571.992188 378.859375 L 571.992188 329.550781 C 571.992188 325.085938 571.03125 321.800781 569.113281 319.691406 C 567.191406 317.527344 564 316.449219 559.539062 316.449219 C 553.445312 316.449219 549.027344 318.800781 546.289062 323.503906 L 546.289062 378.859375 L 525.492188 378.859375 L 525.492188 268.296875 L 546.289062 268.296875 Z M 644.46875 380.292969 C 633.054688 380.292969 623.746094 376.792969 616.546875 369.789062 C 609.394531 362.78125 605.820312 353.449219 605.820312 341.785156 L 605.820312 339.769531 C 605.820312 331.949219 607.332031 324.964844 610.355469 318.824219 C 613.375 312.632812 617.648438 307.882812 623.167969 304.574219 C 628.738281 301.214844 635.070312 299.53125 642.167969 299.53125 C 652.824219 299.53125 661.195312 302.894531 667.289062 309.613281 C 673.4375 316.332031 676.507812 325.855469 676.507812 338.1875 L 676.507812 346.679688 L 626.914062 346.679688 C 627.582031 351.769531 629.597656 355.847656 632.957031 358.917969 C 636.367188 361.988281 640.660156 363.527344 645.84375 363.527344 C 653.855469 363.527344 660.117188 360.621094 664.628906 354.808594 L 674.847656 366.257812 C 671.734375 370.675781 667.511719 374.132812 662.179688 376.628906 C 656.859375 379.070312 650.953125 380.292969 644.46875 380.292969 Z M 642.097656 316.378906 C 637.972656 316.378906 634.613281 317.769531 632.023438 320.554688 C 629.480469 323.339844 627.851562 327.320312 627.128906 332.5 L 656.066406 332.5 L 656.066406 330.847656 C 655.972656 326.238281 654.722656 322.6875 652.320312 320.191406 C 649.921875 317.648438 646.515625 316.378906 642.097656 316.378906 Z M 642.097656 316.378906 "/>
<path style=" stroke:none;fill-rule:nonzero;fill:rgb(0%,0%,0%);fill-opacity:1;" d="M 869.964844 332.21875 C 869.964844 348.726562 867.050781 363.199219 861.214844 375.636719 C 855.378906 388.074219 847.007812 397.675781 836.109375 404.433594 C 825.277344 411.1875 812.839844 414.5625 798.792969 414.5625 C 784.894531 414.5625 772.492188 411.222656 761.59375 404.546875 C 750.6875 397.867188 742.242188 388.34375 736.253906 375.984375 C 730.261719 363.546875 727.230469 349.265625 727.15625 333.140625 L 727.15625 324.84375 C 727.15625 308.339844 730.109375 293.832031 736.019531 281.3125 C 742.011719 268.71875 750.417969 259.082031 761.246094 252.40625 C 772.148438 245.648438 784.589844 242.269531 798.5625 242.269531 C 812.535156 242.269531 824.933594 245.648438 835.757812 252.40625 C 846.664062 259.085938 855.074219 268.722656 860.984375 281.3125 C 866.972656 293.828125 869.964844 308.300781 869.964844 324.730469 Z M 834.957031 324.621094 C 834.957031 307.035156 831.808594 293.671875 825.507812 284.535156 C 819.214844 275.402344 810.234375 270.835938 798.5625 270.835938 C 786.96875 270.835938 778.023438 275.363281 771.722656 284.421875 C 765.429688 293.410156 762.246094 306.613281 762.171875 324.039062 L 762.171875 332.21875 C 762.171875 349.34375 765.320312 362.625 771.613281 372.066406 C 777.90625 381.511719 786.964844 386.234375 798.792969 386.234375 C 810.382812 386.234375 819.289062 381.703125 825.507812 372.640625 C 831.730469 363.503906 834.878906 350.226562 834.957031 332.796875 Z M 1020.667969 356.40625 C 1019.367188 374.453125 1012.6875 388.65625 1000.628906 399.023438 C 988.652344 409.386719 972.835938 414.570312 953.183594 414.570312 C 931.683594 414.570312 914.753906 407.351562 902.386719 392.914062 C 890.101562 378.402344 883.960938 358.515625 883.960938 333.257812 L 883.960938 323.007812 C 883.960938 306.878906 886.800781 292.675781 892.488281 280.394531 C 898.167969 268.109375 906.265625 258.703125 916.785156 252.175781 C 927.382812 245.574219 939.667969 242.273438 953.640625 242.273438 C 972.988281 242.273438 988.574219 247.457031 1000.398438 257.824219 C 1012.226562 268.1875 1019.058594 282.738281 1020.898438 301.472656 L 986.351562 301.472656 C 985.503906 290.640625 982.472656 282.808594 977.25 277.972656 C 972.105469 273.0625 964.234375 270.605469 953.640625 270.605469 C 942.125 270.605469 933.484375 274.75 927.726562 283.042969 C 922.046875 291.257812 919.128906 304.039062 918.976562 321.390625 L 918.976562 334.058594 C 918.976562 352.183594 921.703125 365.429688 927.152344 373.796875 C 932.679688 382.164062 941.355469 386.347656 953.183594 386.347656 C 963.855469 386.347656 971.804688 383.929688 977.027344 379.09375 C 982.324219 374.183594 985.351562 366.621094 986.121094 356.40625 Z M 1141.816406 343.738281 L 1075.472656 343.738281 L 1075.472656 412.261719 L 1040.921875 412.261719 L 1040.921875 244.574219 L 1150.105469 244.574219 L 1150.105469 272.5625 L 1075.472656 272.5625 L 1075.472656 315.863281 L 1141.808594 315.863281 Z M 1141.816406 343.738281 "/>
</g>
</svg>
