<svg width="20" height="20" viewBox="0 0 20 20" fill="none" xmlns="http://www.w3.org/2000/svg">
<path d="M7.91667 8.33333C8.29969 8.33333 8.67896 8.25789 9.03283 8.11132C9.38669 7.96474 9.70822 7.7499 9.97906 7.47906C10.2499 7.20822 10.4647 6.88669 10.6113 6.53283C10.7579 6.17896 10.8333 5.79969 10.8333 5.41667C10.8333 5.03364 10.7579 4.65437 10.6113 4.30051C10.4647 3.94664 10.2499 3.62511 9.97906 3.35427C9.70822 3.08343 9.38669 2.86859 9.03283 2.72202C8.67896 2.57544 8.29969 2.5 7.91667 2.5C7.14312 2.5 6.40125 2.80729 5.85427 3.35427C5.30729 3.90125 5 4.64312 5 5.41667C5 6.19021 5.30729 6.93208 5.85427 7.47906C6.40125 8.02604 7.14312 8.33333 7.91667 8.33333Z" stroke="#64748B" stroke-width="1.5" stroke-linejoin="round"/>
<path d="M13.75 12.9167L17.0833 16.25M13.75 16.25L17.0833 12.9167M11.25 11.6667H7.83333C5.96667 11.6667 5.03333 11.6667 4.32 12.03C3.69282 12.3496 3.18291 12.8595 2.86333 13.4867C2.5 14.2 2.5 15.1334 2.5 17V17.5H11.25" stroke="#64748B" stroke-width="1.5" stroke-linecap="round" stroke-linejoin="round"/>
</svg>
