<svg width="18" height="18" viewBox="0 0 18 18" fill="none" xmlns="http://www.w3.org/2000/svg">
<path d="M1.73333 0.849986C1.67612 0.78858 1.60712 0.739328 1.53045 0.705168C1.45378 0.671008 1.37102 0.65264 1.2871 0.651159C1.20318 0.649679 1.11983 0.665116 1.042 0.69655C0.964179 0.727984 0.893484 0.774771 0.834135 0.83412C0.774787 0.893469 0.727999 0.964164 0.696565 1.04199C0.665131 1.11981 0.649694 1.20317 0.651175 1.28709C0.652655 1.37101 0.671023 1.45377 0.705183 1.53043C0.739343 1.6071 0.788595 1.6761 0.850001 1.73332L2.44583 3.32999C1.92409 3.52055 1.47355 3.86693 1.15529 4.32218C0.837036 4.77743 0.666454 5.31952 0.666667 5.87499V13.7917C0.666667 14.5099 0.952009 15.1988 1.45992 15.7067C1.96783 16.2146 2.65671 16.5 3.375 16.5H14.625C14.915 16.5009 15.2033 16.4544 15.4783 16.3625L16.2658 17.15C16.3837 17.2639 16.5415 17.327 16.7054 17.3256C16.8693 17.3243 17.026 17.2586 17.142 17.1428C17.2579 17.027 17.3237 16.8702 17.3252 16.7064C17.3267 16.5425 17.2638 16.3846 17.15 16.2667L1.73333 0.849986ZM14.3667 15.25H3.375C2.98823 15.25 2.61729 15.0963 2.3438 14.8228C2.07031 14.5494 1.91667 14.1784 1.91667 13.7917V5.87499C1.91667 5.06999 2.57 4.41665 3.375 4.41665H3.53333L6.125 7.00832C5.52155 7.72681 5.20937 8.64541 5.25008 9.58281C5.29079 10.5202 5.68144 11.4083 6.3449 12.0718C7.00837 12.7352 7.89645 13.1259 8.83385 13.1666C9.77125 13.2073 10.6898 12.8951 11.4083 12.2917L14.3667 15.25ZM7.015 7.89832L10.5192 11.4025C10.038 11.7713 9.43916 11.9526 8.83421 11.9128C8.22927 11.8729 7.65941 11.6146 7.23073 11.1859C6.80204 10.7572 6.54374 10.1874 6.5039 9.58244C6.46406 8.9775 6.6454 8.37869 7.01417 7.89749M8.37083 5.71832L9.65417 7.00249C10.0753 7.11656 10.4593 7.33888 10.7679 7.64736C11.0766 7.95583 11.2991 8.3397 11.4133 8.76082L12.6967 10.045C12.7973 9.45429 12.755 8.84807 12.5731 8.27711C12.3913 7.70616 12.0753 7.18708 11.6516 6.76338C11.2279 6.33967 10.7088 6.02367 10.1379 5.84184C9.56691 5.66002 8.96153 5.61766 8.37083 5.71832ZM16.0825 5.87415V13.4308L17.2192 14.5683C17.2942 14.3205 17.3319 14.0614 17.3325 13.7908V5.87415C17.3323 5.15615 17.047 4.46761 16.5392 3.9599C16.0315 3.4522 15.343 3.16687 14.625 3.16665H12.9L12.2208 2.01082C12.0553 1.72915 11.8191 1.49563 11.5355 1.33338C11.2519 1.17113 10.9309 1.08579 10.6042 1.08582H7.435C7.1145 1.0859 6.79937 1.16814 6.5197 1.32468C6.24003 1.48122 6.00516 1.70684 5.8375 1.97999L5.37917 2.72665L6.2875 3.63582L6.9025 2.63415L6.95667 2.55915C7.01528 2.48928 7.08846 2.43309 7.1711 2.3945C7.25373 2.35592 7.34381 2.33589 7.435 2.33582H10.6042C10.713 2.33591 10.8199 2.3644 10.9143 2.41848C11.0087 2.47255 11.0874 2.55034 11.1425 2.64415L12.0025 4.10832C12.0577 4.20225 12.1365 4.28012 12.2311 4.3342C12.3256 4.38829 12.4327 4.41671 12.5417 4.41665H14.625C15.43 4.41665 16.0833 5.06999 16.0833 5.87499" fill="#64748B"/>
</svg>
