<svg width="224" height="1158" viewBox="0 0 224 1158" fill="none" xmlns="http://www.w3.org/2000/svg">
<g opacity="0.65">
<path d="M127.556 268.414L210.66 301.269L210.66 1157.5C210.66 1157.5 155 1142 125 1126.5C77.5 1105 12.5 1072.5 12.5 1072.5L15.4609 286.968L127.556 268.414Z" fill="#EEFFFF"/>
<path d="M127.43 329.634L127.382 329.621L127.332 329.628L16.1016 345.242L16.1016 309.796L127.347 292.251L210.608 318.463V351.583L127.43 329.634Z" fill="#EEFFFF" stroke="#131628" stroke-width="0.5"/>
<path d="M147.965 1095.87L147.965 514.519L195.861 527.771L195.861 1095.87H147.965Z" fill="#EEFFFF" stroke="#131628"/>
<path d="M178.002 541.693L175.683 570.877L169.691 602.572" stroke="#131628" stroke-width="2"/>
<path d="M13.2691 490.346V490.265L13.2213 490.199L6.06026 480.349L133.508 464.254L223.28 487.532L213.262 492.378L213.121 492.447V492.603V504.277L133.577 487.217L133.535 487.208L133.493 487.213L13.2691 502.37V490.346Z" fill="#415B7A" stroke="#131628" stroke-width="0.5"/>
<path d="M33.3544 524.156L110.242 513.663L110.242 1096.65L65.6078 1097.5L56.2141 1093.05L56.2031 1093.04L47.2293 1089.06L47.2031 1089.04L32.0007 1081.2L33.3544 524.156Z" fill="#EEFFFF" stroke="#131628"/>
<path d="M78.4617 537.825L67.832 571.26L59.7148 602.376" stroke="#131628" stroke-width="2"/>
<path d="M71.6211 655.028V634.962H74.0999V655.028H71.6211Z" fill="#131628" stroke="#131628"/>
<path d="M71.8125 766.351V746.285H74.2913V766.351H71.8125Z" fill="#131628" stroke="#131628"/>
<path d="M69.8828 884.629V864.562H72.3616V884.629H69.8828Z" fill="#131628" stroke="#131628"/>
<path d="M174.214 660.373L172.508 659.642V638.555L174.214 639.408V660.373Z" fill="#EEFFFF" stroke="#131628"/>
<path d="M174.409 769.569L172.703 768.838V747.751L174.409 748.604V769.569Z" fill="#EEFFFF" stroke="#131628"/>
<path d="M174.022 886.69L172.316 885.958V864.872L174.022 865.724V886.69Z" fill="#EEFFFF" stroke="#131628"/>
<path d="M213.06 463.799V467.394L131.368 443.615L131.263 443.584L131.154 443.6L12.6758 461.295V458.825L131.196 440.547L213.06 463.799Z" fill="#131628" stroke="#131628"/>
<path d="M130.436 300.365L222.871 330.344L216.312 335.08L216.209 335.155V335.283V338.705H207.608L130.531 313.979L130.475 313.961L130.416 313.97L14.9469 332.314L9.62007 328.319L9.55341 328.269H9.47007H6.09943L0.501602 322.31L130.436 300.365Z" fill="#415B7A" stroke="#131628" stroke-width="0.5"/>
<path d="M187.89 240.161H185.821V235.25H195.564V240.161H192.142H191.892V240.411V245.243V245.351L191.971 245.425L198.664 251.736L201.584 291.645L202.106 298.776L179.25 289.142V283.91L183.284 245.493H187.6H187.836L187.85 245.258L188.14 240.426L188.156 240.161H187.89Z" fill="#EEFFFF" stroke="#131628" stroke-width="0.5"/>
<path d="M25.2768 238.161H23.2076V233.25H32.9507V238.161H29.5287H29.2787V238.411V243.243V243.351L29.3572 243.425L36.0526 249.738L39.116 283.627L29.4836 285.516L16.2811 287.779L20.6716 243.493H24.9869H25.2224L25.2365 243.258L25.5264 238.426L25.5423 238.161H25.2768Z" fill="#EEFFFF" stroke="#131628" stroke-width="0.5"/>
<path d="M29.5 285V243.5L36 249.5L39 283.5L29.5 285Z" fill="#415B7A"/>
<path d="M127.486 269.167L45.25 282.263V266.322L45.25 250.124L94.3289 88.9756L94.3398 88.94V88.9027L94.3398 83.6845V70.3924L95.2323 67.8934H98.3416H98.5916V67.6434V59.7982L99.8993 57.9301L99.9445 57.8656V57.7868V41.1658V40.9158H99.6945H96.0913L98.5273 37.0878L101.388 34.9896L101.491 34.9147V34.788V33.2986H103.753H104.003V33.0486V28.99V28.74H103.753H101.491V27.5006H103.753H103.989L104.003 27.2648L105.216 5.88093L105.822 27.2577L105.829 27.5006H106.072H108.915V28.74H106.072H105.822V28.99V33.0486V33.2986H106.072H110.074V34.788V34.9484L110.22 35.0153L114.769 37.1001L116.33 40.9158H113.996H113.746V41.1658V57.7868V57.8458L113.773 57.8986L114.713 59.7785V67.6434V67.7168L114.752 67.7786L116.452 70.4226V83.6845V83.7208L116.462 83.7555L118.008 88.9738L118.009 88.9753L166.895 250.124V266.322V284.893L127.618 269.182L127.554 269.156L127.486 269.167Z" fill="#EEFFFF" stroke="#131628" stroke-width="0.5"/>
<mask id="path-20-inside-1_481_3666" fill="white">
<path fill-rule="evenodd" clip-rule="evenodd" d="M106.883 341.852L30.9292 352.002L31.6274 361.948C32.9384 357.929 37.5812 354.564 43.4588 353.81C49.2931 353.061 54.5999 355.108 56.9112 358.618L57.0125 358.604C58.3627 354.625 62.9802 351.304 68.8143 350.555C74.5966 349.813 79.8607 351.817 82.2041 355.269L82.4021 355.243C83.799 351.312 88.3852 348.045 94.1659 347.303C99.4477 346.625 104.297 348.239 106.883 351.154L106.883 341.852Z"/>
</mask>
<path fill-rule="evenodd" clip-rule="evenodd" d="M106.883 341.852L30.9292 352.002L31.6274 361.948C32.9384 357.929 37.5812 354.564 43.4588 353.81C49.2931 353.061 54.5999 355.108 56.9112 358.618L57.0125 358.604C58.3627 354.625 62.9802 351.304 68.8143 350.555C74.5966 349.813 79.8607 351.817 82.2041 355.269L82.4021 355.243C83.799 351.312 88.3852 348.045 94.1659 347.303C99.4477 346.625 104.297 348.239 106.883 351.154L106.883 341.852Z" fill="#EEFFFF"/>
<path d="M30.9292 352.002L30.7967 351.011L29.8659 351.135L29.9316 352.072L30.9292 352.002ZM106.883 341.852L107.883 341.852L107.883 340.71L106.751 340.861L106.883 341.852ZM31.6274 361.948L30.6299 362.018L32.5781 362.258L31.6274 361.948ZM56.9112 358.618L56.076 359.168L56.4209 359.691L57.0424 359.609L56.9112 358.618ZM57.0125 358.604L57.1438 359.596L57.7599 359.514L57.9595 358.925L57.0125 358.604ZM82.2041 355.269L81.3767 355.831L81.7234 356.342L82.3353 356.261L82.2041 355.269ZM82.4021 355.243L82.5333 356.234L83.1395 356.154L83.3443 355.578L82.4021 355.243ZM106.883 351.154L106.135 351.818L107.883 353.789L107.883 351.154L106.883 351.154ZM31.0616 352.993L107.016 342.843L106.751 340.861L30.7967 351.011L31.0616 352.993ZM32.625 361.878L31.9267 351.932L29.9316 352.072L30.6299 362.018L32.625 361.878ZM32.5781 362.258C33.7319 358.722 37.9552 355.525 43.5862 354.802L43.3315 352.818C37.2073 353.604 32.145 357.137 30.6768 361.638L32.5781 362.258ZM43.5862 354.802C49.1742 354.084 54.0395 356.075 56.076 359.168L57.7463 358.068C55.1603 354.141 49.4121 352.037 43.3315 352.818L43.5862 354.802ZM56.8813 357.613L56.7799 357.626L57.0424 359.609L57.1438 359.596L56.8813 357.613ZM68.687 349.563C62.6066 350.344 57.5762 353.831 56.0656 358.283L57.9595 358.925C59.1491 355.419 63.3538 352.264 68.9416 351.547L68.687 349.563ZM83.0314 354.708C80.4124 350.849 74.7151 348.789 68.687 349.563L68.9416 351.547C74.4781 350.836 79.3089 352.785 81.3767 355.831L83.0314 354.708ZM82.2708 354.252L82.0728 354.278L82.3353 356.261L82.5333 356.234L82.2708 354.252ZM94.0385 346.311C88.0121 347.085 83.021 350.515 81.4598 354.908L83.3443 355.578C84.577 352.109 88.7584 349.005 94.2932 348.295L94.0385 346.311ZM107.631 350.491C104.772 347.267 99.5585 345.603 94.0385 346.311L94.2932 348.295C99.337 347.647 103.823 349.211 106.135 351.818L107.631 350.491ZM105.883 341.852L105.883 351.154L107.883 351.154L107.883 341.852L105.883 341.852Z" fill="#131628" mask="url(#path-20-inside-1_481_3666)"/>
<path d="M155.674 435.759L146.032 433.769L146.032 433.414L146.032 431.254L146.032 423.506L146.031 399.625C146.031 382.012 146.031 363.723 146.032 361.019C146.032 360.428 146.177 359.976 146.406 359.635C146.635 359.293 146.967 359.033 147.389 358.856C148.245 358.498 149.449 358.499 150.709 358.879C153.24 359.642 155.674 361.821 155.674 364.905V435.759ZM160.492 437.172L160.497 436.846L160.524 434.816C160.547 433.063 160.58 430.55 160.619 427.511C160.698 421.433 160.804 413.251 160.91 404.832C161.121 387.998 161.332 370.211 161.332 366.426C161.332 364.679 162.003 363.667 162.922 363.157C163.874 362.628 165.202 362.577 166.598 363.002C169.399 363.854 172.156 366.515 172.156 370.143V440.283L160.492 437.172ZM177.791 441.739L177.791 441.417C177.791 440.959 177.792 440.288 177.792 439.43C177.793 437.713 177.795 435.252 177.799 432.273C177.807 426.316 177.823 418.285 177.855 409.997C177.918 393.407 178.045 375.815 178.297 371.694C178.416 369.757 179.198 368.556 180.241 367.906C181.3 367.245 182.709 367.104 184.154 367.46C187.05 368.175 189.869 370.834 189.869 374.705V445.172L177.791 441.739Z" fill="#415B7A" stroke="#131628"/>
<path d="M36.2578 439.473L36.2578 439.415L36.2579 437.648L36.2581 431.228L36.2585 410.724C36.2587 395.125 36.2587 377.64 36.2578 370.092C36.2574 366.418 37.3358 363.819 38.8992 362.128C40.4644 360.435 42.5525 359.613 44.6504 359.558C48.8637 359.446 53.0179 362.407 53.0179 367.533L53.0179 437.541L36.2578 439.473ZM77.9146 434.305L61.496 436.396L61.496 366.51C61.496 359.936 65.6614 356.494 69.7468 356.154C71.8004 355.983 73.8362 356.592 75.3559 357.979C76.87 359.36 77.9146 361.553 77.9146 364.633V434.305ZM102.515 431.755L86.0961 434.167V363.439C86.0961 356.605 90.2663 353.207 94.3517 352.827C96.4106 352.636 98.451 353.207 99.9706 354.489C101.481 355.764 102.515 357.773 102.515 360.539L102.515 431.755Z" fill="#415B7A" stroke="#131628"/>
<path d="M143.325 354.248L142.99 347.333L168.021 354.412L193.357 361.576L193.357 366.889C193.151 366.529 192.906 366.146 192.617 365.757C191.302 363.984 189.075 362.069 185.46 361.502C181.89 360.942 179.445 361.675 177.879 362.585C177.124 363.024 176.581 363.499 176.22 363.877C176.191 363.814 176.16 363.748 176.128 363.679C175.835 363.068 175.368 362.241 174.671 361.369C173.274 359.621 170.951 357.696 167.265 356.971C163.616 356.253 161.067 356.816 159.413 357.592C158.589 357.978 157.995 358.414 157.604 358.758C157.574 358.784 157.545 358.81 157.517 358.835C157.35 358.549 157.122 358.18 156.835 357.765C156.171 356.805 155.18 355.583 153.883 354.567C152.584 353.551 150.959 352.727 149.039 352.602C147.316 352.489 145.403 352.943 143.325 354.248Z" fill="#EEFFFF" stroke="#131628"/>
</g>
<path d="M192 284V245.5L199 252L201 291L192 284Z" fill="#415B7A"/>
<path d="M126 1126L129 269L211 301V326.5L224 330.5L217.5 335V338.5H211V462.5L214 463.5V467.5L211 466.5V484L223.5 487.5L214 492V504.5L211 503.5L212 1157.5L164 1141.5L126 1126Z" fill="#415B7A" fill-opacity="0.85"/>
<path d="M107.5 58V41H113.5V58L114.5 59.5V68L116.5 70.5V84L167.5 249.5V284.5L127.5 269V235.5L110.5 89V70.5L109.5 68V59.5L107.5 58Z" fill="#415B7A"/>
<path d="M133.501 1063.5L211.5 556.498L210 1157.5L125.001 1127L133.501 1063.5Z" fill="#415B7A"/>
</svg>
