<svg width="34" height="34" viewBox="0 0 34 34" fill="none" xmlns="http://www.w3.org/2000/svg">
<path fill-rule="evenodd" clip-rule="evenodd" d="M16.9999 0.333984C7.79992 0.333984 0.333252 7.80065 0.333252 17.0007C0.333252 26.2007 7.79992 33.6673 16.9999 33.6673C26.1999 33.6673 33.6666 26.2007 33.6666 17.0007C33.6666 7.80065 26.1999 0.333984 16.9999 0.333984ZM8.78321 27.4673C9.49988 25.9673 13.8665 24.5007 16.9999 24.5007C20.1332 24.5007 24.5165 25.9673 25.2165 27.4673C22.9499 29.2673 20.0999 30.334 16.9999 30.334C13.8999 30.334 11.0499 29.2673 8.78321 27.4673ZM16.9999 21.1673C19.4333 21.1673 25.2166 22.1507 27.5999 25.0507C29.2999 22.8173 30.3333 20.034 30.3333 17.0007C30.3333 9.65065 24.3499 3.66732 16.9999 3.66732C9.64992 3.66732 3.66659 9.65065 3.66659 17.0007C3.66659 20.034 4.69992 22.8173 6.39992 25.0507C8.78325 22.1507 14.5666 21.1673 16.9999 21.1673ZM16.9999 7.00065C13.7666 7.00065 11.1666 9.60065 11.1666 12.834C11.1666 16.0673 13.7666 18.6673 16.9999 18.6673C20.2332 18.6673 22.8333 16.0673 22.8333 12.834C22.8333 9.60065 20.2332 7.00065 16.9999 7.00065ZM14.4999 12.834C14.4999 14.2173 15.6166 15.334 16.9999 15.334C18.3833 15.334 19.4999 14.2173 19.4999 12.834C19.4999 11.4507 18.3833 10.334 16.9999 10.334C15.6166 10.334 14.4999 11.4507 14.4999 12.834Z" fill="#2F80ED"/>
</svg>
