<svg width="460" height="48" viewBox="0 0 460 48" fill="none" xmlns="http://www.w3.org/2000/svg">
<rect width="460" height="48" rx="4" fill="#2F80ED"/>
<path d="M146.224 20.4531H148.76C148.71 17.9957 146.615 16.2557 143.518 16.2557C140.464 16.2557 138.17 17.9744 138.177 20.5455C138.177 22.6335 139.662 23.8338 142.055 24.4517L143.71 24.8778C145.28 25.2756 146.316 25.7656 146.324 26.8949C146.316 28.1378 145.138 28.9688 143.419 28.9688C141.771 28.9688 140.493 28.2301 140.386 26.7031H137.794C137.9 29.5938 140.052 31.2202 143.44 31.2202C146.927 31.2202 148.951 29.4801 148.959 26.9162C148.951 24.3949 146.87 23.2443 144.683 22.7259L143.319 22.3849C142.126 22.1009 140.834 21.5966 140.848 20.3821C140.855 19.2884 141.835 18.4858 143.483 18.4858C145.052 18.4858 146.089 19.2173 146.224 20.4531ZM151.194 31H153.765V20.0909H151.194V31ZM152.487 18.5426C153.303 18.5426 153.971 17.9176 153.971 17.1506C153.971 16.3764 153.303 15.7514 152.487 15.7514C151.663 15.7514 150.995 16.3764 150.995 17.1506C150.995 17.9176 151.663 18.5426 152.487 18.5426ZM161.153 35.3182C164.101 35.3182 166.274 33.9688 166.274 31.1776V20.0909H163.738V21.8949H163.596C163.206 21.1065 162.389 19.9489 160.464 19.9489C157.943 19.9489 155.961 21.9233 155.961 25.5099C155.961 29.0682 157.943 30.8438 160.457 30.8438C162.325 30.8438 163.199 29.8423 163.596 29.0398H163.724V31.1065C163.724 32.7116 162.659 33.3722 161.196 33.3722C159.647 33.3722 158.966 32.6406 158.653 32.0014L156.338 32.5625C156.807 34.0895 158.376 35.3182 161.153 35.3182ZM161.174 28.8267C159.477 28.8267 158.582 27.5057 158.582 25.4957C158.582 23.5142 159.463 22.0582 161.174 22.0582C162.829 22.0582 163.738 23.429 163.738 25.4957C163.738 27.5767 162.815 28.8267 161.174 28.8267ZM171.48 24.608C171.48 23.0312 172.432 22.1222 173.788 22.1222C175.116 22.1222 175.912 22.9957 175.912 24.4517V31H178.483V24.054C178.49 21.4403 176.998 19.9489 174.747 19.9489C173.113 19.9489 171.991 20.7301 171.494 21.9446H171.366V20.0909H168.909V31H171.48V24.608ZM186.057 31H188.628V20.0909H186.057V31ZM187.35 18.5426C188.167 18.5426 188.834 17.9176 188.834 17.1506C188.834 16.3764 188.167 15.7514 187.35 15.7514C186.526 15.7514 185.858 16.3764 185.858 17.1506C185.858 17.9176 186.526 18.5426 187.35 18.5426ZM193.843 24.608C193.843 23.0312 194.795 22.1222 196.151 22.1222C197.479 22.1222 198.275 22.9957 198.275 24.4517V31H200.846V24.054C200.853 21.4403 199.362 19.9489 197.11 19.9489C195.477 19.9489 194.354 20.7301 193.857 21.9446H193.729V20.0909H191.272V31H193.843V24.608ZM210.672 31H213.357L215.402 23.6278H215.551L217.597 31H220.274L223.364 20.0909H220.736L218.847 27.7188H218.74L216.78 20.0909H214.188L212.227 27.7614H212.128L210.21 20.0909H207.59L210.672 31ZM225.159 31H227.73V20.0909H225.159V31ZM226.451 18.5426C227.268 18.5426 227.936 17.9176 227.936 17.1506C227.936 16.3764 227.268 15.7514 226.451 15.7514C225.628 15.7514 224.96 16.3764 224.96 17.1506C224.96 17.9176 225.628 18.5426 226.451 18.5426ZM235.821 20.0909H233.669V17.4773H231.098V20.0909H229.55V22.0795H231.098V28.1449C231.084 30.1974 232.575 31.206 234.507 31.1491C235.239 31.1278 235.743 30.9858 236.02 30.8935L235.587 28.8835C235.445 28.919 235.153 28.983 234.834 28.983C234.188 28.983 233.669 28.7557 233.669 27.7188V22.0795H235.821V20.0909ZM240.777 24.608C240.777 23.0312 241.757 22.1222 243.135 22.1222C244.484 22.1222 245.28 22.9815 245.28 24.4517V31H247.851V24.054C247.851 21.419 246.359 19.9489 244.093 19.9489C242.417 19.9489 241.352 20.7088 240.848 21.9446H240.72V16.4545H238.206V31H240.777V24.608ZM265.29 21.0994H267.975C267.527 18.2443 265.056 16.2557 261.838 16.2557C258.032 16.2557 255.177 19.054 255.177 23.7415C255.177 28.3438 257.904 31.1989 261.917 31.1989C265.517 31.1989 268.096 28.8835 268.096 25.1335V23.3864H262.194V25.446H265.546C265.503 27.5199 264.118 28.8338 261.931 28.8338C259.495 28.8338 257.826 27.0085 257.826 23.7131C257.826 20.4389 259.523 18.6207 261.874 18.6207C263.628 18.6207 264.821 19.5582 265.29 21.0994ZM275.288 31.2131C278.484 31.2131 280.516 28.9616 280.516 25.5881C280.516 22.2074 278.484 19.9489 275.288 19.9489C272.092 19.9489 270.061 22.2074 270.061 25.5881C270.061 28.9616 272.092 31.2131 275.288 31.2131ZM275.303 29.1534C273.534 29.1534 272.668 27.5767 272.668 25.581C272.668 23.5852 273.534 21.9872 275.303 21.9872C277.043 21.9872 277.909 23.5852 277.909 25.581C277.909 27.5767 277.043 29.1534 275.303 29.1534ZM287.456 31.2131C290.652 31.2131 292.684 28.9616 292.684 25.5881C292.684 22.2074 290.652 19.9489 287.456 19.9489C284.26 19.9489 282.229 22.2074 282.229 25.5881C282.229 28.9616 284.26 31.2131 287.456 31.2131ZM287.471 29.1534C285.702 29.1534 284.836 27.5767 284.836 25.581C284.836 23.5852 285.702 21.9872 287.471 21.9872C289.211 21.9872 290.077 23.5852 290.077 25.581C290.077 27.5767 289.211 29.1534 287.471 29.1534ZM299.61 35.3182C302.558 35.3182 304.731 33.9688 304.731 31.1776V20.0909H302.195V21.8949H302.053C301.663 21.1065 300.846 19.9489 298.921 19.9489C296.4 19.9489 294.418 21.9233 294.418 25.5099C294.418 29.0682 296.4 30.8438 298.914 30.8438C300.782 30.8438 301.656 29.8423 302.053 29.0398H302.181V31.1065C302.181 32.7116 301.116 33.3722 299.653 33.3722C298.104 33.3722 297.423 32.6406 297.11 32.0014L294.795 32.5625C295.264 34.0895 296.833 35.3182 299.61 35.3182ZM299.631 28.8267C297.934 28.8267 297.039 27.5057 297.039 25.4957C297.039 23.5142 297.92 22.0582 299.631 22.0582C301.286 22.0582 302.195 23.429 302.195 25.4957C302.195 27.5767 301.272 28.8267 299.631 28.8267ZM309.937 16.4545H307.366V31H309.937V16.4545ZM317.41 31.2131C319.953 31.2131 321.7 29.9702 322.155 28.0739L319.754 27.804C319.406 28.7273 318.554 29.2102 317.446 29.2102C315.784 29.2102 314.683 28.1165 314.662 26.2486H322.261V25.4602C322.261 21.6321 319.96 19.9489 317.275 19.9489C314.15 19.9489 312.112 22.2429 312.112 25.6094C312.112 29.0327 314.122 31.2131 317.41 31.2131ZM314.669 24.5156C314.747 23.1236 315.777 21.9517 317.311 21.9517C318.788 21.9517 319.782 23.0312 319.797 24.5156H314.669Z" fill="white"/>
<circle cx="29.5" cy="23.5" r="13.5" fill="white"/>
<g clip-path="url(#clip0)">
<rect width="18.2432" height="18.6126" transform="translate(20.3784 14.3789)" fill="white"/>
<path d="M38.6213 23.8988C38.6213 23.2662 38.5701 22.6302 38.4606 22.0078H29.6826V25.5915H34.7094C34.5008 26.7473 33.8305 27.7697 32.8491 28.4194V30.7447H35.8481C37.6092 29.1239 38.6213 26.7302 38.6213 23.8988Z" fill="#4285F4"/>
<path d="M29.683 32.9917C32.193 32.9917 34.3097 32.1676 35.8519 30.7451L32.8529 28.4198C32.0186 28.9875 30.9414 29.3089 29.6864 29.3089C27.2586 29.3089 25.2 27.6709 24.4614 25.4688H21.3667V27.8658C22.9465 31.0084 26.1643 32.9917 29.683 32.9917Z" fill="#34A853"/>
<path d="M24.4577 25.4681C24.0679 24.3123 24.0679 23.0607 24.4577 21.9049V19.5078H21.3664C20.0465 22.1374 20.0465 25.2355 21.3664 27.8652L24.4577 25.4681Z" fill="#FBBC04"/>
<path d="M29.683 18.0585C31.0098 18.038 32.2921 18.5372 33.253 19.4536L35.9099 16.7967C34.2275 15.2168 31.9946 14.3483 29.683 14.3756C26.1643 14.3756 22.9465 16.359 21.3667 19.5049L24.458 21.902C25.1931 19.6964 27.2551 18.0585 29.683 18.0585Z" fill="#EA4335"/>
</g>
<defs>
<clipPath id="clip0">
<rect width="18.2432" height="18.6126" fill="white" transform="translate(20.3784 14.3789)"/>
</clipPath>
</defs>
</svg>
