<svg width="27" height="27" viewBox="0 0 27 27" fill="none" xmlns="http://www.w3.org/2000/svg">
<circle cx="13.5" cy="13.5" r="13.5" fill="white"/>
<g clip-path="url(#clip0)">
<rect width="18.2432" height="18.6126" transform="translate(4.37842 4.37891)" fill="white"/>
<path d="M22.6213 13.8988C22.6213 13.2662 22.5701 12.6302 22.4606 12.0078H13.6826V15.5915H18.7094C18.5008 16.7473 17.8305 17.7697 16.8491 18.4194V20.7447H19.8481C21.6092 19.1239 22.6213 16.7302 22.6213 13.8988Z" fill="#4285F4"/>
<path d="M13.683 22.9917C16.193 22.9917 18.3097 22.1676 19.8519 20.7451L16.8529 18.4198C16.0186 18.9875 14.9414 19.3089 13.6864 19.3089C11.2586 19.3089 9.2 17.6709 8.46138 15.4688H5.3667V17.8658C6.94653 21.0084 10.1643 22.9917 13.683 22.9917Z" fill="#34A853"/>
<path d="M8.45769 15.4681C8.06786 14.3123 8.06786 13.0607 8.45769 11.9049V9.50781H5.36642C4.04648 12.1374 4.04648 15.2355 5.36642 17.8652L8.45769 15.4681Z" fill="#FBBC04"/>
<path d="M13.683 8.05847C15.0098 8.03795 16.2921 8.53721 17.253 9.45364L19.9099 6.79666C18.2275 5.21683 15.9946 4.34827 13.683 4.37563C10.1643 4.37563 6.94652 6.35896 5.3667 9.50494L8.45795 11.902C9.19315 9.69643 11.2551 8.05847 13.683 8.05847Z" fill="#EA4335"/>
</g>
<defs>
<clipPath id="clip0">
<rect width="18.2432" height="18.6126" fill="white" transform="translate(4.37842 4.37891)"/>
</clipPath>
</defs>
</svg>
