<svg width="30" height="36" viewBox="0 0 30 36" fill="none" xmlns="http://www.w3.org/2000/svg">
<path fill-rule="evenodd" clip-rule="evenodd" d="M12.5 2.58398C12.5 1.20065 13.6167 0.0839844 15 0.0839844C16.3833 0.0839844 17.5 1.20065 17.5 2.58398V4.53398C22.7333 5.66732 26.6667 10.334 26.6667 15.9173V25.9173L30 29.2507V30.9173H0V29.2507L3.33333 25.9173V15.9173C3.33333 10.334 7.26667 5.66732 12.5 4.53398V2.58398ZM15 7.58398C19.6 7.58398 23.3333 11.3173 23.3333 15.9173V27.584H6.66667V15.9173C6.66667 11.3173 10.4 7.58398 15 7.58398ZM11.6833 32.6005C11.6833 34.4338 13.1667 35.9172 15 35.9172C16.8333 35.9172 18.3167 34.4338 18.3167 32.6005H11.6833Z" fill="#8A8A8A"/>
</svg>
