<svg width="34" height="34" viewBox="0 0 34 34" fill="none" xmlns="http://www.w3.org/2000/svg">
<path fill-rule="evenodd" clip-rule="evenodd" d="M0.333252 17.0007C0.333252 7.80065 7.79992 0.333984 16.9999 0.333984C26.1999 0.333984 33.6666 7.80065 33.6666 17.0007C33.6666 26.2007 26.1999 33.6673 16.9999 33.6673C7.79992 33.6673 0.333252 26.2007 0.333252 17.0007ZM18.6666 23.6673V27.0007H15.3333V23.6673H18.6666ZM16.9999 30.334C9.64992 30.334 3.66659 24.3506 3.66659 17.0007C3.66659 9.65065 9.64992 3.66732 16.9999 3.66732C24.3499 3.66732 30.3333 9.65065 30.3333 17.0007C30.3333 24.3506 24.3499 30.334 16.9999 30.334ZM10.3333 13.6673C10.3333 9.98398 13.3166 7.00065 16.9999 7.00065C20.6833 7.00065 23.6666 9.98398 23.6666 13.6673C23.6666 15.8055 22.3499 16.9562 21.0679 18.0765C19.8516 19.1394 18.6666 20.175 18.6666 22.0007H15.3333C15.3333 18.9652 16.9034 17.7616 18.284 16.7034C19.367 15.8733 20.3333 15.1327 20.3333 13.6673C20.3333 11.834 18.8333 10.334 16.9999 10.334C15.1666 10.334 13.6666 11.834 13.6666 13.6673H10.3333Z" fill="#2F80ED"/>
</svg>
