<svg viewbox="0 0 20 20" fill="none" xmlns="http://www.w3.org/2000/svg"><path d="M10 0a10 10 0 100 20 10 10 0 000-20zm0 2a8.19 8.19 0 011.79.21 2.61 2.61 0 01-.78 1c-.22.17-.46.31-.7.46a4.56 4.56 0 00-1.85 1.67 6.49 6.49 0 00-.62 3.3c0 1.36 0 2.16-.95 2.87-1.37 1.07-3.46.47-4.76-.07A8 8 0 0110 2zm4.89 14.32a6.786 6.786 0 00-.63-1.14c-.11-.16-.22-.32-.32-.49-.39-.68-.25-1 .38-2l.1-.17a4.77 4.77 0 00.58-2.43c-.001-.335.03-.67.09-1 .16-.73 1.71-.93 2.67-1a7.94 7.94 0 01-2.86 8.28l-.01-.05z" fill="#383838"/></svg>