<svg width="40" height="40" fill="none" xmlns="http://www.w3.org/2000/svg"><path fill-rule="evenodd" clip-rule="evenodd" d="M5 8.333H1.667C1.667 6.5 3.167 5 5 5v3.333zM1.667 15H5v-3.333H1.667V15zm0 6.667H5v-3.334H1.667v3.334zM15 35h3.333v-3.333H15V35zM5 28.333H1.667V25H5v3.333zM5 35v-3.333H1.667C1.667 33.5 3.167 35 5 35zM21.667 5H35c1.833 0 3.333 1.5 3.333 3.333V15H21.667V5zM35 28.333h3.333V25H35v3.333zm-16.667-20H15V5h3.333v3.333zM8.333 35h3.334v-3.333H8.333V35zm3.334-26.667H8.333V5h3.334v3.333zM35 35c1.833 0 3.333-1.5 3.333-3.333H35V35zm3.333-13.333H35v-3.334h3.333v3.334zM21.667 35H25v-3.333h-3.333V35zm10 0h-3.334v-3.333h3.334V35z" fill="#8A8A8A"/></svg>