<svg width="42" height="42" viewBox="0 0 42 42" fill="none" xmlns="http://www.w3.org/2000/svg">
<g clip-path="url(#clip0)">
<path d="M42 21C42 26.6093 39.8156 31.8828 35.8493 35.8493C31.8828 39.8156 26.6093 42 21 42C17.0732 42 13.3118 40.9282 10.0474 38.9253L12.455 36.5177C14.9906 37.9194 17.9035 38.7188 21 38.7188C30.7702 38.7188 38.7188 30.7702 38.7188 21C38.7188 17.9035 37.9194 14.9906 36.5176 12.4551L38.9253 10.0474C40.9282 13.3118 42 17.0732 42 21ZM2.39055 41.9296L0.0703828 39.6094L5.03557 34.6443C1.77737 30.8442 0 26.0588 0 21C0 15.3907 2.18441 10.1172 6.1507 6.1507C10.1172 2.18441 15.3907 0 21 0C26.0588 0 30.8442 1.77737 34.6443 5.03557L39.6094 0.0703828L41.9296 2.39055L2.39055 41.9296ZM7.37075 32.309L32.309 7.37075C29.2385 4.81843 25.2956 3.28125 21 3.28125C11.2298 3.28125 3.28125 11.2298 3.28125 21C3.28125 25.2956 4.81835 29.2385 7.37075 32.309Z" fill="#BDBDBD"/>
</g>
<defs>
<clipPath id="clip0">
<rect width="42" height="42" fill="white"/>
</clipPath>
</defs>
</svg>
