<svg width="129" height="105" viewBox="0 0 129 105" fill="none" xmlns="http://www.w3.org/2000/svg">
<rect x="0.88147" y="0.558594" width="112.875" height="104.035" rx="12" fill="#2F80ED" fill-opacity="0.2"/>
<path d="M123.053 74.6395H119.761V11.3019C119.761 6.6826 116.004 2.9248 111.384 2.9248H16.6514C12.0321 2.9248 8.27431 6.6826 8.27431 11.3019V74.6395H4.98289C2.23512 74.6395 0 76.8747 0 79.6222C0 87.2375 6.19548 93.4333 13.8111 93.4333H114.225C121.84 93.4333 128.036 87.2375 128.036 79.6222C128.036 76.8747 125.801 74.6395 123.053 74.6395ZM12.0254 11.3016C12.0254 8.75093 14.1007 6.6756 16.6514 6.6756H111.384C113.935 6.6756 116.01 8.75093 116.01 11.3016V74.6393H112.997C112.883 74.5028 112.765 74.3682 112.636 74.2397L107.934 69.5371C109.645 69.2635 110.957 67.7819 110.957 65.9951V15.3198C110.957 13.3395 109.346 11.7285 107.366 11.7285H20.6695C18.6892 11.7285 17.0783 13.3395 17.0783 15.3198V50.7869C17.0783 51.8227 17.9177 52.6624 18.9538 52.6624C19.9898 52.6624 20.8293 51.8227 20.8293 50.7869V15.4796H107.206V65.8356H104.232L95.7825 57.386C100.544 49.321 100.463 38.9959 95.0828 30.9419C94.5076 30.0806 93.343 29.8488 92.4815 30.4242C91.6203 30.9996 91.3885 32.1642 91.9639 33.0254C97.5297 41.3575 96.4181 52.5564 89.3206 59.6539C85.3348 63.64 80.0346 65.8353 74.3975 65.8353C68.7602 65.8353 63.4604 63.64 59.4743 59.6539C51.2458 51.4253 51.2458 38.0363 59.4743 29.8075C66.6531 22.6285 77.9347 21.5725 86.2986 27.2968C87.1538 27.882 88.3209 27.6632 88.9058 26.8085C89.4907 25.9537 89.2721 24.7866 88.4174 24.2015C78.5642 17.4576 65.2769 18.7005 56.8218 27.1553C47.1309 36.8465 47.1309 52.6154 56.8218 62.3063C58.1787 63.6632 59.6654 64.8426 61.2531 65.8356H20.8293V59.5551C20.8293 58.5193 19.9898 57.6796 18.9538 57.6796C17.9177 57.6796 17.0783 58.5193 17.0783 59.5551V65.9954C17.0783 67.9757 18.6892 69.5866 20.6695 69.5866H90.5232L95.5761 74.6395H12.0254V11.3016ZM90.1784 63.9366C90.7983 63.4252 91.3975 62.8818 91.9731 62.3061C92.55 61.7292 93.0897 61.1275 93.5991 60.5073L109.984 76.8922C110.928 77.8364 110.928 79.3729 109.984 80.3171C109.04 81.2614 107.503 81.2614 106.559 80.3171C102.471 76.2292 94.1783 67.9364 90.1784 63.9366ZM45.9378 78.3906H82.0979V80.2759C82.0979 81.3154 81.2521 82.1611 80.2126 82.1611H47.8231C46.7835 82.1611 45.9378 81.3154 45.9378 80.2759V78.3906ZM114.225 89.6822H13.8111C8.26405 89.6822 3.75105 85.1692 3.75105 79.6222C3.75105 78.943 4.3037 78.3906 4.98289 78.3906H42.1868V80.2759C42.1868 83.3837 44.7152 85.9122 47.8231 85.9122H80.2124C83.3202 85.9122 85.8487 83.3837 85.8487 80.2759V78.3906H99.3269L103.906 82.9699C106.313 85.3763 110.229 85.3768 112.636 82.9699C113.894 81.712 114.488 80.042 114.431 78.3906H123.053C123.732 78.3906 124.284 78.943 124.284 79.6222C124.285 85.1692 119.772 89.6822 114.225 89.6822Z" fill="#2F80ED"/>
<path d="M74.3976 27.7422C69.8598 27.7422 65.5936 29.5092 62.3847 32.7181C55.7614 39.3417 55.7614 50.1194 62.3847 56.7433C65.5936 59.9519 69.8598 61.7189 74.3976 61.7189C78.9354 61.7189 83.2016 59.9519 86.4102 56.7433C89.6188 53.5346 91.3858 49.2684 91.3858 44.7307C91.3858 35.3421 83.788 27.7422 74.3976 27.7422ZM83.7577 54.091C81.2578 56.5912 77.9336 57.9681 74.3976 57.9681C70.8616 57.9681 67.5374 56.5912 65.0372 54.091C59.876 48.9296 59.876 40.5318 65.0372 35.3706C67.5374 32.8704 70.8616 31.4935 74.3976 31.4935C81.7131 31.4935 87.635 37.4139 87.635 44.7309C87.6348 48.2667 86.2582 51.5908 83.7577 54.091Z" fill="#2F80ED"/>
</svg>
