<svg width="129" height="91" viewBox="0 0 129 91" fill="none" xmlns="http://www.w3.org/2000/svg">
<path d="M123.053 71.7147H119.761V8.37708C119.761 3.7578 116.004 0 111.384 0H16.6514C12.0321 0 8.27431 3.7578 8.27431 8.37708V71.7147H4.98289C2.23512 71.7147 0 73.9499 0 76.6974C0 84.3127 6.19548 90.5085 13.8111 90.5085H114.225C121.84 90.5085 128.036 84.3127 128.036 76.6974C128.036 73.9499 125.801 71.7147 123.053 71.7147ZM12.0254 8.37683C12.0254 5.82612 14.1007 3.7508 16.6514 3.7508H111.384C113.935 3.7508 116.01 5.82612 116.01 8.37683V71.7145H112.997C112.883 71.5779 112.765 71.4434 112.636 71.3149L107.934 66.6123C109.645 66.3387 110.957 64.8571 110.957 63.0703V12.395C110.957 10.4147 109.346 8.8037 107.366 8.8037H20.6695C18.6892 8.8037 17.0783 10.4147 17.0783 12.395V47.8621C17.0783 48.8979 17.9177 49.7376 18.9538 49.7376C19.9898 49.7376 20.8293 48.8979 20.8293 47.8621V12.5547H107.206V62.9108H104.232L95.7825 54.4612C100.544 46.3962 100.463 36.0711 95.0828 28.0171C94.5076 27.1558 93.343 26.924 92.4815 27.4994C91.6203 28.0748 91.3885 29.2394 91.9639 30.1006C97.5297 38.4327 96.4181 49.6316 89.3206 56.7291C85.3348 60.7152 80.0346 62.9105 74.3975 62.9105C68.7602 62.9105 63.4604 60.7152 59.4743 56.7291C51.2458 48.5005 51.2458 35.1115 59.4743 26.8827C66.6531 19.7037 77.9347 18.6477 86.2986 24.372C87.1538 24.9572 88.3209 24.7384 88.9058 23.8837C89.4907 23.0289 89.2721 21.8618 88.4174 21.2767C78.5642 14.5328 65.2769 15.7756 56.8218 24.2305C47.1309 33.9217 47.1309 49.6906 56.8218 59.3815C58.1787 60.7384 59.6654 61.9178 61.2531 62.9108H20.8293V56.6303C20.8293 55.5945 19.9898 54.7548 18.9538 54.7548C17.9177 54.7548 17.0783 55.5945 17.0783 56.6303V63.0706C17.0783 65.0509 18.6892 66.6618 20.6695 66.6618H90.5232L95.5761 71.7147H12.0254V8.37683ZM90.1784 61.0117C90.7983 60.5004 91.3975 59.957 91.9731 59.3813C92.55 58.8044 93.0897 58.2027 93.5991 57.5825L109.984 73.9674C110.928 74.9116 110.928 76.4481 109.984 77.3923C109.04 78.3366 107.503 78.3366 106.559 77.3923C102.471 73.3044 94.1783 65.0116 90.1784 61.0117ZM45.9378 75.4658H82.0979V77.3511C82.0979 78.3906 81.2521 79.2363 80.2126 79.2363H47.8231C46.7835 79.2363 45.9378 78.3906 45.9378 77.3511V75.4658ZM114.225 86.7574H13.8111C8.26405 86.7574 3.75105 82.2444 3.75105 76.6974C3.75105 76.0182 4.3037 75.4658 4.98289 75.4658H42.1868V77.3511C42.1868 80.4589 44.7152 82.9874 47.8231 82.9874H80.2124C83.3202 82.9874 85.8487 80.4589 85.8487 77.3511V75.4658H99.3269L103.906 80.0451C106.313 82.4515 110.229 82.452 112.636 80.0451C113.894 78.7872 114.488 77.1172 114.431 75.4658H123.053C123.732 75.4658 124.284 76.0182 124.284 76.6974C124.285 82.2444 119.772 86.7574 114.225 86.7574Z" fill="#8c1515"/>
<path d="M74.3976 24.8174C69.8598 24.8174 65.5936 26.5844 62.3847 29.7933C55.7614 36.4169 55.7614 47.1946 62.3847 53.8185C65.5936 57.0271 69.8598 58.7941 74.3976 58.7941C78.9354 58.7941 83.2016 57.0271 86.4102 53.8185C89.6188 50.6098 91.3858 46.3436 91.3858 41.8059C91.3858 32.4173 83.788 24.8174 74.3976 24.8174ZM83.7577 51.1662C81.2578 53.6664 77.9336 55.0433 74.3976 55.0433C70.8616 55.0433 67.5374 53.6664 65.0372 51.1662C59.876 46.0048 59.876 37.6069 65.0372 32.4458C67.5374 29.9456 70.8616 28.5687 74.3976 28.5687C81.7131 28.5687 87.635 34.4891 87.635 41.8061C87.6348 45.3419 86.2582 48.666 83.7577 51.1662Z" fill="#8c1515"/>
</svg>
