<svg width="112" height="112" viewBox="0 0 112 112" fill="none" xmlns="http://www.w3.org/2000/svg">
<path d="M110.163 75.0116L93.392 58.2379C97.4439 52.8988 99.9734 46.4987 100.622 39.7887C101.417 31.5539 99.3655 23.2339 94.8462 16.3605C94.3499 15.6061 93.3358 15.3967 92.5823 15.8931C91.828 16.3894 91.6185 17.4035 92.1149 18.1578C100.667 31.164 98.8734 48.6068 87.8494 59.6317C74.9735 72.5084 54.0245 72.5084 41.1495 59.6317C28.2736 46.755 28.2736 25.8026 41.1495 12.9259C54.0245 0.0491689 74.9743 0.0491689 87.8451 12.9216L87.9345 13.0119C88.5714 13.6521 89.6058 13.6564 90.2461 13.0196C90.8872 12.3835 90.8906 11.3482 90.2546 10.708L90.1609 10.6135C76.0105 -3.53782 52.9875 -3.53782 38.8371 10.6135C38.3926 11.0579 37.9627 11.5109 37.5463 11.9723H1.63471C0.732213 11.9723 0 12.7045 0 13.607V20.8372C0 21.7405 0.732213 22.4728 1.63471 22.4728C2.53805 22.4728 3.26942 21.7405 3.26942 20.8372V15.2426H34.924C33.675 16.9973 32.6005 18.8381 31.7006 20.7427H11.334C10.4315 20.7427 9.69927 21.4741 9.69927 22.3774C9.69927 23.2807 10.4315 24.0121 11.334 24.0121H30.3477C29.8785 25.325 29.4877 26.6591 29.1744 28.0086H11.334C10.4315 28.0086 9.69927 28.74 9.69927 29.6433C9.69927 30.5458 10.4315 31.278 11.334 31.278H28.5699C28.3869 32.6037 28.277 33.9378 28.2404 35.2737H11.334C10.4315 35.2737 9.69927 36.0059 9.69927 36.9093C9.69927 37.8118 10.4315 38.544 11.334 38.544H28.2975C28.5921 43.2931 29.8104 47.9946 31.9568 52.3513H29.2076C28.3043 52.3513 27.5729 53.0835 27.5729 53.9869V102.381C27.5729 103.284 28.3043 104.017 29.2076 104.017H42.2853C43.1886 104.017 43.92 103.284 43.92 102.381V66.1782C45.3921 67.1922 46.9221 68.0862 48.4972 68.8584V102.381C48.4972 103.284 49.2294 104.017 50.1319 104.017H63.2095C64.1129 104.017 64.8443 103.284 64.8443 102.381V72.5544C66.1188 72.5416 67.3917 72.4642 68.6594 72.3194V97.5714C68.6594 98.4747 69.3908 99.207 70.2941 99.207C71.1966 99.207 71.9288 98.4747 71.9288 97.5714V71.7933C77.096 70.7205 82.0725 68.5153 86.4573 65.1769L103.225 81.9472C104.152 82.8735 105.384 83.3843 106.694 83.3843C108.004 83.3843 109.236 82.8735 110.162 81.9472C112.074 80.0366 112.075 76.9256 110.163 75.0116V75.0116ZM40.6506 100.746H30.8423V55.6216H33.7874C35.2016 57.8667 36.8839 59.9902 38.8371 61.9441C39.4263 62.5333 40.0325 63.0961 40.6506 63.6359V100.746ZM51.7674 100.746V70.265C54.9381 71.4476 58.2416 72.1713 61.5757 72.4386V100.746H51.7674ZM107.852 79.6347C107.542 79.9438 107.131 80.1141 106.694 80.1141C106.258 80.1141 105.846 79.9438 105.538 79.6347L88.9775 63.0731C89.3785 62.7061 89.7735 62.3315 90.1609 61.9441C90.5475 61.5576 90.9238 61.1634 91.2908 60.7607L107.85 77.3232C108.488 77.9609 108.488 78.9987 107.852 79.6347V79.6347Z" fill="#8c1515"/>
<path d="M70.2943 102.985C69.3918 102.985 68.6596 103.716 68.6596 104.62V108.326H3.26942V27.9218C3.26942 27.0185 2.53806 26.2871 1.63471 26.2871C0.732214 26.2871 0 27.0185 0 27.9218V109.96C0 110.864 0.732214 111.595 1.63471 111.595H70.2943C71.1976 111.595 71.929 110.864 71.929 109.96V104.62C71.929 103.716 71.1976 102.985 70.2943 102.985V102.985Z" fill="#8c1515"/>
<path d="M7.08398 67.0654V102.381C7.08398 103.284 7.8162 104.016 8.7187 104.016H21.7972C22.6997 104.016 23.4319 103.284 23.4319 102.381V67.0654C23.4319 66.1629 22.6997 65.4307 21.7972 65.4307H8.7187C7.8162 65.4307 7.08398 66.1629 7.08398 67.0654V67.0654ZM10.3534 68.7009H20.1625V100.746H10.3534V68.7009Z" fill="#8c1515"/>
<path d="M23.5576 45.8123C24.461 45.8123 25.1924 45.0801 25.1924 44.1767C25.1924 43.2742 24.461 42.542 23.5576 42.542H11.3339C10.4314 42.542 9.69922 43.2742 9.69922 44.1767C9.69922 45.0801 10.4314 45.8123 11.3339 45.8123H23.5576Z" fill="#8c1515"/>
<path d="M64.4998 6.53516C56.5442 6.53516 49.0722 9.62578 43.4614 15.2374C37.8506 20.8491 34.76 28.3219 34.76 36.2784C34.76 44.2348 37.8506 51.7077 43.4614 57.3193C49.0731 62.931 56.5442 66.0216 64.4998 66.0216C72.4554 66.0216 79.9266 62.931 85.5382 57.3193C91.149 51.7077 94.2388 44.2348 94.2388 36.2784C94.2388 28.3219 91.149 20.8491 85.5382 15.2374C79.9266 9.62578 72.4554 6.53516 64.4998 6.53516V6.53516ZM83.2258 55.0069C78.2322 60.0013 71.5819 62.7513 64.4998 62.7513C57.4169 62.7513 50.7674 60.0013 45.7739 55.0069C40.7795 50.0125 38.0294 43.3613 38.0294 36.2784C38.0294 29.1946 40.7795 22.5434 45.7739 17.549C50.936 12.3861 57.7183 9.80373 64.4998 9.80373C71.2813 9.80373 78.0637 12.3861 83.2258 17.549C88.2193 22.5434 90.9694 29.1946 90.9694 36.2784C90.9694 43.3613 88.2193 50.0125 83.2258 55.0069V55.0069Z" fill="#8c1515"/>
</svg>
