<svg width="117" height="116" viewBox="0 0 117 116" fill="none" xmlns="http://www.w3.org/2000/svg">
<rect x="10.2002" y="6.80078" width="106.755" height="106.755" rx="12" fill="#2F80ED" fill-opacity="0.2"/>
<path d="M114.112 77.7003L96.7395 60.3254C100.937 54.7948 103.557 48.1654 104.229 41.2149C105.052 32.6849 102.927 24.0667 98.2459 16.9469C97.7317 16.1655 96.6813 15.9486 95.9008 16.4627C95.1194 16.9769 94.9025 18.0273 95.4166 18.8087C104.276 32.281 102.417 50.349 90.9982 61.7691C77.6608 75.1074 55.961 75.1074 42.6245 61.7691C29.2871 48.4308 29.2871 26.7275 42.6245 13.3892C55.961 0.0509313 77.6617 0.0509313 90.9938 13.3848L91.0864 13.4783C91.7461 14.1415 92.8176 14.1459 93.4808 13.4862C94.1449 12.8274 94.1484 11.755 93.4896 11.0918L93.3926 10.9939C78.735 -3.66463 54.8868 -3.66463 40.2291 10.9939C39.7688 11.4543 39.3234 11.9234 38.8921 12.4014H1.6933C0.758458 12.4014 0 13.1599 0 14.0947V21.5841C0 22.5198 0.758458 23.2783 1.6933 23.2783C2.62903 23.2783 3.3866 22.5198 3.3866 21.5841V15.7889H36.1758C34.882 17.6066 33.769 19.5133 32.8368 21.4862H11.7402C10.8054 21.4862 10.0469 22.2438 10.0469 23.1795C10.0469 24.1152 10.8054 24.8728 11.7402 24.8728H31.4354C30.9495 26.2327 30.5447 27.6147 30.2201 29.0126H11.7402C10.8054 29.0126 10.0469 29.7701 10.0469 30.7059C10.0469 31.6407 10.8054 32.3992 11.7402 32.3992H29.594C29.4044 33.7723 29.2906 35.1543 29.2527 36.538H11.7402C10.8054 36.538 10.0469 37.2965 10.0469 38.2322C10.0469 39.1671 10.8054 39.9255 11.7402 39.9255H29.3118C29.6169 44.8449 30.8789 49.7149 33.1023 54.2278H30.2545C29.3188 54.2278 28.5612 54.9862 28.5612 55.9219V106.051C28.5612 106.986 29.3188 107.745 30.2545 107.745H43.8009C44.7367 107.745 45.4942 106.986 45.4942 106.051V68.5503C47.0191 69.6006 48.6039 70.5267 50.2355 71.3266V106.051C50.2355 106.986 50.9939 107.745 51.9288 107.745H65.4752C66.4109 107.745 67.1685 106.986 67.1685 106.051V75.155C68.4887 75.1418 69.8072 75.0615 71.1204 74.9116V101.069C71.1204 102.004 71.878 102.763 72.8137 102.763C73.7486 102.763 74.507 102.004 74.507 101.069V74.3666C79.8594 73.2553 85.0143 70.9712 89.5562 67.5131L106.925 84.8844C107.885 85.844 109.161 86.3731 110.518 86.3731C111.875 86.3731 113.151 85.844 114.111 84.8844C116.091 82.9054 116.092 79.6828 114.112 77.7003ZM42.1076 104.357H31.9478V57.6152H34.9984C36.4633 59.9409 38.206 62.1404 40.2291 64.1644C40.8394 64.7747 41.4674 65.3577 42.1076 65.9168V104.357ZM53.623 104.357V72.7835C56.9073 74.0085 60.3291 74.7581 63.7828 75.0351V104.357H53.623ZM111.717 82.4891C111.397 82.8093 110.971 82.9856 110.519 82.9856C110.066 82.9856 109.64 82.8093 109.321 82.4891L92.1667 65.3339C92.5821 64.9538 92.9913 64.5657 93.3926 64.1644C93.793 63.764 94.1828 63.3557 94.5629 62.9386L111.716 80.0947C112.376 80.7553 112.377 81.8303 111.717 82.4891Z" fill="#2F80ED"/>
<path d="M72.8139 106.676C71.879 106.676 71.1206 107.434 71.1206 108.37V112.209H3.38661V28.9228C3.38661 27.9871 2.62903 27.2295 1.6933 27.2295C0.758459 27.2295 0 27.9871 0 28.9228V113.902C0 114.838 0.758459 115.595 1.6933 115.595H72.8139C73.7496 115.595 74.5072 114.838 74.5072 113.902V108.37C74.5072 107.434 73.7496 106.676 72.8139 106.676Z" fill="#2F80ED"/>
<path d="M7.33789 69.4697V106.051C7.33789 106.986 8.09635 107.745 9.0312 107.745H22.5785C23.5134 107.745 24.2718 106.986 24.2718 106.051V69.4697C24.2718 68.5348 23.5134 67.7764 22.5785 67.7764H9.0312C8.09635 67.7764 7.33789 68.5348 7.33789 69.4697ZM10.7245 71.1639H20.8852V104.357H10.7245V71.1639Z" fill="#2F80ED"/>
<path d="M24.4023 47.4539C25.338 47.4539 26.0956 46.6954 26.0956 45.7597C26.0956 44.8249 25.338 44.0664 24.4023 44.0664H11.7404C10.8056 44.0664 10.0471 44.8249 10.0471 45.7597C10.0471 46.6954 10.8056 47.4539 11.7404 47.4539H24.4023Z" fill="#2F80ED"/>
<path d="M66.8117 6.76953C58.5709 6.76953 50.8311 9.97094 45.0192 15.7837C39.2073 21.5965 36.0059 29.3372 36.0059 37.5789C36.0059 45.8205 39.2073 53.5612 45.0192 59.374C50.832 65.1868 58.5709 68.3882 66.8117 68.3882C75.0524 68.3882 82.7913 65.1868 88.6041 59.374C94.416 53.5612 97.6166 45.8205 97.6166 37.5789C97.6166 29.3372 94.416 21.5965 88.6041 15.7837C82.7913 9.97094 75.0524 6.76953 66.8117 6.76953ZM86.2088 56.9787C81.0363 62.1521 74.1475 65.0007 66.8117 65.0007C59.4749 65.0007 52.587 62.1521 47.4145 56.9787C42.2411 51.8053 39.3925 44.9156 39.3925 37.5789C39.3925 30.2412 42.2411 23.3516 47.4145 18.1782C52.7616 12.8302 59.7871 10.1553 66.8117 10.1553C73.8362 10.1553 80.8617 12.8302 86.2088 18.1782C91.3813 23.3516 94.23 30.2412 94.23 37.5789C94.23 44.9156 91.3813 51.8053 86.2088 56.9787Z" fill="#2F80ED"/>
</svg>
