<svg width="88" height="88" viewBox="0 0 88 88" fill="none" xmlns="http://www.w3.org/2000/svg">
<path d="M3.97152 52.2063C3.57908 50.2992 3.32792 48.3693 3.21725 46.4298C3.16937 45.5967 2.41118 44.9573 1.52269 45.0022C0.634992 45.0479 -0.0454984 45.7595 0.00237918 46.5926C0.119326 48.6691 0.387755 50.7361 0.806096 52.778C0.952084 53.4866 1.61217 53.9985 2.38135 54C2.48417 54 2.58699 53.9904 2.68824 53.9727C3.10815 53.8991 3.48018 53.6707 3.72036 53.3393C3.96131 53.0078 4.05157 52.6004 3.97152 52.2063V52.2063Z" fill="#8c1515"/>
<path d="M10.4325 67.5891C10.0129 66.9683 9.18087 66.8134 8.57495 67.2433C7.96903 67.6733 7.81787 68.5258 8.23746 69.1467C9.28577 70.6962 10.4364 72.1703 11.6828 73.5576C12.1812 74.1138 13.0256 74.1505 13.5683 73.6397C14.111 73.1284 14.1468 72.2638 13.6484 71.7077C12.4854 70.4118 11.4111 69.0359 10.4325 67.5891V67.5891Z" fill="#8c1515"/>
<path d="M1.41255 41.9978C1.45518 42.0007 1.49705 42.0007 1.53967 41.9978C2.33906 42.0007 3.00533 41.3963 3.07114 40.6102C3.23191 38.6706 3.53028 36.7443 3.9625 34.8453C4.14795 34.0297 3.62749 33.2201 2.80044 33.037C1.97414 32.854 1.15382 33.3677 0.968367 34.1832C0.503244 36.2203 0.181696 38.2868 0.00521873 40.3674C-0.0284316 40.7682 0.101683 41.1653 0.365652 41.4716C0.62962 41.7771 1.0065 41.9668 1.41255 41.9978V41.9978Z" fill="#8c1515"/>
<path d="M22.3299 78.9868C20.8762 77.8986 19.4866 76.6894 18.1701 75.3686C17.6057 74.8025 16.7701 74.8992 16.3034 75.5848C15.8374 76.2704 15.917 77.2854 16.4814 77.8515C17.8924 79.2651 19.3804 80.56 20.9364 81.7275C21.3396 82.0554 21.8581 82.09 22.2878 81.8172C22.7182 81.5443 22.9914 81.0081 22.9998 80.4185C23.0082 79.8296 22.7513 79.2816 22.3299 78.9899V78.9868Z" fill="#8c1515"/>
<path d="M4.01674 30.9054C4.19264 30.9675 4.37924 31 4.56814 31C5.22049 31 5.80401 30.6179 6.0342 30.0415C6.56266 28.7089 7.1653 27.403 7.83982 26.1304C8.21838 25.4009 7.9033 24.5197 7.13318 24.1564C6.36382 23.7931 5.4285 24.0842 5.03771 24.8079C4.31653 26.173 3.66953 27.5721 3.10055 29C2.79617 29.7649 3.20608 30.6186 4.01674 30.9054Z" fill="#8c1515"/>
<path d="M5.29523 57.0758C4.99279 56.2446 4.03013 55.8015 3.14514 56.0863C2.26015 56.3703 1.78915 57.2744 2.09158 58.1055C2.85097 60.1791 3.76075 62.2022 4.81431 64.1594C5.24813 64.9214 6.25045 65.2187 7.07182 64.8283C7.89235 64.438 8.23114 63.5036 7.83368 62.7237C6.85036 60.8985 6.00173 59.0112 5.29523 57.0758Z" fill="#8c1515"/>
<path d="M32.9748 84.0529C31.2476 83.5306 29.5564 82.8811 27.9128 82.1074C27.2132 81.8072 26.4183 82.1571 26.1168 82.8979C25.8153 83.6387 26.1168 84.5022 26.7974 84.8485C28.56 85.6791 30.373 86.379 32.2248 86.943C32.3487 86.9803 32.476 86.9993 32.6039 87C33.3008 87.0015 33.8915 86.4499 33.9868 85.7084C34.0821 84.9676 33.6527 84.2648 32.9816 84.0631L32.9748 84.0529Z" fill="#8c1515"/>
<path d="M8.59921 56.1469C8.86158 56.8499 9.59025 57.1852 10.227 56.8962C10.8638 56.6066 11.1681 55.8021 10.9058 55.0991C10.297 53.4747 9.81488 51.7952 9.46607 50.0794C9.31693 49.3367 8.65095 48.8683 7.97828 49.033C7.305 49.1969 6.8807 49.9329 7.02985 50.6755C7.41093 52.5452 7.93628 54.3753 8.59921 56.1469Z" fill="#8c1515"/>
<path d="M9.00253 33.9357C9.14154 33.9781 9.28615 34 9.43215 34C10.0567 34 10.6092 33.6031 10.7965 33.0193C11.3434 31.3063 12.0287 29.6391 12.8468 28.0335C13.2023 27.3416 12.918 26.4985 12.2125 26.1501C11.5062 25.8018 10.6456 26.0803 10.29 26.7722C9.40351 28.5119 8.66023 30.318 8.06714 32.1741C7.95188 32.5293 7.98611 32.9146 8.16145 33.2451C8.33679 33.5757 8.63997 33.8241 9.00253 33.9357Z" fill="#8c1515"/>
<path d="M8.5925 44.458V44.169C8.61339 42.3575 8.74314 40.5503 8.98113 38.7601C9.06088 38.2234 8.88429 37.6786 8.51972 37.336C8.15515 36.9926 7.65956 36.9051 7.22346 37.1073C6.788 37.3088 6.4804 37.7683 6.419 38.3087C6.16266 40.2349 6.02279 42.1795 6 44.1278V44.5285C6.00127 44.9248 6.13861 45.3034 6.38229 45.5799C6.62661 45.8563 6.95573 46.0078 7.29625 45.9997C8.01843 45.9835 8.59567 45.2968 8.5925 44.458Z" fill="#8c1515"/>
<path d="M25.3409 73.2069C23.6888 72.0466 22.1209 70.7756 20.6504 69.4039C20.016 68.8388 19.0346 68.8704 18.4396 69.4754C17.8453 70.0796 17.8546 71.036 18.4612 71.629C20.0384 73.1023 21.7199 74.4658 23.4925 75.7096C24.2019 76.207 25.191 76.0497 25.7018 75.3582C26.2126 74.6674 26.0511 73.7043 25.3409 73.2069Z" fill="#8c1515"/>
<path d="M35.0147 78.2221C33.3035 77.6753 31.6411 76.9841 30.0438 76.1562C29.3531 75.7988 28.5068 76.0757 28.1543 76.7745C27.8011 77.474 28.0747 78.3297 28.7661 78.6871C30.5033 79.5872 32.3125 80.3388 34.1732 80.9342C34.9139 81.1695 35.7019 80.7538 35.9351 80.005C36.1676 79.2562 35.7561 78.4581 35.016 78.2221H35.0147Z" fill="#8c1515"/>
<path d="M16.4743 66.7111C17.0766 66.2589 17.1761 65.4328 16.6964 64.8658C15.5735 63.5425 14.548 62.1487 13.6261 60.6947C13.3842 60.2681 12.9121 60.0013 12.3976 60C11.8839 59.9994 11.4103 60.2649 11.1671 60.6908C10.9231 61.1173 10.9477 61.635 11.2318 62.0384C12.2177 63.5951 13.3147 65.0877 14.5153 66.5052C14.9957 67.0729 15.8746 67.1659 16.477 66.7124L16.4743 66.7111Z" fill="#8c1515"/>
<path d="M44.1275 5.72698e-05C35.7265 -0.0135493 27.4992 2.39768 20.4296 6.94586L14.4663 0.472707C14.0818 0.0544836 13.4908 -0.10235 12.9498 0.0688063C12.4088 0.240679 12.0157 0.709748 11.94 1.27335L9.01265 23.273C8.95262 23.7278 9.10842 24.1847 9.43288 24.5077C9.75806 24.8306 10.2155 24.9825 10.6686 24.9187L31.1597 21.9854C31.6972 21.9074 32.1481 21.5371 32.3297 21.0244C32.5119 20.5109 32.3947 19.9387 32.0259 19.5391L26.5136 13.5565C39.297 6.12159 55.3565 7.50015 66.6913 17.0047C78.026 26.5093 82.2112 42.1067 77.1613 56.0255C72.1121 69.9443 58.9078 79.2076 44.1275 79.199H44.1097C42.954 79.199 41.7991 79.1281 40.6514 78.9877C39.8488 78.8903 39.1191 79.4639 39.0226 80.2682C38.9254 81.0724 39.4972 81.8036 40.3004 81.9002C41.5626 82.0542 42.834 82.1315 44.1054 82.1323H44.1275C60.3721 82.1452 74.8343 71.8235 80.1322 56.4359C85.4301 41.0475 80.3959 23.9863 67.5982 13.9597C54.8012 3.93308 37.063 3.15177 23.4377 12.0147C23.0768 12.251 22.8381 12.6341 22.7845 13.0624C22.7316 13.4913 22.8695 13.921 23.1618 14.2383L27.9923 19.4775L12.1701 21.7448L14.4299 4.75807L19.1139 9.85337C19.6063 10.389 20.4167 10.4814 21.0164 10.0704C35.5593 0.133975 54.8091 0.612354 68.8425 11.2591C82.8751 21.9052 88.5568 40.3421 82.9573 57.0632C77.3585 73.7843 61.7293 85.0555 44.1275 85.0656C42.2429 85.0663 40.3612 84.9374 38.4937 84.6817C37.7012 84.585 36.9772 85.1443 36.8686 85.9371C36.7592 86.7299 37.3052 87.4646 38.0942 87.5871C54.3424 89.8307 70.4834 82.814 79.9492 69.3922C89.4151 55.9711 90.6265 38.3821 83.091 23.7844C75.5554 9.18665 60.5286 0.01438 44.1275 5.72698e-05V5.72698e-05Z" fill="#8c1515"/>
<path d="M43.7518 18C42.7844 18 42 18.6122 42 19.3672V43.9773C42 44.3398 42.1848 44.6876 42.5132 44.944L60.0312 58.6163C60.7189 59.1343 61.8112 59.127 62.4869 58.5996C63.1627 58.0722 63.1721 57.2196 62.5083 56.6829L45.5036 43.4112V19.3672C45.5036 18.6122 44.7192 18 43.7518 18V18Z" fill="#8c1515"/>
</svg>
