<svg width="224" height="1158" viewBox="0 0 224 1158" fill="none" xmlns="http://www.w3.org/2000/svg">
<g opacity="0.65">
<path d="M127.556 268.414L210.66 301.269L210.66 1157.5C210.66 1157.5 155 1142 125 1126.5C77.5 1105 12.5 1072.5 12.5 1072.5L15.4609 286.968L127.556 268.414Z" fill="#2C3151" fill-opacity="0.34"/>
<path d="M15.9593 287.392L127.054 269.004L124.502 1125.73C100.909 1115.03 73.124 1101.69 51.1565 1090.99C40.0639 1085.58 30.4554 1080.85 23.6202 1077.47C20.2026 1075.77 17.4783 1074.42 15.6085 1073.49C14.6736 1073.03 13.9523 1072.67 13.4648 1072.42L13.0012 1072.19L15.9593 287.392ZM125.501 1126.2L128.054 269.149L210.16 301.609L210.16 1156.84C209.973 1156.79 209.746 1156.72 209.481 1156.65C209.158 1156.56 208.78 1156.45 208.348 1156.32C206.769 1155.87 204.479 1155.2 201.638 1154.36C195.954 1152.66 188.064 1150.24 179.236 1147.34C161.681 1141.56 140.449 1133.88 125.501 1126.2Z" stroke="#2C3151" stroke-opacity="0.25"/>
<path d="M127.367 329.875L15.8516 345.53L15.8516 309.582L127.367 291.995L210.858 318.279V351.908L127.367 329.875Z" fill="#2C3151" fill-opacity="0.34"/>
<path d="M127.43 329.634L127.382 329.621L127.332 329.628L16.1016 345.242L16.1016 309.796L127.347 292.251L210.608 318.463V351.583L127.43 329.634Z" stroke="#2C3151" stroke-opacity="0.25" stroke-width="0.5"/>
<path d="M147.465 1096.37L147.465 513.862L196.361 527.391L196.361 1096.37H147.465Z" fill="#2C3151" fill-opacity="0.34"/>
<path d="M151.463 518.212L150.83 518.037V518.694L150.83 1089.6V1090.1H151.33H193.269H193.769V1089.6L193.769 530.29V529.909L193.402 529.808L151.463 518.212ZM192.769 1089.1H151.83L151.83 519.351L192.769 530.67L192.769 1089.1ZM195.861 1095.87H147.965L147.965 514.519L195.861 527.771L195.861 1095.87Z" stroke="#2C3151" stroke-opacity="0.25"/>
<path d="M178.002 541.693L175.683 570.877L169.691 602.572" stroke="#2C3151" stroke-opacity="0.25" stroke-width="2"/>
<path d="M13.0191 490.346L5.60938 480.154L133.524 464L224.001 487.461L213.371 492.603V504.586L133.524 487.461L13.0191 502.653V490.346Z" fill="#2C3151" fill-opacity="0.34"/>
<path d="M133.582 473.564L133.536 473.554L133.49 473.56L13.1333 490.078L6.06026 480.349L133.508 464.254L223.28 487.532L213.342 492.34L133.582 473.564ZM13.2691 490.564L133.512 474.062L213.121 492.801V504.277L133.577 487.217L133.535 487.208L133.493 487.213L13.2691 502.37V490.564Z" stroke="#2C3151" stroke-opacity="0.25" stroke-width="0.5"/>
<path d="M110.742 513.09L32.8555 523.72L31.5 1081.5L47 1089.5L56 1093.5L65.5 1098L110.742 1097.14L110.742 513.09Z" fill="#2C3151" fill-opacity="0.34"/>
<path d="M37.2338 526.896L36.8024 526.954L36.8006 527.39L34.5021 1082.49L32.0007 1081.2L33.3544 524.156L110.242 513.663L110.242 1096.65L65.6078 1097.5L56.2141 1093.05L56.2031 1093.04L50.4225 1090.47L106.11 1089.72L106.604 1089.71V1089.22L106.604 518.115V517.543L106.037 517.619L37.2338 526.896ZM105.604 1088.72L48.6187 1089.5L35.5013 1082.7L37.7988 527.829L105.604 518.687L105.604 1088.72Z" stroke="#2C3151" stroke-opacity="0.25"/>
<path d="M78.4617 537.825L67.832 571.26L59.7148 602.376" stroke="#2C3151" stroke-opacity="0.25" stroke-width="2"/>
<path d="M71.1211 655.528V634.462H74.5999V655.528H71.1211Z" fill="#2C3151" fill-opacity="0.34"/>
<path d="M74.0999 655.028H71.6211V634.962H74.0999V655.028Z" stroke="#2C3151" stroke-opacity="0.25"/>
<path d="M71.3125 766.851V745.785H74.7913V766.851H71.3125Z" fill="#2C3151" fill-opacity="0.34"/>
<path d="M74.2913 766.351H71.8125V746.285H74.2913V766.351Z" stroke="#2C3151" stroke-opacity="0.25"/>
<path d="M69.3828 885.129V864.062H72.8616V885.129H69.3828Z" fill="#2C3151" fill-opacity="0.34"/>
<path d="M72.3616 884.629H69.8828V864.562H72.3616V884.629Z" stroke="#2C3151" stroke-opacity="0.25"/>
<path d="M172.008 659.972V637.746L174.714 639.099V661.131L172.008 659.972Z" fill="#2C3151" fill-opacity="0.34"/>
<path d="M174.214 660.373L172.508 659.642V638.555L174.214 639.408V660.373Z" stroke="#2C3151" stroke-opacity="0.25"/>
<path d="M172.205 769.168V746.942L174.911 748.295V770.328L172.205 769.168Z" fill="#2C3151" fill-opacity="0.34"/>
<path d="M174.411 769.569L172.705 768.838V747.751L174.411 748.604V769.569Z" stroke="#2C3151" stroke-opacity="0.25"/>
<path d="M171.816 886.288V864.062L174.522 865.415V887.448L171.816 886.288Z" fill="#2C3151" fill-opacity="0.34"/>
<path d="M174.022 886.69L172.316 885.958V864.872L174.022 865.724V886.69Z" stroke="#2C3151" stroke-opacity="0.25"/>
<path d="M12.1758 461.875L12.1758 458.396L131.228 440.036L213.56 463.421V468.06L131.228 444.095L12.1758 461.875Z" fill="#2C3151" fill-opacity="0.34"/>
<path d="M131.368 443.615L131.263 443.584L131.154 443.6L12.6758 461.295V458.825L131.196 440.547L213.06 463.799V467.394L131.368 443.615Z" stroke="#2C3151" stroke-opacity="0.25"/>
<path d="M5.99127 328.519L0 322.141L130.455 300.108L223.416 330.258L216.459 335.283V338.955H207.569L130.455 314.217L14.8815 332.577L9.47007 328.519H5.99127Z" fill="#2C3151" fill-opacity="0.34"/>
<path d="M9.62007 328.319L9.55341 328.269H9.47007H6.09943L0.501602 322.31L130.436 300.365L222.871 330.344L216.312 335.08L216.209 335.155V335.283V338.705H207.608L130.531 313.979L130.475 313.961L130.416 313.97L14.9469 332.314L9.62007 328.319Z" stroke="#2C3151" stroke-opacity="0.25" stroke-width="0.5"/>
<path d="M179 289.308V283.896L183.059 245.243H187.6L187.89 240.411H185.571V235H195.814V240.411H192.142V245.243L198.906 251.621L201.834 291.627L202.385 299.165L179 289.308Z" fill="#2C3151" fill-opacity="0.34"/>
<path d="M187.6 245.493H187.836H191.892V283.646H179.278L183.284 245.493H187.6ZM192.392 283.776V245.822L198.664 251.736L201.543 291.075L192.392 283.776ZM192.055 284.146L201.592 291.754L202.106 298.776L179.25 289.142V284.146H192.055ZM191.892 244.993H187.866L188.14 240.426L188.156 240.161H187.89H185.821V235.25H195.564V240.161H192.142H191.892V240.411V244.993Z" stroke="#2C3151" stroke-opacity="0.25" stroke-width="0.5"/>
<path d="M16 288.081L20.4451 243.243H24.9869L25.2768 238.411H22.9576V233H33.2007V238.411H29.5287V243.243L36.293 249.621L39.3853 283.829L29.5287 285.762L16 288.081Z" fill="#2C3151" fill-opacity="0.34"/>
<path d="M24.9869 243.493H25.2224H29.2787L29.2787 285.551L16.2811 287.779L20.6716 243.493H24.9869ZM29.7787 285.458L29.7787 243.822L36.0526 249.738L39.116 283.627L29.7787 285.458ZM29.2787 242.993H25.2524L25.5264 238.426L25.5423 238.161H25.2768H23.2076V233.25H32.9507V238.161H29.5287H29.2787V238.411V242.993Z" stroke="#2C3151" stroke-opacity="0.25" stroke-width="0.5"/>
<path d="M29.5 285V243.5L36 249.5L39 283.5L29.5 285Z" fill="#2C3151" fill-opacity="0.34" stroke="#2C3151" stroke-opacity="0.25" stroke-width="0.5"/>
<path d="M45 250.087L94.0898 88.9027L94.0898 83.6845V70.3491L95.0561 67.6434H98.3416V59.7194L99.6945 57.7868V41.1658H95.6359L98.3416 36.914L101.241 34.788V33.0486H103.753V28.99H101.241V27.2506H103.753L105.299 0L106.072 27.2506H109.165V28.99H106.072V33.0486H110.324V34.788L114.963 36.914L116.702 41.1658H113.996V57.7868L114.963 59.7194V67.6434L116.702 70.3491V83.6845L118.248 88.9027L167.145 250.087V266.322V285.262L127.525 269.414L45 282.556V266.322L45 250.087Z" fill="#2C3151" fill-opacity="0.34"/>
<path d="M109.415 59.7194V59.6024L109.325 59.5274L107.536 58.0368H113.842L114.713 59.7785V67.3934H109.415V59.7194ZM113.746 57.5368H107.095V41.4158H113.746V57.5368ZM99.9445 41.4158H106.595V57.5368H99.9445V41.4158ZM99.8247 58.0368H106.755L108.474 59.4694H98.8218L99.8247 58.0368ZM99.9445 40.9158H99.6945H96.0913L98.5273 37.0878L101.388 34.9896L101.491 34.9147V34.788V33.2986H103.753H104.003H105.822H106.072H110.074V34.788V34.9484L110.22 35.0153L114.769 37.1001L116.33 40.9158H113.996H113.746H106.845H99.9445ZM105.822 32.7986H104.003V28.99V28.74H103.753H101.491V27.5006H103.753H103.989L104.003 27.2648L105.216 5.88093L105.822 27.2577L105.829 27.5006H106.072H108.915V28.74H106.072H105.822V28.99V32.7986ZM109.544 67.8934H114.826L116.244 70.0991H110.489L109.544 67.8934ZM110.574 70.5991H116.452V83.4345H110.574V70.5991ZM110.574 83.9345H116.515L117.913 88.6527H110.574V83.9345ZM110.605 89.1527H118.063L166.758 249.675L127.755 235.025L110.605 89.1527ZM127.775 235.567L166.895 250.26V265.969L127.775 252.229V235.567ZM127.775 252.759L166.895 266.499V284.893L127.775 269.245V252.759ZM127.275 252.702V269.201L45.25 282.263V266.533L127.275 252.702ZM127.275 252.195L45.25 266.026L45.25 250.296L127.275 235.505V252.195ZM45.3584 249.769L94.275 89.1527L110.102 89.1527L127.249 235.001L45.3584 249.769ZM110.074 88.6527L94.3398 88.6527L94.3398 83.9345L110.074 83.9345V88.6527ZM110.074 83.4345L94.3398 83.4345V70.3924L95.2323 67.8934H98.3416H98.5916L109 67.8934L110.074 70.4004V83.4345ZM108.915 67.3934L98.5916 67.3934V59.9694H108.915V67.3934Z" stroke="#2C3151" stroke-opacity="0.25" stroke-width="0.5"/>
<mask id="path-36-inside-1_481_3288" fill="white">
<path fill-rule="evenodd" clip-rule="evenodd" d="M106.883 341.852L30.929 352.002L31.6276 361.953C32.9364 357.932 37.5806 354.565 43.4606 353.81C49.2947 353.061 54.6014 355.108 56.9127 358.617L57.0123 358.604C58.3625 354.625 62.98 351.304 68.8141 350.555C74.5964 349.813 79.8604 351.817 82.2039 355.269L82.4019 355.243C83.7988 351.312 88.385 348.045 94.1657 347.303C99.4475 346.625 104.297 348.239 106.883 351.154L106.883 341.852Z"/>
</mask>
<path fill-rule="evenodd" clip-rule="evenodd" d="M106.883 341.852L30.929 352.002L31.6276 361.953C32.9364 357.932 37.5806 354.565 43.4606 353.81C49.2947 353.061 54.6014 355.108 56.9127 358.617L57.0123 358.604C58.3625 354.625 62.98 351.304 68.8141 350.555C74.5964 349.813 79.8604 351.817 82.2039 355.269L82.4019 355.243C83.7988 351.312 88.385 348.045 94.1657 347.303C99.4475 346.625 104.297 348.239 106.883 351.154L106.883 341.852Z" fill="#2C3151" fill-opacity="0.34"/>
<path d="M30.929 352.002L30.7965 351.011L29.8657 351.135L29.9314 352.072L30.929 352.002ZM106.883 341.852L107.883 341.852L107.883 340.71L106.751 340.861L106.883 341.852ZM31.6276 361.953L30.63 362.023L32.5785 362.263L31.6276 361.953ZM56.9127 358.617L56.0776 359.167L56.4225 359.691L57.044 359.609L56.9127 358.617ZM57.0123 358.604L57.1436 359.595L57.7596 359.514L57.9593 358.925L57.0123 358.604ZM82.2039 355.269L81.3765 355.831L81.7232 356.341L82.3351 356.26L82.2039 355.269ZM82.4019 355.243L82.5331 356.234L83.1393 356.154L83.3441 355.578L82.4019 355.243ZM106.883 351.154L106.135 351.818L107.883 353.789L107.883 351.154L106.883 351.154ZM31.0614 352.993L107.015 342.843L106.751 340.861L30.7965 351.011L31.0614 352.993ZM32.6251 361.883L31.9265 351.932L29.9314 352.072L30.63 362.023L32.6251 361.883ZM32.5785 362.263C33.7302 358.724 37.9545 355.525 43.5879 354.802L43.3333 352.818C37.2066 353.604 32.1426 357.14 30.6767 361.643L32.5785 362.263ZM43.5879 354.802C49.1758 354.084 54.041 356.075 56.0776 359.167L57.7479 358.067C55.1617 354.141 49.4137 352.037 43.3333 352.818L43.5879 354.802ZM56.8811 357.613L56.7815 357.626L57.044 359.609L57.1436 359.595L56.8811 357.613ZM68.6868 349.563C62.6064 350.344 57.576 353.831 56.0654 358.283L57.9593 358.925C59.1489 355.419 63.3536 352.264 68.9414 351.547L68.6868 349.563ZM83.0312 354.707C80.4122 350.849 74.7149 348.789 68.6868 349.563L68.9414 351.547C74.4779 350.836 79.3087 352.785 81.3765 355.831L83.0312 354.707ZM82.2706 354.252L82.0726 354.278L82.3351 356.26L82.5331 356.234L82.2706 354.252ZM94.0383 346.311C88.0119 347.085 83.0208 350.515 81.4596 354.908L83.3441 355.578C84.5768 352.109 88.7581 349.005 94.293 348.295L94.0383 346.311ZM107.631 350.491C104.772 347.267 99.5583 345.603 94.0383 346.311L94.293 348.295C99.3368 347.647 103.823 349.211 106.135 351.818L107.631 350.491ZM105.883 341.852L105.883 351.154L107.883 351.154L107.883 341.852L105.883 341.852Z" fill="#2C3151" fill-opacity="0.25" mask="url(#path-36-inside-1_481_3288)"/>
<path d="M145.532 361.019C145.53 366.426 145.532 434.176 145.532 434.176L156.174 436.373V364.905C156.174 358.147 145.534 355.613 145.532 361.019Z" fill="#2C3151" fill-opacity="0.34"/>
<path d="M159.987 437.555C159.987 437.555 160.832 373.988 160.832 366.426C160.832 358.864 172.656 362.343 172.656 370.143V440.934L159.987 437.555Z" fill="#2C3151" fill-opacity="0.34"/>
<path d="M177.291 442.117C177.291 442.117 177.291 379.942 177.798 371.663C178.305 363.384 190.369 366.426 190.369 374.705V445.834L177.291 442.117Z" fill="#2C3151" fill-opacity="0.34"/>
<path d="M146.032 433.769L146.032 433.414L146.032 431.254L146.032 423.506L146.031 399.625C146.031 382.012 146.031 363.723 146.032 361.019C146.032 360.428 146.177 359.976 146.406 359.635C146.635 359.293 146.967 359.033 147.389 358.856C148.245 358.498 149.449 358.499 150.709 358.879C153.24 359.642 155.674 361.821 155.674 364.905V435.759L146.032 433.769ZM172.156 440.283L160.492 437.172L160.497 436.846L160.524 434.816C160.547 433.063 160.58 430.55 160.619 427.511C160.698 421.433 160.804 413.251 160.91 404.832C161.121 387.998 161.332 370.211 161.332 366.426C161.332 364.679 162.003 363.667 162.922 363.157C163.874 362.628 165.202 362.577 166.598 363.002C169.399 363.854 172.156 366.515 172.156 370.143V440.283ZM189.869 445.172L177.791 441.739L177.791 441.417C177.791 440.959 177.792 440.288 177.792 439.43C177.793 437.713 177.795 435.252 177.799 432.273C177.807 426.316 177.823 418.285 177.855 409.997C177.918 393.407 178.045 375.815 178.297 371.694C178.416 369.757 179.198 368.556 180.241 367.906C181.3 367.245 182.709 367.104 184.154 367.46C187.05 368.175 189.869 370.834 189.869 374.705V445.172Z" stroke="#2C3151" stroke-opacity="0.25"/>
<path d="M35.7578 370.092C35.7596 385.187 35.7578 440.034 35.7578 440.034L53.5179 437.987L53.5179 367.533C53.5179 356.615 35.7561 354.997 35.7578 370.092Z" fill="#2C3151" fill-opacity="0.34"/>
<path d="M60.996 366.51L60.996 436.964L78.4146 434.746V364.633C78.4146 351.839 60.996 352.862 60.996 366.51Z" fill="#2C3151" fill-opacity="0.34"/>
<path d="M85.5961 363.439V434.746L103.015 432.187L103.015 360.539C103.015 348.939 85.5961 349.28 85.5961 363.439Z" fill="#2C3151" fill-opacity="0.34"/>
<path d="M36.2578 439.473L36.2578 439.415L36.2579 437.648L36.2581 431.228L36.2585 410.724C36.2587 395.125 36.2587 377.64 36.2578 370.092C36.2574 366.418 37.3358 363.819 38.8992 362.128C40.4644 360.435 42.5525 359.613 44.6504 359.558C48.8637 359.446 53.0179 362.407 53.0179 367.533L53.0179 437.541L36.2578 439.473ZM77.9146 434.305L61.496 436.396L61.496 366.51C61.496 359.936 65.6614 356.494 69.7468 356.154C71.8004 355.983 73.8362 356.592 75.3559 357.979C76.87 359.36 77.9146 361.553 77.9146 364.633V434.305ZM102.515 431.755L86.0961 434.167V363.439C86.0961 356.605 90.2663 353.207 94.3517 352.827C96.4106 352.636 98.451 353.207 99.9706 354.489C101.481 355.764 102.515 357.773 102.515 360.539L102.515 431.755Z" stroke="#2C3151" stroke-opacity="0.25"/>
<path d="M193.856 369.299L193.856 361.198L168.155 353.93L142.455 346.663L142.867 355.157C152.031 348.609 157.405 359.676 157.405 359.676C157.405 359.676 160.066 356.064 167.166 357.461C174.266 358.859 176.067 364.854 176.067 364.854C176.067 364.854 178.459 360.91 185.38 361.996C192.301 363.082 193.856 369.299 193.856 369.299Z" fill="#2C3151" fill-opacity="0.34"/>
<path d="M193.356 366.889C193.149 366.529 192.904 366.146 192.615 365.757C191.3 363.984 189.073 362.069 185.458 361.502C181.888 360.942 179.443 361.675 177.877 362.585C177.122 363.024 176.579 363.499 176.218 363.877C176.189 363.814 176.159 363.748 176.126 363.679C175.833 363.068 175.366 362.241 174.67 361.369C173.272 359.621 170.949 357.696 167.263 356.971C163.615 356.253 161.065 356.816 159.411 357.592C158.587 357.978 157.993 358.414 157.602 358.758C157.572 358.784 157.543 358.81 157.515 358.835C157.348 358.549 157.12 358.18 156.833 357.765C156.169 356.805 155.178 355.583 153.881 354.567C152.582 353.551 150.957 352.727 149.037 352.602C147.314 352.489 145.401 352.943 143.323 354.248L142.988 347.333L168.019 354.412L193.356 361.576L193.356 366.889Z" stroke="#2C3151" stroke-opacity="0.25"/>
</g>
<path d="M192 284V245.5L199 252L201 291L192 284Z" fill="#2C3151" fill-opacity="0.34" stroke="#2C3151" stroke-opacity="0.25" stroke-width="0.5"/>
<path d="M126 1126L129 269L211 301V326.5L224 330.5L217.5 335V338.5H211V462.5L214 463.5V467.5L211 466.5V484L223.5 487.5L214 492V504.5L211 503.5L212 1157.5L164 1141.5L126 1126Z" fill="#2C3151" fill-opacity="0.34" stroke="#2C3151" stroke-opacity="0.25"/>
<path d="M107.5 58V41H113.5V58L114.5 59.5V68L116.5 70.5V84L167.5 249.5V284.5L127.5 269V235.5L110.5 89V70.5L109.5 68V59.5L107.5 58Z" fill="#2C3151" fill-opacity="0.34" stroke="#2C3151" stroke-opacity="0.25"/>
<path d="M133.501 1063.5L211.5 556.498L210 1157.5L125.001 1127L133.501 1063.5Z" fill="#2C3151" fill-opacity="0.34"/>
<path d="M133.995 1063.58L133.997 1063.57L210.983 563.144L209.502 1156.79L125.55 1126.67L133.995 1063.58Z" stroke="#2C3151" stroke-opacity="0.25"/>
</svg>
