<?xml version="1.0" encoding="utf-8"?>
<!-- Generator: Adobe Illustrator 22.0.0, SVG Export Plug-In . SVG Version: 6.00 Build 0)  -->
<svg version="1.1" id="Layer_1" xmlns="http://www.w3.org/2000/svg" xmlns:xlink="http://www.w3.org/1999/xlink" x="0px" y="0px"
	 viewBox="0 0 100 125" style="enable-background:new 0 0 100 125;" xml:space="preserve">
<style type="text/css">
	.st0{fill:#2AABDD;}
</style>
<g>
	<path class="st0" d="M80.3,22.2H19.7c-1.1,0-2,0.9-2,2v65.1c0,0.8,0.4,1.5,1.1,1.8l30.3,15c0.3,0.1,0.6,0.1,0.9,0.1
		s0.6-0.1,0.9-0.2l30.3-15c0.7-0.3,1.1-1,1.1-1.8v-65C82.3,23.1,81.4,22.2,80.3,22.2z M78.3,88L50,102L21.7,88V26.2h56.7L78.3,88
		L78.3,88z"/>
	<path class="st0" d="M32.9,75.9l15.8,8.5c0.3,0.2,0.6,0.2,0.9,0.2c0.1,0,0.3,0,0.4,0c0.1,0,0.2,0,0.4,0c0.3,0,0.6-0.1,0.9-0.2
		l15.8-8.5c1-0.5,1.3-1.7,0.8-2.7s-1.7-1.3-2.7-0.8L50,80.6l-15.2-8.2c-1-0.5-2.2-0.2-2.7,0.8C31.6,74.2,32,75.4,32.9,75.9z"/>
	<path class="st0" d="M32.9,64.2l15.8,8.5c0.3,0.2,0.6,0.2,0.9,0.2c0.1,0,0.3,0,0.4,0c0.1,0,0.2,0,0.4,0c0.3,0,0.6-0.1,0.9-0.2
		l15.8-8.5c1-0.5,1.3-1.7,0.8-2.7s-1.7-1.3-2.7-0.8L50,68.8l-15.2-8.2c-1-0.5-2.2-0.2-2.7,0.8C31.6,62.4,32,63.6,32.9,64.2z"/>
	<path class="st0" d="M41.7,47.4l-1.3,7.4c-0.1,0.8,0.2,1.5,0.8,2c0.3,0.3,0.8,0.4,1.2,0.4c0.3,0,0.6-0.1,0.9-0.2l6.7-3.5l6.7,3.5
		c0.7,0.4,1.5,0.3,2.1-0.2c0.6-0.4,0.9-1.2,0.8-2l-1.3-7.4l5.4-5.3c0.5-0.5,0.7-1.3,0.5-2.1c-0.2-0.7-0.9-1.3-1.6-1.4l-7.5-1.1
		l-3.3-6.8c-0.3-0.7-1-1.1-1.8-1.1s-1.5,0.4-1.8,1.1l-3.3,6.8l-7.5,1.1c-0.8,0.1-1.4,0.6-1.6,1.4c-0.2,0.7,0,1.5,0.5,2.1L41.7,47.4z
		 M46.5,41.4c0.7-0.1,1.2-0.5,1.5-1.1l2-4.1l2,4.1c0.3,0.6,0.9,1,1.5,1.1l4.5,0.7l-3.2,3.1c-0.5,0.5-0.7,1.1-0.6,1.8l0.8,4.5l-4-2.1
		c-0.6-0.3-1.3-0.3-1.9,0l-4,2.1l0.8-4.5c0.1-0.6-0.1-1.3-0.6-1.8L42,42.1L46.5,41.4z"/>
</g>
</svg>
