<svg width="18" height="18" viewBox="0 0 18 18" fill="none" xmlns="http://www.w3.org/2000/svg">
<path d="M10.3724 7.62772C9.64433 6.89995 8.65703 6.49112 7.6276 6.49112C6.59817 6.49112 5.61087 6.89995 4.8828 7.62772L2.13712 10.3725C1.40903 11.1006 1 12.0881 1 13.1178C1 14.1474 1.40903 15.1349 2.13712 15.863C2.8652 16.5911 3.85269 17.0001 4.88236 17.0001C5.91202 17.0001 6.89952 16.5911 7.6276 15.863L9 14.4906" stroke="#0F75FF" stroke-width="2" stroke-linecap="round" stroke-linejoin="round"/>
<path d="M7.62769 10.3724C8.35576 11.1002 9.34305 11.509 10.3725 11.509C11.4019 11.509 12.3892 11.1002 13.1173 10.3724L15.863 7.6276C16.591 6.89952 17.0001 5.91202 17.0001 4.88236C17.0001 3.85269 16.591 2.8652 15.863 2.13712C15.1349 1.40903 14.1474 1 13.1177 1C12.0881 1 11.1006 1.40903 10.3725 2.13712L9.00008 3.50952" stroke="#0F75FF" stroke-width="2" stroke-linecap="round" stroke-linejoin="round"/>
</svg>