<svg width="20" height="14" viewBox="0 0 20 14" fill="none" xmlns="http://www.w3.org/2000/svg">
<path fill-rule="evenodd" clip-rule="evenodd" d="M7 7C8.93 7 10.5 5.43 10.5 3.5C10.5 1.57 8.93 0 7 0C5.07 0 3.5 1.57 3.5 3.5C3.5 5.43 5.07 7 7 7ZM0 12.25C0 9.92 4.66 8.75 7 8.75C9.34 8.75 14 9.92 14 12.25V14H0V12.25ZM7 10.75C5.21 10.75 3.18 11.42 2.34 12H11.66C10.82 11.42 8.79 10.75 7 10.75ZM8.5 3.5C8.5 2.67 7.83 2 7 2C6.17 2 5.5 2.67 5.5 3.5C5.5 4.33 6.17 5 7 5C7.83 5 8.5 4.33 8.5 3.5ZM14.04 8.81C15.2 9.65 16 10.77 16 12.25V14H20V12.25C20 10.23 16.5 9.08 14.04 8.81ZM16.5 3.5C16.5 5.43 14.93 7 13 7C12.46 7 11.96 6.87 11.5 6.65C12.13 5.76 12.5 4.67 12.5 3.5C12.5 2.33 12.13 1.24 11.5 0.35C11.96 0.13 12.46 0 13 0C14.93 0 16.5 1.57 16.5 3.5Z" fill="#8A8A8A"/>
</svg>
