<svg width="82" height="82" viewBox="0 0 82 82" fill="none" xmlns="http://www.w3.org/2000/svg">
<path d="M40.9999 0C26.9055 0 15.4387 11.4668 15.4387 25.5612C15.4387 33.6729 19.2631 41.2421 25.7312 46.0618V48.1964C24.156 49.5809 23.1587 51.6085 23.1587 53.8657C23.1587 55.8532 23.932 57.6631 25.192 59.0126C23.932 60.362 23.1587 62.1713 23.1587 64.1588C23.1587 67.5446 25.399 70.4168 28.4758 71.3703C29.4655 77.3911 34.7031 82 40.9999 82C47.2966 82 52.5349 77.3911 53.5246 71.3703C56.6007 70.4162 58.8416 67.5446 58.8416 64.1582C58.8416 62.1713 58.0684 60.3614 56.8084 59.0119C58.0684 57.6625 58.8416 55.8532 58.8416 53.8657C58.8416 51.6085 57.8444 49.5809 56.2685 48.1958V46.0618C62.7367 41.2421 66.561 33.6729 66.561 25.5612C66.561 11.4668 55.0942 0 40.9999 0ZM51.293 51.1217C52.8057 51.1217 54.0369 52.353 54.0369 53.8657C54.0369 55.379 52.8057 56.6102 51.293 56.6102H30.7073C29.194 56.6102 27.9628 55.379 27.9628 53.8657C27.9628 52.353 29.194 51.1217 30.7073 51.1217H51.293ZM40.9999 77.1953C37.4864 77.1953 34.5023 74.8868 33.4832 71.7075H48.5166C47.4981 74.8874 44.5133 77.1953 40.9999 77.1953ZM51.293 66.9028H30.7073C29.194 66.9028 27.9628 65.6716 27.9628 64.1588C27.9628 62.6455 29.194 61.4149 30.7073 61.4149H51.293C52.8057 61.4149 54.0369 62.6455 54.0369 64.1588C54.0369 65.6716 52.8057 66.9028 51.293 66.9028ZM52.5299 42.8224C51.8636 43.2685 51.4638 44.0173 51.4638 44.8187V46.3214C51.4069 46.3202 51.3499 46.3171 51.293 46.3171H48.5485V36.8491L51.9981 33.3995C52.9365 32.461 52.9365 30.9402 51.9981 30.0018C51.0603 29.0634 49.5388 29.0634 48.601 30.0018L44.4476 34.1552C43.9972 34.6056 43.7438 35.2162 43.7438 35.8537V46.3171H38.2559V35.8537C38.2559 35.2169 38.0026 34.6056 37.5521 34.1552L33.3987 30.0018C32.4609 29.064 30.9401 29.064 30.0017 30.0018C29.0632 30.9402 29.0632 32.461 30.0017 33.3995L33.4513 36.8491V46.3177H30.7073C30.6498 46.3177 30.5929 46.3202 30.5359 46.3214V44.8187C30.5359 44.0173 30.1362 43.2685 29.4699 42.8224C23.693 38.9549 20.2434 32.5023 20.2434 25.5612C20.2434 14.1156 29.555 4.80469 40.9999 4.80469C52.4448 4.80469 61.7563 14.1156 61.7563 25.5612C61.7563 32.5023 58.3067 38.9549 52.5299 42.8224Z" fill="#8c1515"/>
<path d="M9.95096 25.5606C9.95096 24.2336 8.87554 23.1582 7.54862 23.1582H2.40234C1.07542 23.1582 0 24.2336 0 25.5606C0 26.8868 1.07542 27.9629 2.40234 27.9629H7.54862C8.87554 27.9629 9.95096 26.8868 9.95096 25.5606Z" fill="#8c1515"/>
<path d="M79.5984 23.1582H74.4521C73.1259 23.1582 72.0498 24.2336 72.0498 25.5606C72.0498 26.8868 73.1259 27.9629 74.4521 27.9629H79.5984C80.9253 27.9629 82.0008 26.8868 82.0008 25.5606C82.0008 24.2336 80.9253 23.1582 79.5984 23.1582Z" fill="#8c1515"/>
<path d="M10.8299 40.2069L6.373 42.78C5.22438 43.4438 4.83087 44.9127 5.49402 46.062C5.93883 46.8327 6.74649 47.2632 7.57668 47.2632C7.98395 47.2632 8.39748 47.1599 8.77535 46.941L13.2322 44.3685C14.3814 43.7047 14.775 42.2357 14.1118 41.0865C13.4487 39.9372 11.9791 39.5437 10.8299 40.2069Z" fill="#8c1515"/>
<path d="M69.9715 11.2363C70.3788 11.2363 70.7917 11.1324 71.1702 10.9141L75.6276 8.3403C76.7763 7.67715 77.1704 6.20821 76.5066 5.05897C75.8428 3.90972 74.3739 3.51621 73.2253 4.17998L68.7678 6.75312C67.6192 7.41627 67.2251 8.88583 67.8888 10.0345C68.3336 10.8052 69.1413 11.2363 69.9715 11.2363Z" fill="#8c1515"/>
<path d="M75.6272 42.7814L71.1703 40.2088C70.0211 39.5457 68.5515 39.9392 67.8884 41.0885C67.2252 42.2371 67.6194 43.7066 68.768 44.3698L73.2255 46.9423C73.6033 47.1606 74.0163 47.2645 74.4241 47.2645C75.2543 47.2645 76.062 46.8334 76.5068 46.0627C77.1706 44.9141 76.7764 43.4445 75.6272 42.7814Z" fill="#8c1515"/>
<path d="M13.2325 6.75429L8.77562 4.18178C7.62638 3.518 6.15744 3.91214 5.4943 5.06139C4.83052 6.21063 5.22466 7.67957 6.37328 8.34272L10.8301 10.9159C11.2086 11.1342 11.6215 11.2381 12.0288 11.2381C12.8596 11.2381 13.6666 10.807 14.1121 10.0363C14.7752 8.887 14.3811 7.41807 13.2325 6.75429Z" fill="#8c1515"/>
</svg>
