<svg width="112" height="112" viewBox="0 0 112 112" fill="none" xmlns="http://www.w3.org/2000/svg">
<rect width="112" height="112" rx="12" fill="#FFA414" fill-opacity="0.2"/>
<path d="M56.0006 15C41.9062 15 30.4395 26.4668 30.4395 40.5612C30.4395 48.6729 34.2638 56.2421 40.732 61.0618V63.1964C39.1567 64.5809 38.1595 66.6085 38.1595 68.8657C38.1595 70.8532 38.9327 72.6631 40.1927 74.0126C38.9327 75.362 38.1595 77.1713 38.1595 79.1588C38.1595 82.5446 40.3998 85.4168 43.4765 86.3703C44.4662 92.3911 49.7038 97 56.0006 97C62.2974 97 67.5356 92.3911 68.5253 86.3703C71.6014 85.4162 73.8424 82.5446 73.8424 79.1582C73.8424 77.1713 73.0691 75.3614 71.8091 74.0119C73.0691 72.6625 73.8424 70.8532 73.8424 68.8657C73.8424 66.6085 72.8451 64.5809 71.2692 63.1958V61.0618C77.7374 56.2421 81.5617 48.6729 81.5617 40.5612C81.5617 26.4668 70.095 15 56.0006 15ZM66.2938 66.1217C67.8065 66.1217 69.0377 67.353 69.0377 68.8657C69.0377 70.379 67.8065 71.6102 66.2938 71.6102H45.7081C44.1947 71.6102 42.9635 70.379 42.9635 68.8657C42.9635 67.353 44.1947 66.1217 45.7081 66.1217H66.2938ZM56.0006 92.1953C52.4872 92.1953 49.503 89.8868 48.4839 86.7075H63.5173C62.4988 89.8874 59.514 92.1953 56.0006 92.1953ZM66.2938 81.9028H45.7081C44.1947 81.9028 42.9635 80.6716 42.9635 79.1588C42.9635 77.6455 44.1947 76.4149 45.7081 76.4149H66.2938C67.8065 76.4149 69.0377 77.6455 69.0377 79.1588C69.0377 80.6716 67.8065 81.9028 66.2938 81.9028ZM67.5306 57.8224C66.8643 58.2685 66.4645 59.0173 66.4645 59.8187V61.3214C66.4076 61.3202 66.3507 61.3171 66.2938 61.3171H63.5492V51.8491L66.9988 48.3995C67.9372 47.461 67.9372 45.9402 66.9988 45.0018C66.061 44.0634 64.5395 44.0634 63.6018 45.0018L59.4483 49.1552C58.9979 49.6056 58.7445 50.2162 58.7445 50.8537V61.3171H53.2567V50.8537C53.2567 50.2169 53.0033 49.6056 52.5529 49.1552L48.3994 45.0018C47.4617 44.064 45.9408 44.064 45.0024 45.0018C44.064 45.9402 44.064 47.461 45.0024 48.3995L48.452 51.8491V61.3177H45.7081C45.6505 61.3177 45.5936 61.3202 45.5367 61.3214V59.8187C45.5367 59.0173 45.1369 58.2685 44.4706 57.8224C38.6937 53.9549 35.2441 47.5023 35.2441 40.5612C35.2441 29.1156 44.5557 19.8047 56.0006 19.8047C67.4455 19.8047 76.7571 29.1156 76.7571 40.5612C76.7571 47.5023 73.3075 53.9549 67.5306 57.8224Z" fill="#FEA414"/>
<path d="M24.951 40.5606C24.951 39.2336 23.8755 38.1582 22.5486 38.1582H17.4023C16.0754 38.1582 15 39.2336 15 40.5606C15 41.8868 16.0754 42.9629 17.4023 42.9629H22.5486C23.8755 42.9629 24.951 41.8868 24.951 40.5606Z" fill="#FEA414"/>
<path d="M94.5994 38.1582H89.4531C88.1268 38.1582 87.0508 39.2336 87.0508 40.5606C87.0508 41.8868 88.1268 42.9629 89.4531 42.9629H94.5994C95.9263 42.9629 97.0017 41.8868 97.0017 40.5606C97.0017 39.2336 95.9263 38.1582 94.5994 38.1582Z" fill="#FEA414"/>
<path d="M25.8299 55.2069L21.373 57.78C20.2244 58.4438 19.8309 59.9127 20.494 61.062C20.9388 61.8327 21.7465 62.2632 22.5767 62.2632C22.9839 62.2632 23.3975 62.1599 23.7753 61.941L28.2322 59.3685C29.3814 58.7047 29.775 57.2357 29.1118 56.0865C28.4487 54.9372 26.9791 54.5437 25.8299 55.2069Z" fill="#FEA414"/>
<path d="M84.9715 26.2363C85.3788 26.2363 85.7917 26.1324 86.1702 25.9141L90.6276 23.3403C91.7763 22.6772 92.1704 21.2082 91.5066 20.059C90.8428 18.9097 89.3739 18.5162 88.2253 19.18L83.7678 21.7531C82.6192 22.4163 82.2251 23.8858 82.8888 25.0345C83.3336 25.8052 84.1413 26.2363 84.9715 26.2363Z" fill="#FEA414"/>
<path d="M90.6272 57.7814L86.1703 55.2088C85.0211 54.5457 83.5515 54.9392 82.8884 56.0885C82.2252 57.2371 82.6194 58.7066 83.768 59.3698L88.2255 61.9423C88.6033 62.1606 89.0163 62.2645 89.4241 62.2645C90.2543 62.2645 91.062 61.8334 91.5068 61.0627C92.1706 59.9141 91.7764 58.4445 90.6272 57.7814Z" fill="#FEA414"/>
<path d="M28.2325 21.7543L23.7756 19.1818C22.6264 18.518 21.1574 18.9121 20.4943 20.0614C19.8305 21.2106 20.2247 22.6796 21.3733 23.3427L25.8301 25.9159C26.2086 26.1342 26.6215 26.2381 27.0288 26.2381C27.8596 26.2381 28.6666 25.807 29.1121 25.0363C29.7752 23.887 29.3811 22.4181 28.2325 21.7543Z" fill="#FEA414"/>
</svg>
