<svg width="112" height="112" viewBox="0 0 112 112" fill="none" xmlns="http://www.w3.org/2000/svg">
<rect width="112" height="112" rx="12" fill="#18DE83" fill-opacity="0.2"/>
<path d="M82.0875 77.716C79.2433 77.716 76.4967 78.52 74.1326 80.0159C70.4632 74.8729 64.6573 71.6458 58.3008 71.2811V51.1929C63.548 51.1624 75.9465 49.9231 83.3398 39.5961C84.0767 38.5668 83.8395 37.1351 82.8102 36.3983C81.781 35.6614 80.3492 35.8984 79.6123 36.9279C73.5001 45.4657 62.7562 46.5382 58.3087 46.5951C58.3554 42.7305 59.1631 34.1264 64.946 27.9491C69.3577 23.2365 75.8639 20.767 84.3108 20.5937C84.2645 22.8308 84.0576 24.9436 83.6922 26.8983C83.4598 28.1427 84.2798 29.3397 85.5243 29.5724C86.7691 29.8048 87.9658 28.9845 88.1985 27.7402C88.7417 24.8327 88.9735 21.6402 88.8875 18.251C88.8566 17.0307 87.8746 16.0488 86.6544 16.0179C75.7358 15.7394 67.2947 18.7117 61.5699 24.8484C58.5217 28.1159 56.6402 31.8644 55.4858 35.4205C54.5223 33.6559 53.3136 32.0907 51.8585 30.7331C44.8234 24.1691 34.7369 25.0446 34.311 25.0851C33.2165 25.1893 32.3499 26.0555 32.2461 27.1502C32.2056 27.5761 31.3311 37.6606 37.8948 44.6948C41.6391 48.7076 46.9546 50.8591 53.717 51.1065V71.5185C49.2677 72.2404 45.1714 74.3776 42.0171 77.6547C39.8885 76.9493 37.6674 76.5928 35.3945 76.5928C25.9643 76.5928 17.6122 82.9341 15.0841 92.013C14.8918 92.7031 15.0335 93.4437 15.4669 94.0142C15.9003 94.5846 16.5755 94.9197 17.292 94.9197H94.7079C95.9737 94.9197 96.9999 93.8936 96.9999 92.6277C96.9995 84.4054 90.3101 77.716 82.0875 77.716ZM41.2698 41.5925C37.6676 37.7514 36.9177 32.484 36.7955 29.627C39.6404 29.7414 44.8688 30.4808 48.7308 34.0843C51.7826 36.9317 53.4433 41.1077 53.6808 46.5173C48.2854 46.2807 44.1167 44.6282 41.2698 41.5925ZM20.6165 90.3358C23.3637 84.8214 29.0689 81.1768 35.3942 81.1768C37.6128 81.1768 39.7658 81.6097 41.7929 82.4638C42.7274 82.8578 43.8094 82.5904 44.4532 81.8072C47.5761 78.0083 52.1829 75.8295 57.0926 75.8295C63.1234 75.8295 68.6452 79.1331 71.5031 84.4507C71.839 85.0758 72.4453 85.5099 73.1454 85.6266C73.8461 85.7432 74.5597 85.5292 75.0801 85.047C76.9917 83.2755 79.4804 82.3 82.0875 82.3C86.9947 82.3 91.1136 85.7406 92.1593 90.3358H20.6165Z" fill="#18DE83"/>
<path d="M85.2721 30.5367C84.0896 30.0844 82.7644 30.676 82.3121 31.8583C82.244 32.0362 82.1743 32.2123 82.1031 32.3859C81.6236 33.5572 82.1844 34.8958 83.3561 35.3753C83.6404 35.4916 83.9341 35.5467 84.2237 35.5467C85.1265 35.5467 85.9825 35.0097 86.3456 34.1224C86.43 33.9162 86.5127 33.7076 86.5937 33.4965C87.0461 32.3143 86.4544 30.9891 85.2721 30.5367Z" fill="#18DE83"/>
</svg>
