<svg width="87" height="87" viewBox="0 0 87 87" fill="none" xmlns="http://www.w3.org/2000/svg">
<path fill-rule="evenodd" clip-rule="evenodd" d="M15.7333 70.8954C21.1424 76.3219 29.6109 78.6792 35.7301 72.5405C41.1356 67.118 43.4945 73.6733 50.766 73.4491C64.7776 73.0171 65.6737 60.2076 61.1839 55.9881C59.1265 54.0548 61.2004 50.5727 66.1045 52.3239C77.1685 56.2747 85.5425 45.6694 84.6528 39.754C83.9057 34.7869 79.2716 33.2693 76.91 32.069C73.9552 30.5672 74.4345 27.1523 77.2144 26.1147C86.5418 22.6331 85.3313 11.7633 79.5481 6.87764C74.6782 1.07588 63.8427 -0.138481 60.3721 9.21849C59.3378 12.0073 55.9338 12.4881 54.4367 9.5239C53.2402 7.15461 51.7274 2.50592 46.776 1.75645C40.8794 0.863919 30.3077 9.26454 34.246 20.3639C35.9917 25.2836 32.5206 27.3639 30.5934 25.3002C26.3871 20.7961 13.6182 21.6951 13.1877 35.7512C12.9641 43.0458 19.4988 45.4122 14.0935 50.8349C7.97477 56.9731 10.3242 65.4688 15.7333 70.8954V70.8954Z" fill="white"/>
<path d="M46.1825 23.6187C45.2506 23.6187 44.4949 22.8608 44.4949 21.9258V15.648C44.4949 14.713 45.2506 13.9551 46.1825 13.9551C47.1143 13.9551 47.87 14.713 47.87 15.648V21.9258C47.87 22.8608 47.1145 23.6187 46.1825 23.6187Z" fill="#432255"/>
<path d="M70.8065 42.0441H64.5487C63.6168 42.0441 62.8611 41.2862 62.8611 40.3511C62.8611 39.4161 63.6168 38.6582 64.5487 38.6582H70.8065C71.7384 38.6582 72.4941 39.4161 72.4941 40.3511C72.4941 41.2862 71.7386 42.0441 70.8065 42.0441Z" fill="#432255"/>
<path d="M27.8013 42.0582C26.8695 42.0582 26.1138 41.3003 26.1138 40.3652V34.0875C26.1138 33.1525 26.8695 32.3945 27.8013 32.3945C28.7332 32.3945 29.4889 33.1525 29.4889 34.0875V40.3652C29.4889 41.3003 28.7334 42.0582 27.8013 42.0582Z" fill="#432255"/>
<path d="M52.4262 60.4816H46.1683C45.2364 60.4816 44.4807 59.7237 44.4807 58.7886C44.4807 57.8536 45.2364 57.0957 46.1683 57.0957H52.4262C53.358 57.0957 54.1137 57.8536 54.1137 58.7886C54.1137 59.7237 53.3582 60.4816 52.4262 60.4816Z" fill="#432255"/>
<path d="M86.3209 39.502C85.5318 34.2554 81.1915 32.2201 78.5982 31.0042C78.2607 30.8459 77.9417 30.6965 77.6722 30.5595C76.9425 30.1886 76.5582 29.6673 76.5906 29.092C76.6239 28.5012 77.0881 27.9686 77.8025 27.7021C82.0834 26.1043 84.8385 22.9258 85.5607 18.7525C86.3658 14.0979 84.4327 8.86324 80.7448 5.67743C77.5689 1.97764 72.3512 0.0388663 67.711 0.846068C63.5509 1.57032 60.3825 4.33424 58.7897 8.62876C58.5239 9.34522 57.993 9.81112 57.4041 9.84447C56.8347 9.87528 56.3112 9.49166 55.9412 8.75946C55.8045 8.48892 55.6557 8.16895 55.4979 7.83036C54.2857 5.22879 52.2571 0.874679 47.0271 0.0830525C43.3228 -0.477316 38.5106 1.84153 35.3223 5.7228C31.7436 10.0791 30.7715 15.6227 32.6554 20.9322C33.3628 22.9261 32.948 24.0606 32.4967 24.3365C32.2385 24.4945 31.9881 24.3191 31.8244 24.1434C29.1516 21.2816 24.118 20.3764 19.8553 21.9909C14.7532 23.9236 11.708 28.9202 11.5002 35.6998C11.3973 39.059 12.547 41.4875 13.4708 43.4388C14.7482 46.1369 15.2767 47.2536 12.8994 49.6384C9.67509 52.8732 8.29835 56.9292 8.91854 61.3679C9.38229 64.6871 10.955 68.0016 13.392 70.8498L0.494253 83.7888C-0.164751 84.4499 -0.164751 85.5219 0.494253 86.1831C0.82384 86.5138 1.25569 86.679 1.68755 86.679C2.1194 86.679 2.55126 86.5138 2.88084 86.1831L15.7784 73.2445C18.6178 75.6895 21.9218 77.2672 25.2305 77.7324C25.9215 77.8296 26.603 77.8778 27.2736 77.8778C30.8976 77.8778 34.2015 76.4681 36.9224 73.7385C39.2997 71.3537 40.413 71.8841 43.1024 73.1653C45.0477 74.0922 47.4684 75.2451 50.817 75.1423C57.575 74.9339 62.5559 71.879 64.4825 66.7607C66.0919 62.4844 65.1896 57.4349 62.3369 54.7537C62.1619 54.5893 61.9865 54.3388 62.1443 54.0791C62.4196 53.6262 63.5508 53.2102 65.5377 53.9199C70.8309 55.8101 76.3565 54.8346 80.699 51.2444C84.568 48.0455 86.8797 43.2171 86.3209 39.502ZM78.5528 48.6311C76.5523 50.2852 72.3478 52.7572 66.6699 50.7297C62.7616 49.3341 60.2372 50.7123 59.2624 52.3165C58.2939 53.9108 58.6021 55.8831 60.0294 57.2244C61.6175 58.7169 62.6113 62.147 61.325 65.5644C59.8845 69.3917 56.1159 71.5914 50.7136 71.7578C48.177 71.8351 46.3348 70.9567 44.5505 70.1066C41.7599 68.777 38.5972 67.2701 34.5358 71.3442C29.5188 76.3773 22.8275 74.7179 18.1746 70.8407L28.4997 60.4828H37.7288C38.6606 60.4828 39.4164 59.7249 39.4164 58.7899C39.4164 57.8549 38.6606 57.0969 37.7288 57.0969H31.8748L46.8804 42.0437H56.1095C57.0414 42.0437 57.7971 41.2857 57.7971 40.3507C57.7971 39.4157 57.0414 38.6578 56.1095 38.6578H50.2556L61.0562 27.8228H68.1199C69.0518 27.8228 69.8075 27.0649 69.8075 26.1299C69.8075 25.1949 69.0518 24.4369 68.1199 24.4369H64.4313L70.3793 18.4701C71.0383 17.809 71.0383 16.737 70.3793 16.0757C69.7201 15.4146 68.6518 15.4146 67.9925 16.0757L62.0444 22.0427V18.3421C62.0444 17.4071 61.2887 16.6491 60.3568 16.6491C59.4249 16.6491 58.6692 17.4071 58.6692 18.3421V25.4286L47.8687 36.2636V30.3909C47.8687 29.4559 47.113 28.6979 46.1811 28.6979C45.2492 28.6979 44.4935 29.4559 44.4935 30.3909V39.6495L29.4881 54.7026V48.8299C29.4881 47.8949 28.7324 47.1369 27.8005 47.1369C26.8686 47.1369 26.1129 47.8949 26.1129 48.8299V58.0885L15.788 68.4462C11.9231 63.7784 10.2688 57.066 15.2858 52.0328C19.3468 47.9589 17.8447 44.7858 16.5195 41.9864C15.6721 40.1963 14.7957 38.3454 14.8735 35.8039C15.0396 30.3844 17.2323 26.6039 21.0473 25.1588C22.1373 24.7461 23.228 24.5673 24.2569 24.5673C26.4438 24.5673 28.3493 25.375 29.361 26.4585C30.6981 27.8904 32.6643 28.1995 34.2532 27.2278C35.8523 26.2501 37.226 23.7172 35.8349 19.7967C33.8137 14.1006 36.2779 9.88307 37.9269 7.87607C40.6539 4.55635 44.3914 3.10786 46.5233 3.43104C49.9651 3.95197 51.3373 6.89737 52.4402 9.26396C52.6096 9.62761 52.7698 9.97111 52.9304 10.2896C53.9141 12.2371 55.6587 13.3347 57.5942 13.2248C59.5424 13.1146 61.2124 11.8058 61.953 9.80943C63.4357 5.81185 66.2166 4.54281 68.2882 4.18204C71.7749 3.57461 75.8752 5.13179 78.2564 7.96851C78.3185 8.04249 78.3865 8.11072 78.4603 8.17302C81.288 10.5619 82.8403 14.6741 82.2348 18.1731C81.8753 20.2514 80.6101 23.0409 76.6252 24.5285C74.6352 25.2712 73.3307 26.9467 73.2207 28.9009C73.1113 30.8437 74.205 32.5927 76.1466 33.5796C76.464 33.7409 76.8063 33.9014 77.1689 34.0714C79.528 35.1775 82.4643 36.5543 82.9835 40.007C83.3054 42.1461 81.8616 45.8953 78.5528 48.6311Z" fill="#28023D"/>
</svg>
