<svg width="89" height="89" viewBox="0 0 89 89" fill="none" xmlns="http://www.w3.org/2000/svg">
<path d="M60.9033 10.0446L61.3721 10.2185L60.9033 10.0446C60.4464 11.2767 59.4905 11.95 58.536 12.0303C57.5966 12.1094 56.5514 11.622 55.883 10.2985C55.7456 10.0265 55.5996 9.71282 55.4404 9.37096C54.9406 8.29781 54.3115 6.94694 53.4166 5.73562C52.2146 4.10871 50.4918 2.66182 47.8509 2.26208C46.2482 2.01949 44.3791 2.41179 42.5622 3.27484C40.739 4.14092 38.9317 5.4977 37.443 7.23821C34.4595 10.7261 32.7359 15.785 34.7748 21.5311C35.6105 23.8864 35.1474 25.4039 34.4462 26.0946C33.7638 26.7668 32.7378 26.7931 31.9588 25.959L31.5934 26.3002L31.9588 25.959C29.6919 23.5316 25.2223 22.6218 21.2986 24.0976C17.3122 25.5971 13.9086 29.5333 13.688 36.7359C13.5935 39.8185 14.6714 42.0903 15.5589 43.9608C15.7628 44.3904 15.9566 44.7989 16.1238 45.1911C16.5781 46.2566 16.8378 47.1861 16.7055 48.1481C16.5743 49.1032 16.0438 50.1733 14.7394 51.4819C11.5622 54.6692 10.5764 58.4872 11.0953 62.2012C11.6117 65.8979 13.6135 69.4738 16.3792 72.2484L16.7333 71.8954L16.3792 72.2484C19.1448 75.0229 22.7096 77.0317 26.3958 77.55C30.0996 78.0708 33.9066 77.0812 37.0842 73.8935C38.3888 72.5848 39.4551 72.0532 40.4059 71.9216C41.3635 71.7891 42.2891 72.0492 43.3511 72.5049C43.742 72.6726 44.149 72.867 44.5772 73.0714C46.4417 73.9618 48.7074 75.0436 51.7814 74.9489C58.9636 74.7274 62.8871 71.3116 64.3813 67.314C65.8519 63.3795 64.9455 58.8974 62.5263 56.6238L62.1839 56.9881L62.5263 56.6238C61.694 55.8416 61.7199 54.8096 62.391 54.124C63.0789 53.4212 64.5898 52.9568 66.9364 53.7948C72.6661 55.8408 77.7105 54.1108 81.1875 51.1177C82.9226 49.6241 84.2749 47.8112 85.138 45.9826C85.9982 44.1603 86.3889 42.2862 86.1473 40.6796C85.749 38.0318 84.3074 36.3038 82.6852 35.0977C81.4776 34.1998 80.1308 33.5686 79.0611 33.0673C78.7203 32.9076 78.4076 32.761 78.1366 32.6233C76.8184 31.9533 76.3309 30.9045 76.41 29.9595C76.4902 28.9996 77.1627 28.041 78.3893 27.5831C83.2535 25.7675 85.3999 21.994 85.5473 18.0414C85.693 14.1375 83.8921 10.0667 80.9034 7.52342C78.3685 4.52529 74.3099 2.71775 70.4166 2.86389C66.474 3.01188 62.7127 5.16642 60.9033 10.0446Z" fill="white" stroke="white"/>
<path d="M44.9949 22.9258C44.9949 24.1355 45.973 25.1187 47.1825 25.1187C48.3921 25.1187 49.37 24.1355 49.37 22.9258V16.648C49.37 15.4383 48.3919 14.4551 47.1825 14.4551C45.973 14.4551 44.9949 15.4383 44.9949 16.648V22.9258Z" fill="#8c1515" stroke="#8c1515"/>
<path d="M65.5487 43.5441H71.8065C73.0162 43.5441 73.9941 42.5608 73.9941 41.3511C73.9941 40.1415 73.016 39.1582 71.8065 39.1582H65.5487C64.3392 39.1582 63.3611 40.1415 63.3611 41.3511C63.3611 42.5608 64.3392 43.5441 65.5487 43.5441Z" fill="#8c1515" stroke="#8c1515"/>
<path d="M26.6138 41.3652C26.6138 42.5749 27.5919 43.5582 28.8013 43.5582C30.011 43.5582 30.9889 42.5749 30.9889 41.3652V35.0875C30.9889 33.8778 30.0108 32.8945 28.8013 32.8945C27.5919 32.8945 26.6138 33.8778 26.6138 35.0875V41.3652Z" fill="#8c1515" stroke="#8c1515"/>
<path d="M47.1683 61.9816H53.4262C54.6359 61.9816 55.6137 60.9983 55.6137 59.7886C55.6137 58.579 54.6357 57.5957 53.4262 57.5957H47.1683C45.9588 57.5957 44.9807 58.579 44.9807 59.7886C44.9807 60.9983 45.9588 61.9816 47.1683 61.9816Z" fill="#8c1515" stroke="#8c1515"/>
<mask id="path-6-outside-1" maskUnits="userSpaceOnUse" x="0" y="-1" width="89" height="90" fill="black">
<rect fill="white" y="-1" width="89" height="90"/>
<path d="M87.3209 40.502C86.5318 35.2554 82.1915 33.2201 79.5982 32.0042C79.2606 31.8459 78.9417 31.6965 78.6722 31.5595C77.9425 31.1886 77.5582 30.6673 77.5906 30.092C77.6239 29.5012 78.0881 28.9686 78.8025 28.7021C83.0834 27.1043 85.8385 23.9258 86.5607 19.7525C87.3658 15.0979 85.4327 9.86324 81.7448 6.67743C78.5689 2.97764 73.3512 1.03887 68.711 1.84607C64.5509 2.57032 61.3825 5.33424 59.7897 9.62876C59.5239 10.3452 58.993 10.8111 58.404 10.8445C57.8347 10.8753 57.3112 10.4917 56.9412 9.75946C56.8045 9.48892 56.6557 9.16895 56.4979 8.83036C55.2857 6.22879 53.2571 1.87468 48.0271 1.08305C44.3228 0.522684 39.5106 2.84153 36.3223 6.7228C32.7436 11.0791 31.7715 16.6227 33.6554 21.9322C34.3628 23.9261 33.948 25.0606 33.4967 25.3365C33.2385 25.4945 32.9881 25.3191 32.8244 25.1434C30.1516 22.2816 25.118 21.3764 20.8553 22.9909C15.7532 24.9236 12.708 29.9202 12.5002 36.6998C12.3973 40.059 13.547 42.4875 14.4708 44.4388C15.7482 47.1369 16.2767 48.2536 13.8994 50.6384C10.6751 53.8732 9.29835 57.9292 9.91854 62.3679C10.3823 65.6871 11.955 69.0016 14.392 71.8498L1.49425 84.7888C0.835249 85.4499 0.835249 86.5219 1.49425 87.1831C1.82384 87.5138 2.25569 87.679 2.68755 87.679C3.1194 87.679 3.55126 87.5138 3.88084 87.1831L16.7784 74.2445C19.6178 76.6895 22.9218 78.2672 26.2305 78.7324C26.9215 78.8296 27.603 78.8778 28.2736 78.8778C31.8976 78.8778 35.2015 77.4681 37.9224 74.7385C40.2997 72.3537 41.413 72.8841 44.1024 74.1653C46.0477 75.0922 48.4684 76.2451 51.817 76.1423C58.575 75.9339 63.5559 72.879 65.4825 67.7607C67.0919 63.4844 66.1896 58.4349 63.3369 55.7537C63.1619 55.5893 62.9865 55.3388 63.1443 55.0791C63.4196 54.6262 64.5508 54.2102 66.5377 54.9199C71.8309 56.8101 77.3565 55.8346 81.6991 52.2444C85.568 49.0455 87.8797 44.2171 87.3209 40.502ZM79.5528 49.6311C77.5523 51.2852 73.3478 53.7572 67.6699 51.7297C63.7616 50.3341 61.2372 51.7123 60.2624 53.3165C59.2939 54.9108 59.6021 56.8831 61.0294 58.2244C62.6175 59.7169 63.6113 63.147 62.325 66.5644C60.8845 70.3917 57.1159 72.5914 51.7136 72.7578C49.177 72.8351 47.3348 71.9567 45.5505 71.1066C42.7599 69.777 39.5972 68.2701 35.5358 72.3442C30.5188 77.3773 23.8275 75.7179 19.1746 71.8407L29.4997 61.4828H38.7288C39.6606 61.4828 40.4164 60.7249 40.4164 59.7899C40.4164 58.8549 39.6606 58.0969 38.7288 58.0969H32.8748L47.8804 43.0437H57.1095C58.0414 43.0437 58.7971 42.2857 58.7971 41.3507C58.7971 40.4157 58.0414 39.6578 57.1095 39.6578H51.2556L62.0562 28.8228H69.1199C70.0518 28.8228 70.8075 28.0649 70.8075 27.1299C70.8075 26.1949 70.0518 25.4369 69.1199 25.4369H65.4313L71.3793 19.4701C72.0383 18.809 72.0383 17.737 71.3793 17.0757C70.7201 16.4146 69.6518 16.4146 68.9925 17.0757L63.0444 23.0427V19.3421C63.0444 18.4071 62.2887 17.6491 61.3568 17.6491C60.4249 17.6491 59.6692 18.4071 59.6692 19.3421V26.4286L48.8687 37.2636V31.3909C48.8687 30.4559 48.113 29.6979 47.1811 29.6979C46.2492 29.6979 45.4935 30.4559 45.4935 31.3909V40.6495L30.4881 55.7026V49.8299C30.4881 48.8949 29.7324 48.1369 28.8005 48.1369C27.8686 48.1369 27.1129 48.8949 27.1129 49.8299V59.0885L16.788 69.4462C12.9231 64.7784 11.2688 58.066 16.2858 53.0328C20.3468 48.9589 18.8447 45.7858 17.5195 42.9865C16.6721 41.1963 15.7957 39.3454 15.8735 36.8039C16.0396 31.3844 18.2323 27.6039 22.0473 26.1588C23.1373 25.7461 24.228 25.5673 25.2569 25.5673C27.4438 25.5673 29.3493 26.375 30.361 27.4585C31.6981 28.8904 33.6643 29.1995 35.2532 28.2278C36.8523 27.2501 38.226 24.7172 36.8349 20.7967C34.8137 15.1006 37.2779 10.8831 38.9269 8.87607C41.6539 5.55635 45.3914 4.10786 47.5233 4.43104C50.9651 4.95197 52.3373 7.89737 53.4402 10.264C53.6096 10.6276 53.7698 10.9711 53.9304 11.2896C54.9141 13.2371 56.6587 14.3347 58.5942 14.2248C60.5424 14.1146 62.2124 12.8058 62.9529 10.8094C64.4357 6.81185 67.2166 5.54281 69.2882 5.18204C72.7749 4.57461 76.8752 6.13179 79.2564 8.96851C79.3185 9.04249 79.3865 9.11072 79.4603 9.17302C82.288 11.5619 83.8403 15.6741 83.2348 19.1731C82.8753 21.2514 81.6101 24.0409 77.6252 25.5285C75.6352 26.2712 74.3307 27.9467 74.2207 29.9009C74.1113 31.8437 75.205 33.5927 77.1466 34.5796C77.464 34.7409 77.8063 34.9014 78.1689 35.0714C80.528 36.1775 83.4643 37.5543 83.9835 41.007C84.3054 43.1461 82.8616 46.8953 79.5528 49.6311Z"/>
</mask>
<path d="M87.3209 40.502C86.5318 35.2554 82.1915 33.2201 79.5982 32.0042C79.2606 31.8459 78.9417 31.6965 78.6722 31.5595C77.9425 31.1886 77.5582 30.6673 77.5906 30.092C77.6239 29.5012 78.0881 28.9686 78.8025 28.7021C83.0834 27.1043 85.8385 23.9258 86.5607 19.7525C87.3658 15.0979 85.4327 9.86324 81.7448 6.67743C78.5689 2.97764 73.3512 1.03887 68.711 1.84607C64.5509 2.57032 61.3825 5.33424 59.7897 9.62876C59.5239 10.3452 58.993 10.8111 58.404 10.8445C57.8347 10.8753 57.3112 10.4917 56.9412 9.75946C56.8045 9.48892 56.6557 9.16895 56.4979 8.83036C55.2857 6.22879 53.2571 1.87468 48.0271 1.08305C44.3228 0.522684 39.5106 2.84153 36.3223 6.7228C32.7436 11.0791 31.7715 16.6227 33.6554 21.9322C34.3628 23.9261 33.948 25.0606 33.4967 25.3365C33.2385 25.4945 32.9881 25.3191 32.8244 25.1434C30.1516 22.2816 25.118 21.3764 20.8553 22.9909C15.7532 24.9236 12.708 29.9202 12.5002 36.6998C12.3973 40.059 13.547 42.4875 14.4708 44.4388C15.7482 47.1369 16.2767 48.2536 13.8994 50.6384C10.6751 53.8732 9.29835 57.9292 9.91854 62.3679C10.3823 65.6871 11.955 69.0016 14.392 71.8498L1.49425 84.7888C0.835249 85.4499 0.835249 86.5219 1.49425 87.1831C1.82384 87.5138 2.25569 87.679 2.68755 87.679C3.1194 87.679 3.55126 87.5138 3.88084 87.1831L16.7784 74.2445C19.6178 76.6895 22.9218 78.2672 26.2305 78.7324C26.9215 78.8296 27.603 78.8778 28.2736 78.8778C31.8976 78.8778 35.2015 77.4681 37.9224 74.7385C40.2997 72.3537 41.413 72.8841 44.1024 74.1653C46.0477 75.0922 48.4684 76.2451 51.817 76.1423C58.575 75.9339 63.5559 72.879 65.4825 67.7607C67.0919 63.4844 66.1896 58.4349 63.3369 55.7537C63.1619 55.5893 62.9865 55.3388 63.1443 55.0791C63.4196 54.6262 64.5508 54.2102 66.5377 54.9199C71.8309 56.8101 77.3565 55.8346 81.6991 52.2444C85.568 49.0455 87.8797 44.2171 87.3209 40.502ZM79.5528 49.6311C77.5523 51.2852 73.3478 53.7572 67.6699 51.7297C63.7616 50.3341 61.2372 51.7123 60.2624 53.3165C59.2939 54.9108 59.6021 56.8831 61.0294 58.2244C62.6175 59.7169 63.6113 63.147 62.325 66.5644C60.8845 70.3917 57.1159 72.5914 51.7136 72.7578C49.177 72.8351 47.3348 71.9567 45.5505 71.1066C42.7599 69.777 39.5972 68.2701 35.5358 72.3442C30.5188 77.3773 23.8275 75.7179 19.1746 71.8407L29.4997 61.4828H38.7288C39.6606 61.4828 40.4164 60.7249 40.4164 59.7899C40.4164 58.8549 39.6606 58.0969 38.7288 58.0969H32.8748L47.8804 43.0437H57.1095C58.0414 43.0437 58.7971 42.2857 58.7971 41.3507C58.7971 40.4157 58.0414 39.6578 57.1095 39.6578H51.2556L62.0562 28.8228H69.1199C70.0518 28.8228 70.8075 28.0649 70.8075 27.1299C70.8075 26.1949 70.0518 25.4369 69.1199 25.4369H65.4313L71.3793 19.4701C72.0383 18.809 72.0383 17.737 71.3793 17.0757C70.7201 16.4146 69.6518 16.4146 68.9925 17.0757L63.0444 23.0427V19.3421C63.0444 18.4071 62.2887 17.6491 61.3568 17.6491C60.4249 17.6491 59.6692 18.4071 59.6692 19.3421V26.4286L48.8687 37.2636V31.3909C48.8687 30.4559 48.113 29.6979 47.1811 29.6979C46.2492 29.6979 45.4935 30.4559 45.4935 31.3909V40.6495L30.4881 55.7026V49.8299C30.4881 48.8949 29.7324 48.1369 28.8005 48.1369C27.8686 48.1369 27.1129 48.8949 27.1129 49.8299V59.0885L16.788 69.4462C12.9231 64.7784 11.2688 58.066 16.2858 53.0328C20.3468 48.9589 18.8447 45.7858 17.5195 42.9865C16.6721 41.1963 15.7957 39.3454 15.8735 36.8039C16.0396 31.3844 18.2323 27.6039 22.0473 26.1588C23.1373 25.7461 24.228 25.5673 25.2569 25.5673C27.4438 25.5673 29.3493 26.375 30.361 27.4585C31.6981 28.8904 33.6643 29.1995 35.2532 28.2278C36.8523 27.2501 38.226 24.7172 36.8349 20.7967C34.8137 15.1006 37.2779 10.8831 38.9269 8.87607C41.6539 5.55635 45.3914 4.10786 47.5233 4.43104C50.9651 4.95197 52.3373 7.89737 53.4402 10.264C53.6096 10.6276 53.7698 10.9711 53.9304 11.2896C54.9141 13.2371 56.6587 14.3347 58.5942 14.2248C60.5424 14.1146 62.2124 12.8058 62.9529 10.8094C64.4357 6.81185 67.2166 5.54281 69.2882 5.18204C72.7749 4.57461 76.8752 6.13179 79.2564 8.96851C79.3185 9.04249 79.3865 9.11072 79.4603 9.17302C82.288 11.5619 83.8403 15.6741 83.2348 19.1731C82.8753 21.2514 81.6101 24.0409 77.6252 25.5285C75.6352 26.2712 74.3307 27.9467 74.2207 29.9009C74.1113 31.8437 75.205 33.5927 77.1466 34.5796C77.464 34.7409 77.8063 34.9014 78.1689 35.0714C80.528 36.1775 83.4643 37.5543 83.9835 41.007C84.3054 43.1461 82.8616 46.8953 79.5528 49.6311Z" fill="#8c1515"/>
<path d="M87.3209 40.502C86.5318 35.2554 82.1915 33.2201 79.5982 32.0042C79.2606 31.8459 78.9417 31.6965 78.6722 31.5595C77.9425 31.1886 77.5582 30.6673 77.5906 30.092C77.6239 29.5012 78.0881 28.9686 78.8025 28.7021C83.0834 27.1043 85.8385 23.9258 86.5607 19.7525C87.3658 15.0979 85.4327 9.86324 81.7448 6.67743C78.5689 2.97764 73.3512 1.03887 68.711 1.84607C64.5509 2.57032 61.3825 5.33424 59.7897 9.62876C59.5239 10.3452 58.993 10.8111 58.404 10.8445C57.8347 10.8753 57.3112 10.4917 56.9412 9.75946C56.8045 9.48892 56.6557 9.16895 56.4979 8.83036C55.2857 6.22879 53.2571 1.87468 48.0271 1.08305C44.3228 0.522684 39.5106 2.84153 36.3223 6.7228C32.7436 11.0791 31.7715 16.6227 33.6554 21.9322C34.3628 23.9261 33.948 25.0606 33.4967 25.3365C33.2385 25.4945 32.9881 25.3191 32.8244 25.1434C30.1516 22.2816 25.118 21.3764 20.8553 22.9909C15.7532 24.9236 12.708 29.9202 12.5002 36.6998C12.3973 40.059 13.547 42.4875 14.4708 44.4388C15.7482 47.1369 16.2767 48.2536 13.8994 50.6384C10.6751 53.8732 9.29835 57.9292 9.91854 62.3679C10.3823 65.6871 11.955 69.0016 14.392 71.8498L1.49425 84.7888C0.835249 85.4499 0.835249 86.5219 1.49425 87.1831C1.82384 87.5138 2.25569 87.679 2.68755 87.679C3.1194 87.679 3.55126 87.5138 3.88084 87.1831L16.7784 74.2445C19.6178 76.6895 22.9218 78.2672 26.2305 78.7324C26.9215 78.8296 27.603 78.8778 28.2736 78.8778C31.8976 78.8778 35.2015 77.4681 37.9224 74.7385C40.2997 72.3537 41.413 72.8841 44.1024 74.1653C46.0477 75.0922 48.4684 76.2451 51.817 76.1423C58.575 75.9339 63.5559 72.879 65.4825 67.7607C67.0919 63.4844 66.1896 58.4349 63.3369 55.7537C63.1619 55.5893 62.9865 55.3388 63.1443 55.0791C63.4196 54.6262 64.5508 54.2102 66.5377 54.9199C71.8309 56.8101 77.3565 55.8346 81.6991 52.2444C85.568 49.0455 87.8797 44.2171 87.3209 40.502ZM79.5528 49.6311C77.5523 51.2852 73.3478 53.7572 67.6699 51.7297C63.7616 50.3341 61.2372 51.7123 60.2624 53.3165C59.2939 54.9108 59.6021 56.8831 61.0294 58.2244C62.6175 59.7169 63.6113 63.147 62.325 66.5644C60.8845 70.3917 57.1159 72.5914 51.7136 72.7578C49.177 72.8351 47.3348 71.9567 45.5505 71.1066C42.7599 69.777 39.5972 68.2701 35.5358 72.3442C30.5188 77.3773 23.8275 75.7179 19.1746 71.8407L29.4997 61.4828H38.7288C39.6606 61.4828 40.4164 60.7249 40.4164 59.7899C40.4164 58.8549 39.6606 58.0969 38.7288 58.0969H32.8748L47.8804 43.0437H57.1095C58.0414 43.0437 58.7971 42.2857 58.7971 41.3507C58.7971 40.4157 58.0414 39.6578 57.1095 39.6578H51.2556L62.0562 28.8228H69.1199C70.0518 28.8228 70.8075 28.0649 70.8075 27.1299C70.8075 26.1949 70.0518 25.4369 69.1199 25.4369H65.4313L71.3793 19.4701C72.0383 18.809 72.0383 17.737 71.3793 17.0757C70.7201 16.4146 69.6518 16.4146 68.9925 17.0757L63.0444 23.0427V19.3421C63.0444 18.4071 62.2887 17.6491 61.3568 17.6491C60.4249 17.6491 59.6692 18.4071 59.6692 19.3421V26.4286L48.8687 37.2636V31.3909C48.8687 30.4559 48.113 29.6979 47.1811 29.6979C46.2492 29.6979 45.4935 30.4559 45.4935 31.3909V40.6495L30.4881 55.7026V49.8299C30.4881 48.8949 29.7324 48.1369 28.8005 48.1369C27.8686 48.1369 27.1129 48.8949 27.1129 49.8299V59.0885L16.788 69.4462C12.9231 64.7784 11.2688 58.066 16.2858 53.0328C20.3468 48.9589 18.8447 45.7858 17.5195 42.9865C16.6721 41.1963 15.7957 39.3454 15.8735 36.8039C16.0396 31.3844 18.2323 27.6039 22.0473 26.1588C23.1373 25.7461 24.228 25.5673 25.2569 25.5673C27.4438 25.5673 29.3493 26.375 30.361 27.4585C31.6981 28.8904 33.6643 29.1995 35.2532 28.2278C36.8523 27.2501 38.226 24.7172 36.8349 20.7967C34.8137 15.1006 37.2779 10.8831 38.9269 8.87607C41.6539 5.55635 45.3914 4.10786 47.5233 4.43104C50.9651 4.95197 52.3373 7.89737 53.4402 10.264C53.6096 10.6276 53.7698 10.9711 53.9304 11.2896C54.9141 13.2371 56.6587 14.3347 58.5942 14.2248C60.5424 14.1146 62.2124 12.8058 62.9529 10.8094C64.4357 6.81185 67.2166 5.54281 69.2882 5.18204C72.7749 4.57461 76.8752 6.13179 79.2564 8.96851C79.3185 9.04249 79.3865 9.11072 79.4603 9.17302C82.288 11.5619 83.8403 15.6741 83.2348 19.1731C82.8753 21.2514 81.6101 24.0409 77.6252 25.5285C75.6352 26.2712 74.3307 27.9467 74.2207 29.9009C74.1113 31.8437 75.205 33.5927 77.1466 34.5796C77.464 34.7409 77.8063 34.9014 78.1689 35.0714C80.528 36.1775 83.4643 37.5543 83.9835 41.007C84.3054 43.1461 82.8616 46.8953 79.5528 49.6311Z" stroke="white" stroke-width="2" mask="url(#path-6-outside-1)"/>
<mask id="path-7-outside-2" maskUnits="userSpaceOnUse" x="0" y="-1" width="89" height="90" fill="black">
<rect fill="white" y="-1" width="89" height="90"/>
<path d="M87.3209 40.502C86.5318 35.2554 82.1915 33.2201 79.5982 32.0042C79.2606 31.8459 78.9417 31.6965 78.6722 31.5595C77.9425 31.1886 77.5582 30.6673 77.5906 30.092C77.6239 29.5012 78.0881 28.9686 78.8025 28.7021C83.0834 27.1043 85.8385 23.9258 86.5607 19.7525C87.3658 15.0979 85.4327 9.86324 81.7448 6.67743C78.5689 2.97764 73.3512 1.03887 68.711 1.84607C64.5509 2.57032 61.3825 5.33424 59.7897 9.62876C59.5239 10.3452 58.993 10.8111 58.404 10.8445C57.8347 10.8753 57.3112 10.4917 56.9412 9.75946C56.8045 9.48892 56.6557 9.16895 56.4979 8.83036C55.2857 6.22879 53.2571 1.87468 48.0271 1.08305C44.3228 0.522684 39.5106 2.84153 36.3223 6.7228C32.7436 11.0791 31.7715 16.6227 33.6554 21.9322C34.3628 23.9261 33.948 25.0606 33.4967 25.3365C33.2385 25.4945 32.9881 25.3191 32.8244 25.1434C30.1516 22.2816 25.118 21.3764 20.8553 22.9909C15.7532 24.9236 12.708 29.9202 12.5002 36.6998C12.3973 40.059 13.547 42.4875 14.4708 44.4388C15.7482 47.1369 16.2767 48.2536 13.8994 50.6384C10.6751 53.8732 9.29835 57.9292 9.91854 62.3679C10.3823 65.6871 11.955 69.0016 14.392 71.8498L1.49425 84.7888C0.835249 85.4499 0.835249 86.5219 1.49425 87.1831C1.82384 87.5138 2.25569 87.679 2.68755 87.679C3.1194 87.679 3.55126 87.5138 3.88084 87.1831L16.7784 74.2445C19.6178 76.6895 22.9218 78.2672 26.2305 78.7324C26.9215 78.8296 27.603 78.8778 28.2736 78.8778C31.8976 78.8778 35.2015 77.4681 37.9224 74.7385C40.2997 72.3537 41.413 72.8841 44.1024 74.1653C46.0477 75.0922 48.4684 76.2451 51.817 76.1423C58.575 75.9339 63.5559 72.879 65.4825 67.7607C67.0919 63.4844 66.1896 58.4349 63.3369 55.7537C63.1619 55.5893 62.9865 55.3388 63.1443 55.0791C63.4196 54.6262 64.5508 54.2102 66.5377 54.9199C71.8309 56.8101 77.3565 55.8346 81.6991 52.2444C85.568 49.0455 87.8797 44.2171 87.3209 40.502ZM79.5528 49.6311C77.5523 51.2852 73.3478 53.7572 67.6699 51.7297C63.7616 50.3341 61.2372 51.7123 60.2624 53.3165C59.2939 54.9108 59.6021 56.8831 61.0294 58.2244C62.6175 59.7169 63.6113 63.147 62.325 66.5644C60.8845 70.3917 57.1159 72.5914 51.7136 72.7578C49.177 72.8351 47.3348 71.9567 45.5505 71.1066C42.7599 69.777 39.5972 68.2701 35.5358 72.3442C30.5188 77.3773 23.8275 75.7179 19.1746 71.8407L29.4997 61.4828H38.7288C39.6606 61.4828 40.4164 60.7249 40.4164 59.7899C40.4164 58.8549 39.6606 58.0969 38.7288 58.0969H32.8748L47.8804 43.0437H57.1095C58.0414 43.0437 58.7971 42.2857 58.7971 41.3507C58.7971 40.4157 58.0414 39.6578 57.1095 39.6578H51.2556L62.0562 28.8228H69.1199C70.0518 28.8228 70.8075 28.0649 70.8075 27.1299C70.8075 26.1949 70.0518 25.4369 69.1199 25.4369H65.4313L71.3793 19.4701C72.0383 18.809 72.0383 17.737 71.3793 17.0757C70.7201 16.4146 69.6518 16.4146 68.9925 17.0757L63.0444 23.0427V19.3421C63.0444 18.4071 62.2887 17.6491 61.3568 17.6491C60.4249 17.6491 59.6692 18.4071 59.6692 19.3421V26.4286L48.8687 37.2636V31.3909C48.8687 30.4559 48.113 29.6979 47.1811 29.6979C46.2492 29.6979 45.4935 30.4559 45.4935 31.3909V40.6495L30.4881 55.7026V49.8299C30.4881 48.8949 29.7324 48.1369 28.8005 48.1369C27.8686 48.1369 27.1129 48.8949 27.1129 49.8299V59.0885L16.788 69.4462C12.9231 64.7784 11.2688 58.066 16.2858 53.0328C20.3468 48.9589 18.8447 45.7858 17.5195 42.9865C16.6721 41.1963 15.7957 39.3454 15.8735 36.8039C16.0396 31.3844 18.2323 27.6039 22.0473 26.1588C23.1373 25.7461 24.228 25.5673 25.2569 25.5673C27.4438 25.5673 29.3493 26.375 30.361 27.4585C31.6981 28.8904 33.6643 29.1995 35.2532 28.2278C36.8523 27.2501 38.226 24.7172 36.8349 20.7967C34.8137 15.1006 37.2779 10.8831 38.9269 8.87607C41.6539 5.55635 45.3914 4.10786 47.5233 4.43104C50.9651 4.95197 52.3373 7.89737 53.4402 10.264C53.6096 10.6276 53.7698 10.9711 53.9304 11.2896C54.9141 13.2371 56.6587 14.3347 58.5942 14.2248C60.5424 14.1146 62.2124 12.8058 62.9529 10.8094C64.4357 6.81185 67.2166 5.54281 69.2882 5.18204C72.7749 4.57461 76.8752 6.13179 79.2564 8.96851C79.3185 9.04249 79.3865 9.11072 79.4603 9.17302C82.288 11.5619 83.8403 15.6741 83.2348 19.1731C82.8753 21.2514 81.6101 24.0409 77.6252 25.5285C75.6352 26.2712 74.3307 27.9467 74.2207 29.9009C74.1113 31.8437 75.205 33.5927 77.1466 34.5796C77.464 34.7409 77.8063 34.9014 78.1689 35.0714C80.528 36.1775 83.4643 37.5543 83.9835 41.007C84.3054 43.1461 82.8616 46.8953 79.5528 49.6311Z"/>
</mask>
<path d="M87.3209 40.502C86.5318 35.2554 82.1915 33.2201 79.5982 32.0042C79.2606 31.8459 78.9417 31.6965 78.6722 31.5595C77.9425 31.1886 77.5582 30.6673 77.5906 30.092C77.6239 29.5012 78.0881 28.9686 78.8025 28.7021C83.0834 27.1043 85.8385 23.9258 86.5607 19.7525C87.3658 15.0979 85.4327 9.86324 81.7448 6.67743C78.5689 2.97764 73.3512 1.03887 68.711 1.84607C64.5509 2.57032 61.3825 5.33424 59.7897 9.62876C59.5239 10.3452 58.993 10.8111 58.404 10.8445C57.8347 10.8753 57.3112 10.4917 56.9412 9.75946C56.8045 9.48892 56.6557 9.16895 56.4979 8.83036C55.2857 6.22879 53.2571 1.87468 48.0271 1.08305C44.3228 0.522684 39.5106 2.84153 36.3223 6.7228C32.7436 11.0791 31.7715 16.6227 33.6554 21.9322C34.3628 23.9261 33.948 25.0606 33.4967 25.3365C33.2385 25.4945 32.9881 25.3191 32.8244 25.1434C30.1516 22.2816 25.118 21.3764 20.8553 22.9909C15.7532 24.9236 12.708 29.9202 12.5002 36.6998C12.3973 40.059 13.547 42.4875 14.4708 44.4388C15.7482 47.1369 16.2767 48.2536 13.8994 50.6384C10.6751 53.8732 9.29835 57.9292 9.91854 62.3679C10.3823 65.6871 11.955 69.0016 14.392 71.8498L1.49425 84.7888C0.835249 85.4499 0.835249 86.5219 1.49425 87.1831C1.82384 87.5138 2.25569 87.679 2.68755 87.679C3.1194 87.679 3.55126 87.5138 3.88084 87.1831L16.7784 74.2445C19.6178 76.6895 22.9218 78.2672 26.2305 78.7324C26.9215 78.8296 27.603 78.8778 28.2736 78.8778C31.8976 78.8778 35.2015 77.4681 37.9224 74.7385C40.2997 72.3537 41.413 72.8841 44.1024 74.1653C46.0477 75.0922 48.4684 76.2451 51.817 76.1423C58.575 75.9339 63.5559 72.879 65.4825 67.7607C67.0919 63.4844 66.1896 58.4349 63.3369 55.7537C63.1619 55.5893 62.9865 55.3388 63.1443 55.0791C63.4196 54.6262 64.5508 54.2102 66.5377 54.9199C71.8309 56.8101 77.3565 55.8346 81.6991 52.2444C85.568 49.0455 87.8797 44.2171 87.3209 40.502ZM79.5528 49.6311C77.5523 51.2852 73.3478 53.7572 67.6699 51.7297C63.7616 50.3341 61.2372 51.7123 60.2624 53.3165C59.2939 54.9108 59.6021 56.8831 61.0294 58.2244C62.6175 59.7169 63.6113 63.147 62.325 66.5644C60.8845 70.3917 57.1159 72.5914 51.7136 72.7578C49.177 72.8351 47.3348 71.9567 45.5505 71.1066C42.7599 69.777 39.5972 68.2701 35.5358 72.3442C30.5188 77.3773 23.8275 75.7179 19.1746 71.8407L29.4997 61.4828H38.7288C39.6606 61.4828 40.4164 60.7249 40.4164 59.7899C40.4164 58.8549 39.6606 58.0969 38.7288 58.0969H32.8748L47.8804 43.0437H57.1095C58.0414 43.0437 58.7971 42.2857 58.7971 41.3507C58.7971 40.4157 58.0414 39.6578 57.1095 39.6578H51.2556L62.0562 28.8228H69.1199C70.0518 28.8228 70.8075 28.0649 70.8075 27.1299C70.8075 26.1949 70.0518 25.4369 69.1199 25.4369H65.4313L71.3793 19.4701C72.0383 18.809 72.0383 17.737 71.3793 17.0757C70.7201 16.4146 69.6518 16.4146 68.9925 17.0757L63.0444 23.0427V19.3421C63.0444 18.4071 62.2887 17.6491 61.3568 17.6491C60.4249 17.6491 59.6692 18.4071 59.6692 19.3421V26.4286L48.8687 37.2636V31.3909C48.8687 30.4559 48.113 29.6979 47.1811 29.6979C46.2492 29.6979 45.4935 30.4559 45.4935 31.3909V40.6495L30.4881 55.7026V49.8299C30.4881 48.8949 29.7324 48.1369 28.8005 48.1369C27.8686 48.1369 27.1129 48.8949 27.1129 49.8299V59.0885L16.788 69.4462C12.9231 64.7784 11.2688 58.066 16.2858 53.0328C20.3468 48.9589 18.8447 45.7858 17.5195 42.9865C16.6721 41.1963 15.7957 39.3454 15.8735 36.8039C16.0396 31.3844 18.2323 27.6039 22.0473 26.1588C23.1373 25.7461 24.228 25.5673 25.2569 25.5673C27.4438 25.5673 29.3493 26.375 30.361 27.4585C31.6981 28.8904 33.6643 29.1995 35.2532 28.2278C36.8523 27.2501 38.226 24.7172 36.8349 20.7967C34.8137 15.1006 37.2779 10.8831 38.9269 8.87607C41.6539 5.55635 45.3914 4.10786 47.5233 4.43104C50.9651 4.95197 52.3373 7.89737 53.4402 10.264C53.6096 10.6276 53.7698 10.9711 53.9304 11.2896C54.9141 13.2371 56.6587 14.3347 58.5942 14.2248C60.5424 14.1146 62.2124 12.8058 62.9529 10.8094C64.4357 6.81185 67.2166 5.54281 69.2882 5.18204C72.7749 4.57461 76.8752 6.13179 79.2564 8.96851C79.3185 9.04249 79.3865 9.11072 79.4603 9.17302C82.288 11.5619 83.8403 15.6741 83.2348 19.1731C82.8753 21.2514 81.6101 24.0409 77.6252 25.5285C75.6352 26.2712 74.3307 27.9467 74.2207 29.9009C74.1113 31.8437 75.205 33.5927 77.1466 34.5796C77.464 34.7409 77.8063 34.9014 78.1689 35.0714C80.528 36.1775 83.4643 37.5543 83.9835 41.007C84.3054 43.1461 82.8616 46.8953 79.5528 49.6311Z" fill="#8c1515"/>
<path d="M87.3209 40.502C86.5318 35.2554 82.1915 33.2201 79.5982 32.0042C79.2606 31.8459 78.9417 31.6965 78.6722 31.5595C77.9425 31.1886 77.5582 30.6673 77.5906 30.092C77.6239 29.5012 78.0881 28.9686 78.8025 28.7021C83.0834 27.1043 85.8385 23.9258 86.5607 19.7525C87.3658 15.0979 85.4327 9.86324 81.7448 6.67743C78.5689 2.97764 73.3512 1.03887 68.711 1.84607C64.5509 2.57032 61.3825 5.33424 59.7897 9.62876C59.5239 10.3452 58.993 10.8111 58.404 10.8445C57.8347 10.8753 57.3112 10.4917 56.9412 9.75946C56.8045 9.48892 56.6557 9.16895 56.4979 8.83036C55.2857 6.22879 53.2571 1.87468 48.0271 1.08305C44.3228 0.522684 39.5106 2.84153 36.3223 6.7228C32.7436 11.0791 31.7715 16.6227 33.6554 21.9322C34.3628 23.9261 33.948 25.0606 33.4967 25.3365C33.2385 25.4945 32.9881 25.3191 32.8244 25.1434C30.1516 22.2816 25.118 21.3764 20.8553 22.9909C15.7532 24.9236 12.708 29.9202 12.5002 36.6998C12.3973 40.059 13.547 42.4875 14.4708 44.4388C15.7482 47.1369 16.2767 48.2536 13.8994 50.6384C10.6751 53.8732 9.29835 57.9292 9.91854 62.3679C10.3823 65.6871 11.955 69.0016 14.392 71.8498L1.49425 84.7888C0.835249 85.4499 0.835249 86.5219 1.49425 87.1831C1.82384 87.5138 2.25569 87.679 2.68755 87.679C3.1194 87.679 3.55126 87.5138 3.88084 87.1831L16.7784 74.2445C19.6178 76.6895 22.9218 78.2672 26.2305 78.7324C26.9215 78.8296 27.603 78.8778 28.2736 78.8778C31.8976 78.8778 35.2015 77.4681 37.9224 74.7385C40.2997 72.3537 41.413 72.8841 44.1024 74.1653C46.0477 75.0922 48.4684 76.2451 51.817 76.1423C58.575 75.9339 63.5559 72.879 65.4825 67.7607C67.0919 63.4844 66.1896 58.4349 63.3369 55.7537C63.1619 55.5893 62.9865 55.3388 63.1443 55.0791C63.4196 54.6262 64.5508 54.2102 66.5377 54.9199C71.8309 56.8101 77.3565 55.8346 81.6991 52.2444C85.568 49.0455 87.8797 44.2171 87.3209 40.502ZM79.5528 49.6311C77.5523 51.2852 73.3478 53.7572 67.6699 51.7297C63.7616 50.3341 61.2372 51.7123 60.2624 53.3165C59.2939 54.9108 59.6021 56.8831 61.0294 58.2244C62.6175 59.7169 63.6113 63.147 62.325 66.5644C60.8845 70.3917 57.1159 72.5914 51.7136 72.7578C49.177 72.8351 47.3348 71.9567 45.5505 71.1066C42.7599 69.777 39.5972 68.2701 35.5358 72.3442C30.5188 77.3773 23.8275 75.7179 19.1746 71.8407L29.4997 61.4828H38.7288C39.6606 61.4828 40.4164 60.7249 40.4164 59.7899C40.4164 58.8549 39.6606 58.0969 38.7288 58.0969H32.8748L47.8804 43.0437H57.1095C58.0414 43.0437 58.7971 42.2857 58.7971 41.3507C58.7971 40.4157 58.0414 39.6578 57.1095 39.6578H51.2556L62.0562 28.8228H69.1199C70.0518 28.8228 70.8075 28.0649 70.8075 27.1299C70.8075 26.1949 70.0518 25.4369 69.1199 25.4369H65.4313L71.3793 19.4701C72.0383 18.809 72.0383 17.737 71.3793 17.0757C70.7201 16.4146 69.6518 16.4146 68.9925 17.0757L63.0444 23.0427V19.3421C63.0444 18.4071 62.2887 17.6491 61.3568 17.6491C60.4249 17.6491 59.6692 18.4071 59.6692 19.3421V26.4286L48.8687 37.2636V31.3909C48.8687 30.4559 48.113 29.6979 47.1811 29.6979C46.2492 29.6979 45.4935 30.4559 45.4935 31.3909V40.6495L30.4881 55.7026V49.8299C30.4881 48.8949 29.7324 48.1369 28.8005 48.1369C27.8686 48.1369 27.1129 48.8949 27.1129 49.8299V59.0885L16.788 69.4462C12.9231 64.7784 11.2688 58.066 16.2858 53.0328C20.3468 48.9589 18.8447 45.7858 17.5195 42.9865C16.6721 41.1963 15.7957 39.3454 15.8735 36.8039C16.0396 31.3844 18.2323 27.6039 22.0473 26.1588C23.1373 25.7461 24.228 25.5673 25.2569 25.5673C27.4438 25.5673 29.3493 26.375 30.361 27.4585C31.6981 28.8904 33.6643 29.1995 35.2532 28.2278C36.8523 27.2501 38.226 24.7172 36.8349 20.7967C34.8137 15.1006 37.2779 10.8831 38.9269 8.87607C41.6539 5.55635 45.3914 4.10786 47.5233 4.43104C50.9651 4.95197 52.3373 7.89737 53.4402 10.264C53.6096 10.6276 53.7698 10.9711 53.9304 11.2896C54.9141 13.2371 56.6587 14.3347 58.5942 14.2248C60.5424 14.1146 62.2124 12.8058 62.9529 10.8094C64.4357 6.81185 67.2166 5.54281 69.2882 5.18204C72.7749 4.57461 76.8752 6.13179 79.2564 8.96851C79.3185 9.04249 79.3865 9.11072 79.4603 9.17302C82.288 11.5619 83.8403 15.6741 83.2348 19.1731C82.8753 21.2514 81.6101 24.0409 77.6252 25.5285C75.6352 26.2712 74.3307 27.9467 74.2207 29.9009C74.1113 31.8437 75.205 33.5927 77.1466 34.5796C77.464 34.7409 77.8063 34.9014 78.1689 35.0714C80.528 36.1775 83.4643 37.5543 83.9835 41.007C84.3054 43.1461 82.8616 46.8953 79.5528 49.6311Z" stroke="#8c1515" stroke-width="2" mask="url(#path-7-outside-2)"/>
</svg>
