<svg width="82" height="82" viewBox="0 0 82 82" fill="none" xmlns="http://www.w3.org/2000/svg">
<g clip-path="url(#clip0)">
<path d="M7.34242 62.0774C6.44042 62.0774 5.56575 61.6025 5.09767 60.7586C1.76642 54.7453 0 47.9119 0 41C0 18.3919 18.3919 0 41 0C47.5908 0 54.1268 1.60583 59.9044 4.63983C61.1583 5.29925 61.6401 6.847 60.9807 8.10092C60.3281 9.35483 58.7803 9.84 57.5196 9.17717C52.4732 6.52583 46.7639 5.125 41 5.125C21.2175 5.125 5.125 21.2175 5.125 41C5.125 47.0441 6.66592 53.0164 9.58375 58.2747C10.2671 59.5115 9.8195 61.0729 8.58608 61.7597C8.18975 61.9749 7.76267 62.0774 7.34242 62.0774Z" fill="#8c1515"/>
<path d="M40.9999 81.999C33.4046 81.999 25.9939 79.9011 19.5706 75.9344C18.3645 75.193 17.9921 73.611 18.7335 72.4084C19.4783 71.2091 21.0602 70.8299 22.2595 71.5747C27.8765 75.0392 34.3579 76.8739 40.9999 76.8739C60.7824 76.8739 76.8749 60.7814 76.8749 40.9989C76.8749 34.3467 75.0435 27.8789 71.5756 22.2961C70.8308 21.0934 71.2032 19.5149 72.4025 18.7667C73.6051 18.015 75.1836 18.3909 75.9285 19.5935C79.902 25.9861 81.9999 33.39 81.9999 40.9989C81.9999 63.607 63.608 81.999 40.9999 81.999Z" fill="#8c1515"/>
<path d="M31.6038 38.4381C30.1893 38.4381 29.0413 37.2901 29.0413 35.8756C29.0413 33.9931 27.5107 32.459 25.6247 32.459C23.7387 32.459 22.208 33.9931 22.208 35.8756C22.208 37.2901 21.06 38.4381 19.6455 38.4381C18.231 38.4381 17.083 37.2901 17.083 35.8756C17.083 31.1675 20.9131 27.334 25.6247 27.334C30.3363 27.334 34.1663 31.1675 34.1663 35.8756C34.1663 37.2901 33.0183 38.4381 31.6038 38.4381Z" fill="#8c1515"/>
<path d="M62.3538 38.4381C60.9393 38.4381 59.7913 37.2901 59.7913 35.8756C59.7913 33.9931 58.2607 32.459 56.3747 32.459C54.4887 32.459 52.958 33.9931 52.958 35.8756C52.958 37.2901 51.81 38.4381 50.3955 38.4381C48.981 38.4381 47.833 37.2901 47.833 35.8756C47.833 31.1675 51.6631 27.334 56.3747 27.334C61.0862 27.334 64.9163 31.1675 64.9163 35.8756C64.9163 37.2901 63.7683 38.4381 62.3538 38.4381Z" fill="#8c1515"/>
<path d="M41.0004 61.5002C33.5384 61.5002 26.5274 58.596 21.252 53.3173C20.2509 52.3162 20.2509 50.6933 21.252 49.6922C22.2531 48.6911 23.876 48.6911 24.8771 49.6922C29.1821 54.004 34.9084 56.3752 41.0004 56.3752C47.0923 56.3752 52.8186 54.0041 57.127 49.6956C58.1281 48.6946 59.751 48.6946 60.7521 49.6956C61.7532 50.6967 61.7532 52.3196 60.7521 53.3207C55.4734 58.596 48.4624 61.5002 41.0004 61.5002Z" fill="#8c1515"/>
<path d="M68.3337 27.4561C67.8212 27.4561 67.3087 27.3024 66.8645 26.9949C64.8316 25.5701 54.667 18.132 54.667 11.2748C54.667 6.87413 58.4151 3.29688 63.0207 3.29688C64.999 3.29688 66.8645 3.96313 68.3337 5.11113C69.8028 3.96313 71.6683 3.29688 73.6466 3.29688C78.2522 3.29346 82.0003 6.87413 82.0003 11.2748C82.0003 18.132 71.8357 25.5735 69.8028 26.9949C69.3587 27.3024 68.8462 27.4561 68.3337 27.4561ZM63.0207 8.41846C61.2407 8.41846 59.792 9.69971 59.792 11.2714C59.792 14.0047 64.4626 18.7095 68.3337 21.7093C72.2731 18.6685 76.8753 14.0355 76.8753 11.2714C76.8753 9.69971 75.4267 8.41846 73.6466 8.41846C72.3277 8.41846 71.1558 9.11204 70.6604 10.1849C69.8199 11.9957 66.8508 11.9957 66.0103 10.1849C65.5115 9.11204 64.3396 8.41846 63.0207 8.41846Z" fill="#8c1515"/>
<path d="M13.6667 82.1221C13.1542 82.1221 12.6417 81.9684 12.1975 81.6609C10.1646 80.2361 0 72.798 0 65.9408C0 61.5401 3.74808 57.9629 8.35375 57.9629C10.332 57.9629 12.1975 58.6291 13.6667 59.7771C15.1358 58.6291 17.0013 57.9629 18.9796 57.9629C23.5853 57.9595 27.3333 61.5401 27.3333 65.9408C27.3333 72.798 17.1688 80.2395 15.1358 81.6609C14.6917 81.9684 14.1792 82.1221 13.6667 82.1221ZM8.35375 63.0845C6.57367 63.0845 5.125 64.3657 5.125 65.9374C5.125 68.6707 9.79558 73.3755 13.6667 76.3753C17.6061 73.3345 22.2083 68.7015 22.2083 65.9374C22.2083 64.3657 20.7597 63.0845 18.9796 63.0845C17.6608 63.0845 16.4888 63.7781 15.9934 64.8509C15.1529 66.6617 12.1838 66.6617 11.3433 64.8509C10.8445 63.7781 9.67258 63.0845 8.35375 63.0845Z" fill="#8c1515"/>
</g>
<defs>
<clipPath id="clip0">
<rect width="82" height="82" fill="white"/>
</clipPath>
</defs>
</svg>
