<svg width="112" height="112" viewBox="0 0 112 112" fill="none" xmlns="http://www.w3.org/2000/svg">
<rect width="112" height="112" rx="12" fill="#FC3C81" fill-opacity="0.2"/>
<g clip-path="url(#clip0)">
<path d="M22.3424 77.0774C21.4404 77.0774 20.5658 76.6025 20.0977 75.7586C16.7664 69.7453 15 62.9119 15 56C15 33.3919 33.3919 15 56 15C62.5908 15 69.1268 16.6058 74.9044 19.6398C76.1583 20.2993 76.6401 21.847 75.9807 23.1009C75.3281 24.3548 73.7803 24.84 72.5196 24.1772C67.4732 21.5258 61.7639 20.125 56 20.125C36.2175 20.125 20.125 36.2175 20.125 56C20.125 62.0441 21.6659 68.0164 24.5838 73.2747C25.2671 74.5115 24.8195 76.0729 23.5861 76.7597C23.1898 76.9749 22.7627 77.0774 22.3424 77.0774Z" fill="#FC3C81"/>
<path d="M55.9992 96.999C48.4039 96.999 40.9932 94.9011 34.5698 90.9344C33.3637 90.193 32.9913 88.611 33.7327 87.4084C34.4776 86.2091 36.0595 85.8299 37.2587 86.5747C42.8757 90.0392 49.3572 91.8739 55.9992 91.8739C75.7817 91.8739 91.8741 75.7814 91.8741 55.9989C91.8741 49.3467 90.0428 42.8789 86.5749 37.2961C85.8301 36.0934 86.2025 34.5149 87.4017 33.7667C88.6044 33.015 90.1829 33.3909 90.9277 34.5935C94.9013 40.9861 96.9991 48.39 96.9991 55.9989C96.9991 78.607 78.6072 96.999 55.9992 96.999Z" fill="#FC3C81"/>
<path d="M46.6048 53.4381C45.1903 53.4381 44.0423 52.2901 44.0423 50.8756C44.0423 48.9931 42.5117 47.459 40.6257 47.459C38.7397 47.459 37.209 48.9931 37.209 50.8756C37.209 52.2901 36.061 53.4381 34.6465 53.4381C33.232 53.4381 32.084 52.2901 32.084 50.8756C32.084 46.1675 35.9141 42.334 40.6257 42.334C45.3372 42.334 49.1673 46.1675 49.1673 50.8756C49.1673 52.2901 48.0193 53.4381 46.6048 53.4381Z" fill="#FC3C81"/>
<path d="M77.3548 53.4381C75.9403 53.4381 74.7923 52.2901 74.7923 50.8756C74.7923 48.9931 73.2616 47.459 71.3756 47.459C69.4896 47.459 67.959 48.9931 67.959 50.8756C67.959 52.2901 66.811 53.4381 65.3965 53.4381C63.982 53.4381 62.834 52.2901 62.834 50.8756C62.834 46.1675 66.6641 42.334 71.3756 42.334C76.0872 42.334 79.9173 46.1675 79.9173 50.8756C79.9173 52.2901 78.7693 53.4381 77.3548 53.4381Z" fill="#FC3C81"/>
<path d="M56.0011 76.5002C48.5391 76.5002 41.5281 73.596 36.2528 68.3173C35.2517 67.3162 35.2517 65.6933 36.2528 64.6922C37.2538 63.6911 38.8768 63.6911 39.8778 64.6922C44.1828 69.004 49.9092 71.3752 56.0011 71.3752C62.093 71.3752 67.8193 69.0041 72.1278 64.6956C73.1288 63.6946 74.7518 63.6946 75.7528 64.6956C76.7539 65.6967 76.7539 67.3196 75.7528 68.3207C70.4741 73.596 63.4631 76.5002 56.0011 76.5002Z" fill="#FC3C81"/>
<path d="M83.3327 42.4561C82.8202 42.4561 82.3077 42.3024 81.8635 41.9949C79.8306 40.5701 69.666 33.132 69.666 26.2748C69.666 21.8741 73.4141 18.2969 78.0198 18.2969C79.998 18.2969 81.8635 18.9631 83.3327 20.1111C84.8018 18.9631 86.6673 18.2969 88.6456 18.2969C93.2513 18.2935 96.9993 21.8741 96.9993 26.2748C96.9993 33.132 86.8348 40.5735 84.8018 41.9949C84.3577 42.3024 83.8452 42.4561 83.3327 42.4561ZM78.0198 23.4185C76.2397 23.4185 74.791 24.6997 74.791 26.2714C74.791 29.0047 79.4616 33.7095 83.3327 36.7093C87.2721 33.6685 91.8743 29.0355 91.8743 26.2714C91.8743 24.6997 90.4257 23.4185 88.6456 23.4185C87.3268 23.4185 86.1548 24.112 85.6594 25.1849C84.8189 26.9957 81.8498 26.9957 81.0093 25.1849C80.5105 24.112 79.3386 23.4185 78.0198 23.4185Z" fill="#FC3C81"/>
<path d="M28.6667 97.1221C28.1542 97.1221 27.6417 96.9684 27.1975 96.6609C25.1646 95.2361 15 87.798 15 80.9408C15 76.5401 18.7481 72.9629 23.3538 72.9629C25.332 72.9629 27.1975 73.6291 28.6667 74.7771C30.1358 73.6291 32.0013 72.9629 33.9796 72.9629C38.5853 72.9595 42.3333 76.5401 42.3333 80.9408C42.3333 87.798 32.1688 95.2395 30.1358 96.6609C29.6917 96.9684 29.1792 97.1221 28.6667 97.1221ZM23.3538 78.0845C21.5737 78.0845 20.125 79.3657 20.125 80.9374C20.125 83.6707 24.7956 88.3755 28.6667 91.3753C32.6061 88.3345 37.2083 83.7015 37.2083 80.9374C37.2083 79.3657 35.7597 78.0845 33.9796 78.0845C32.6608 78.0845 31.4888 78.7781 30.9934 79.8509C30.1529 81.6617 27.1838 81.6617 26.3433 79.8509C25.8445 78.7781 24.6726 78.0845 23.3538 78.0845Z" fill="#FC3C81"/>
</g>
<defs>
<clipPath id="clip0">
<rect x="15" y="15" width="82" height="82" fill="white"/>
</clipPath>
</defs>
</svg>
