<svg width="24" height="24" viewBox="0 0 24 24" fill="none" xmlns="http://www.w3.org/2000/svg">
<path d="M3.51665 3.51662C8.20501 -1.17183 15.7943 -1.17258 20.4834 3.51662C25.1719 8.20507 25.1726 15.7942 20.4834 20.4834C15.795 25.1718 8.20576 25.1725 3.51665 20.4834C-1.17185 15.7949 -1.1725 8.20578 3.51665 3.51662ZM4.01809 18.7732C4.57863 18.2719 5.17823 17.8283 5.81025 17.4461C5.39251 16.0031 5.14503 14.4152 5.08653 12.7645H1.5593C1.71877 14.9894 2.57364 17.0765 4.01809 18.7732ZM22.4408 12.7645H18.9135C18.855 14.4152 18.6075 16.0031 18.1898 17.4461C18.8218 17.8283 19.4214 18.2719 19.982 18.7732C21.4264 17.0765 22.2812 14.9894 22.4408 12.7645ZM19.9819 5.22682C19.4214 5.72807 18.8218 6.17166 18.1898 6.55394C18.6075 7.99693 18.855 9.58484 18.9135 11.2355H22.4408C22.2812 9.01062 21.4264 6.92353 19.9819 5.22682ZM12.7645 6.71197C14.0114 6.62279 15.2137 6.31568 16.3282 5.80905C15.68 4.13983 14.485 2.13779 12.7645 1.64165V6.71197ZM12.7645 8.2439V11.2355H17.3838C17.3309 9.83921 17.133 8.49841 16.804 7.27162C15.5374 7.82532 14.1752 8.15599 12.7645 8.2439ZM12.7645 12.7645V15.7561C14.1752 15.8441 15.5374 16.1747 16.804 16.7284C17.133 15.5016 17.3309 14.1608 17.3838 12.7645H12.7645ZM12.7645 17.2881V22.3583C14.4849 21.8622 15.6799 19.8604 16.3282 18.191C15.2137 17.6844 14.0114 17.3773 12.7645 17.2881ZM11.2355 17.2881C9.9886 17.3773 8.78635 17.6844 7.67177 18.191C8.32004 19.8603 9.51499 21.8622 11.2355 22.3583V17.2881ZM11.2355 15.7561V12.7645H6.61621C6.66914 14.1608 6.86698 15.5016 7.19601 16.7284C8.46261 16.1747 9.82481 15.8441 11.2355 15.7561ZM11.2355 11.2355V8.2439C9.82481 8.15599 8.46261 7.82532 7.19601 7.27162C6.86698 8.49841 6.66914 9.83921 6.61621 11.2355H11.2355ZM11.2355 6.71197V1.6417C9.51499 2.13784 8.31999 4.13988 7.67177 5.80909C8.78635 6.31568 9.9886 6.62279 11.2355 6.71197ZM7.80142 2.405C6.82276 2.83355 5.90973 3.41466 5.09126 4.13566C5.48084 4.47916 5.89193 4.79063 6.32119 5.06917C6.70239 4.12531 7.18936 3.20806 7.80142 2.405ZM17.6789 5.06917C18.1081 4.79063 18.5192 4.47916 18.9088 4.13566C18.0903 3.41466 17.1773 2.83355 16.1986 2.405C16.8107 3.20815 17.2977 4.12541 17.6789 5.06917ZM17.6788 18.9309C17.2977 19.8747 16.8106 20.792 16.1986 21.595C17.1772 21.1665 18.0903 20.5854 18.9088 19.8644C18.5192 19.5209 18.1081 19.2094 17.6788 18.9309ZM6.32119 18.9309C5.89193 19.2094 5.48084 19.5209 5.09126 19.8643C5.90973 20.5853 6.82276 21.1664 7.80142 21.595C7.1894 20.792 6.70239 19.8747 6.32119 18.9309ZM5.08648 11.2355C5.14498 9.58489 5.39246 7.99693 5.8102 6.55399C5.17818 6.1717 4.57863 5.72811 4.01804 5.22687C2.57359 6.92353 1.71877 9.01062 1.55925 11.2355H5.08648Z" fill="#c1c1c1"/>
</svg>
